<?xml version="1.1" encoding="windows-1252"?>
<svg xmlns="http://www.w3.org/2000/svg"
    xmlns:latexdraw="http://latexdraw.sourceforge.net/namespaces/latexdraw"
    version="1.1" baseProfile="full">
    <g>
        <g latexdraw:type="joinedLines" id="id21805939">
            <polyline points="140.0,180.0 280.0,120.0 280.0,120.0 "
                stroke-width="2.0" stroke="black" fill="none" latexdraw:rotationAngle="0.0"/>
        </g>
        <g latexdraw:type="joinedLines" id="id32212260">
            <polyline
                points="280.0,120.0 140.0,300.0 280.0,220.0 140.0,180.0 280.0,320.0 140.0,300.0 "
                stroke-width="2.0" stroke="black" fill="none" latexdraw:rotationAngle="0.0"/>
        </g>
        <g latexdraw:type="joinedLines" id="id25156529">
            <polyline points="420.0,220.0 520.0,140.0 520.0,140.0 "
                stroke-width="2.0" stroke="black" fill="none" latexdraw:rotationAngle="0.0"/>
        </g>
        <g latexdraw:type="joinedLines" id="id11702449">
            <polyline points="420.0,220.0 540.0,200.0 "
                stroke-width="2.0" stroke="black" latexdraw:rotationAngle="0.0"/>
        </g>
        <g latexdraw:type="joinedLines" id="id19490244">
            <polyline points="420.0,220.0 520.0,260.0 "
                stroke-width="2.0" stroke="black" latexdraw:rotationAngle="0.0"/>
        </g>
        <g latexdraw:type="joinedLines" id="id7247470">
            <polyline points="420.0,220.0 500.0,320.0 "
                stroke-width="2.0" stroke="black" latexdraw:rotationAngle="0.0"/>
        </g>
        <g latexdraw:type="dot" id="id6602628" latexdraw:size="10.0"
            latexdraw:dotShape="*" latexdraw:position="140.0 180.0">
            <path
                d="M 144.6153846153846 180.0 C 144.6153846153846 182.54900653768058 142.54900653768058 184.6153846153846 140.0 184.6153846153846 C 137.45099346231942 184.6153846153846 135.3846153846154 182.54900653768058 135.3846153846154 180.0 C 135.3846153846154 177.45099346231942 137.45099346231942 175.3846153846154 140.0 175.3846153846154 C 142.54900653768058 175.3846153846154 144.6153846153846 177.45099346231942 144.6153846153846 180.0 z "
                fill="black" stroke-linecap="square"
                stroke-linejoin="butt" stroke-width="0.625"
                stroke-miterlimit="10.0" stroke-dashoffset="0.0" stroke="black"/>
        </g>
        <g latexdraw:type="dot" id="id9333369" latexdraw:size="10.0"
            latexdraw:dotShape="*" latexdraw:position="280.0 120.0">
            <path
                d="M 284.6153846153846 120.0 C 284.6153846153846 122.54900653768058 282.54900653768055 124.61538461538461 280.0 124.61538461538461 C 277.4509934623194 124.61538461538461 275.38461538461536 122.54900653768058 275.38461538461536 120.0 C 275.38461538461536 117.45099346231942 277.4509934623194 115.38461538461539 280.0 115.38461538461539 C 282.54900653768055 115.38461538461539 284.6153846153846 117.45099346231942 284.6153846153846 120.0 z "
                fill="black" stroke-linecap="square"
                stroke-linejoin="butt" stroke-width="0.625"
                stroke-miterlimit="10.0" stroke-dashoffset="0.0" stroke="black"/>
        </g>
        <g latexdraw:type="dot" id="id23519995" latexdraw:size="10.0"
            latexdraw:dotShape="*" latexdraw:position="280.0 220.0">
            <path
                d="M 284.6153846153846 220.0 C 284.6153846153846 222.54900653768058 282.54900653768055 224.6153846153846 280.0 224.6153846153846 C 277.4509934623194 224.6153846153846 275.38461538461536 222.54900653768058 275.38461538461536 220.0 C 275.38461538461536 217.45099346231942 277.4509934623194 215.3846153846154 280.0 215.3846153846154 C 282.54900653768055 215.3846153846154 284.6153846153846 217.45099346231942 284.6153846153846 220.0 z "
                fill="black" stroke-linecap="square"
                stroke-linejoin="butt" stroke-width="0.625"
                stroke-miterlimit="10.0" stroke-dashoffset="0.0" stroke="black"/>
        </g>
        <g latexdraw:type="dot" id="id3633903" latexdraw:size="10.0"
            latexdraw:dotShape="*" latexdraw:position="140.0 300.0">
            <path
                d="M 144.6153846153846 300.0 C 144.6153846153846 302.54900653768055 142.54900653768058 304.6153846153846 140.0 304.6153846153846 C 137.45099346231942 304.6153846153846 135.3846153846154 302.54900653768055 135.3846153846154 300.0 C 135.3846153846154 297.4509934623194 137.45099346231942 295.38461538461536 140.0 295.38461538461536 C 142.54900653768058 295.38461538461536 144.6153846153846 297.4509934623194 144.6153846153846 300.0 z "
                fill="black" stroke-linecap="square"
                stroke-linejoin="butt" stroke-width="0.625"
                stroke-miterlimit="10.0" stroke-dashoffset="0.0" stroke="black"/>
        </g>
        <g latexdraw:type="dot" id="id2331126" latexdraw:size="10.0"
            latexdraw:dotShape="*" latexdraw:position="280.0 320.0">
            <path
                d="M 284.6153846153846 320.0 C 284.6153846153846 322.54900653768055 282.54900653768055 324.6153846153846 280.0 324.6153846153846 C 277.4509934623194 324.6153846153846 275.38461538461536 322.54900653768055 275.38461538461536 320.0 C 275.38461538461536 317.4509934623194 277.4509934623194 315.38461538461536 280.0 315.38461538461536 C 282.54900653768055 315.38461538461536 284.6153846153846 317.4509934623194 284.6153846153846 320.0 z "
                fill="black" stroke-linecap="square"
                stroke-linejoin="butt" stroke-width="0.625"
                stroke-miterlimit="10.0" stroke-dashoffset="0.0" stroke="black"/>
        </g>
        <g latexdraw:type="dot" id="id32930620" latexdraw:size="10.0"
            latexdraw:dotShape="*" latexdraw:position="420.0 220.0">
            <path
                d="M 424.6153846153846 220.0 C 424.6153846153846 222.54900653768058 422.54900653768055 224.6153846153846 420.0 224.6153846153846 C 417.4509934623194 224.6153846153846 415.38461538461536 222.54900653768058 415.38461538461536 220.0 C 415.38461538461536 217.45099346231942 417.4509934623194 215.3846153846154 420.0 215.3846153846154 C 422.54900653768055 215.3846153846154 424.6153846153846 217.45099346231942 424.6153846153846 220.0 z "
                fill="black" stroke-linecap="square"
                stroke-linejoin="butt" stroke-width="0.625"
                stroke-miterlimit="10.0" stroke-dashoffset="0.0" stroke="black"/>
        </g>
        <g latexdraw:type="dot" id="id19378584" latexdraw:size="10.0"
            latexdraw:dotShape="*" latexdraw:position="520.0 140.0">
            <path
                d="M 524.6153846153846 140.0 C 524.6153846153846 142.54900653768058 522.5490065376806 144.6153846153846 520.0 144.6153846153846 C 517.4509934623194 144.6153846153846 515.3846153846154 142.54900653768058 515.3846153846154 140.0 C 515.3846153846154 137.45099346231942 517.4509934623194 135.3846153846154 520.0 135.3846153846154 C 522.5490065376806 135.3846153846154 524.6153846153846 137.45099346231942 524.6153846153846 140.0 z "
                fill="black" stroke-linecap="square"
                stroke-linejoin="butt" stroke-width="0.625"
                stroke-miterlimit="10.0" stroke-dashoffset="0.0" stroke="black"/>
        </g>
        <g latexdraw:type="dot" id="id27623982" latexdraw:size="10.0"
            latexdraw:dotShape="*" latexdraw:position="540.0 200.0">
            <path
                d="M 544.6153846153846 200.0 C 544.6153846153846 202.54900653768058 542.5490065376806 204.6153846153846 540.0 204.6153846153846 C 537.4509934623194 204.6153846153846 535.3846153846154 202.54900653768058 535.3846153846154 200.0 C 535.3846153846154 197.45099346231942 537.4509934623194 195.3846153846154 540.0 195.3846153846154 C 542.5490065376806 195.3846153846154 544.6153846153846 197.45099346231942 544.6153846153846 200.0 z "
                fill="black" stroke-linecap="square"
                stroke-linejoin="butt" stroke-width="0.625"
                stroke-miterlimit="10.0" stroke-dashoffset="0.0" stroke="black"/>
        </g>
        <g latexdraw:type="dot" id="id23481127" latexdraw:size="10.0"
            latexdraw:dotShape="*" latexdraw:position="520.0 260.0">
            <path
                d="M 524.6153846153846 260.0 C 524.6153846153846 262.5490065376806 522.5490065376806 264.61538461538464 520.0 264.61538461538464 C 517.4509934623194 264.61538461538464 515.3846153846154 262.5490065376806 515.3846153846154 260.0 C 515.3846153846154 257.4509934623194 517.4509934623194 255.3846153846154 520.0 255.3846153846154 C 522.5490065376806 255.3846153846154 524.6153846153846 257.4509934623194 524.6153846153846 260.0 z "
                fill="black" stroke-linecap="square"
                stroke-linejoin="butt" stroke-width="0.625"
                stroke-miterlimit="10.0" stroke-dashoffset="0.0" stroke="black"/>
        </g>
        <g latexdraw:type="dot" id="id713819" latexdraw:size="10.0"
            latexdraw:dotShape="*" latexdraw:position="500.0 320.0">
            <path
                d="M 504.6153846153846 320.0 C 504.6153846153846 322.54900653768055 502.54900653768055 324.6153846153846 500.0 324.6153846153846 C 497.4509934623194 324.6153846153846 495.38461538461536 322.54900653768055 495.38461538461536 320.0 C 495.38461538461536 317.4509934623194 497.4509934623194 315.38461538461536 500.0 315.38461538461536 C 502.54900653768055 315.38461538461536 504.6153846153846 317.4509934623194 504.6153846153846 320.0 z "
                fill="black" stroke-linecap="square"
                stroke-linejoin="butt" stroke-width="0.625"
                stroke-miterlimit="10.0" stroke-dashoffset="0.0" stroke="black"/>
        </g>
        <g latexdraw:type="text" id="id26896187" fill="black" latexdraw:position="bl">
            <text x="160.0" y="340.0">$K_{2,2}$</text>
        </g>
        <g latexdraw:type="text" id="id5991609" fill="black" latexdraw:position="bl">
            <text x="420.0" y="320.0">$K_{2,4}$</text>
        </g>
    </g>
    <defs/>
    <metadata>
        <latexdraw:metadata>
            <latexdraw:latexIncludes>\usepackage{amssymb}</latexdraw:latexIncludes>
            <latexdraw:displayXScale>true</latexdraw:displayXScale>
            <latexdraw:displayYScale>true</latexdraw:displayYScale>
            <latexdraw:unit>CM</latexdraw:unit>
            <latexdraw:zoom>1.0</latexdraw:zoom>
            <latexdraw:magneticGridStyle>CUSTOMISED</latexdraw:magneticGridStyle>
            <latexdraw:gridGap>20</latexdraw:gridGap>
            <latexdraw:magneticGrid>true</latexdraw:magneticGrid>
            <latexdraw:version>3.3.8</latexdraw:version>
            <latexdraw:size>
                <latexdraw:width>1034</latexdraw:width>
                <latexdraw:height>827</latexdraw:height>
            </latexdraw:size>
            <latexdraw:position>
                <latexdraw:x>11.0</latexdraw:x>
                <latexdraw:y>116.0</latexdraw:y>
            </latexdraw:position>
        </latexdraw:metadata>
    </metadata>
</svg>
