<?xml version="1.1" encoding="windows-1252"?>
<svg xmlns="http://www.w3.org/2000/svg"
    xmlns:latexdraw="http://latexdraw.sourceforge.net/namespaces/latexdraw"
    version="1.1" baseProfile="full">
    <g>
        <g latexdraw:type="joinedLines" id="id19976020">
            <polyline
                points="260.0,80.0 180.0,160.0 220.0,240.0 300.0,240.0 340.0,160.0 260.0,80.0 "
                stroke-width="2.0" stroke="black" fill="none" latexdraw:rotationAngle="0.0"/>
        </g>
        <g latexdraw:type="joinedLines" id="id3303083">
            <polyline
                points="480.0,100.0 620.0,240.0 560.0,60.0 500.0,240.0 640.0,100.0 480.0,100.0 "
                stroke-width="2.0" stroke="black" fill="none" latexdraw:rotationAngle="0.0"/>
        </g>
        <g latexdraw:type="dot" id="id14222151" latexdraw:size="10.0"
            latexdraw:dotShape="*" latexdraw:position="180.0 160.0">
            <path
                d="M 184.6153846153846 160.0 C 184.6153846153846 162.54900653768058 182.54900653768058 164.6153846153846 180.0 164.6153846153846 C 177.45099346231942 164.6153846153846 175.3846153846154 162.54900653768058 175.3846153846154 160.0 C 175.3846153846154 157.45099346231942 177.45099346231942 155.3846153846154 180.0 155.3846153846154 C 182.54900653768058 155.3846153846154 184.6153846153846 157.45099346231942 184.6153846153846 160.0 z "
                fill="black" stroke-linecap="square"
                stroke-linejoin="butt" stroke-width="0.625"
                stroke-miterlimit="10.0" stroke-dashoffset="0.0" stroke="black"/>
        </g>
        <g latexdraw:type="dot" id="id25536267" latexdraw:size="10.0"
            latexdraw:dotShape="*" latexdraw:position="260.0 80.0">
            <path
                d="M 264.61538461538464 80.0 C 264.61538461538464 82.54900653768058 262.5490065376806 84.61538461538461 260.0 84.61538461538461 C 257.4509934623194 84.61538461538461 255.3846153846154 82.54900653768058 255.3846153846154 80.0 C 255.3846153846154 77.45099346231942 257.4509934623194 75.38461538461539 260.0 75.38461538461539 C 262.5490065376806 75.38461538461539 264.61538461538464 77.45099346231942 264.61538461538464 80.0 z "
                fill="black" stroke-linecap="square"
                stroke-linejoin="butt" stroke-width="0.625"
                stroke-miterlimit="10.0" stroke-dashoffset="0.0" stroke="black"/>
        </g>
        <g latexdraw:type="dot" id="id10704575" latexdraw:size="10.0"
            latexdraw:dotShape="*" latexdraw:position="340.0 160.0">
            <path
                d="M 344.6153846153846 160.0 C 344.6153846153846 162.54900653768058 342.54900653768055 164.6153846153846 340.0 164.6153846153846 C 337.4509934623194 164.6153846153846 335.38461538461536 162.54900653768058 335.38461538461536 160.0 C 335.38461538461536 157.45099346231942 337.4509934623194 155.3846153846154 340.0 155.3846153846154 C 342.54900653768055 155.3846153846154 344.6153846153846 157.45099346231942 344.6153846153846 160.0 z "
                fill="black" stroke-linecap="square"
                stroke-linejoin="butt" stroke-width="0.625"
                stroke-miterlimit="10.0" stroke-dashoffset="0.0" stroke="black"/>
        </g>
        <g latexdraw:type="dot" id="id30103578" latexdraw:size="10.0"
            latexdraw:dotShape="*" latexdraw:position="300.0 240.0">
            <path
                d="M 304.6153846153846 240.0 C 304.6153846153846 242.54900653768058 302.54900653768055 244.6153846153846 300.0 244.6153846153846 C 297.4509934623194 244.6153846153846 295.38461538461536 242.54900653768058 295.38461538461536 240.0 C 295.38461538461536 237.45099346231942 297.4509934623194 235.3846153846154 300.0 235.3846153846154 C 302.54900653768055 235.3846153846154 304.6153846153846 237.45099346231942 304.6153846153846 240.0 z "
                fill="black" stroke-linecap="square"
                stroke-linejoin="butt" stroke-width="0.625"
                stroke-miterlimit="10.0" stroke-dashoffset="0.0" stroke="black"/>
        </g>
        <g latexdraw:type="dot" id="id14142711" latexdraw:size="10.0"
            latexdraw:dotShape="*" latexdraw:position="220.0 240.0">
            <path
                d="M 224.6153846153846 240.0 C 224.6153846153846 242.54900653768058 222.54900653768058 244.6153846153846 220.0 244.6153846153846 C 217.45099346231942 244.6153846153846 215.3846153846154 242.54900653768058 215.3846153846154 240.0 C 215.3846153846154 237.45099346231942 217.45099346231942 235.3846153846154 220.0 235.3846153846154 C 222.54900653768058 235.3846153846154 224.6153846153846 237.45099346231942 224.6153846153846 240.0 z "
                fill="black" stroke-linecap="square"
                stroke-linejoin="butt" stroke-width="0.625"
                stroke-miterlimit="10.0" stroke-dashoffset="0.0" stroke="black"/>
        </g>
        <g latexdraw:type="dot" id="id8801372" latexdraw:size="10.0"
            latexdraw:dotShape="*" latexdraw:position="480.0 100.0">
            <path
                d="M 484.6153846153846 100.0 C 484.6153846153846 102.54900653768058 482.54900653768055 104.61538461538461 480.0 104.61538461538461 C 477.4509934623194 104.61538461538461 475.38461538461536 102.54900653768058 475.38461538461536 100.0 C 475.38461538461536 97.45099346231942 477.4509934623194 95.38461538461539 480.0 95.38461538461539 C 482.54900653768055 95.38461538461539 484.6153846153846 97.45099346231942 484.6153846153846 100.0 z "
                fill="black" stroke-linecap="square"
                stroke-linejoin="butt" stroke-width="0.625"
                stroke-miterlimit="10.0" stroke-dashoffset="0.0" stroke="black"/>
        </g>
        <g latexdraw:type="dot" id="id5572366" latexdraw:size="10.0"
            latexdraw:dotShape="*" latexdraw:position="640.0 100.0">
            <path
                d="M 644.6153846153846 100.0 C 644.6153846153846 102.54900653768058 642.5490065376806 104.61538461538461 640.0 104.61538461538461 C 637.4509934623194 104.61538461538461 635.3846153846154 102.54900653768058 635.3846153846154 100.0 C 635.3846153846154 97.45099346231942 637.4509934623194 95.38461538461539 640.0 95.38461538461539 C 642.5490065376806 95.38461538461539 644.6153846153846 97.45099346231942 644.6153846153846 100.0 z "
                fill="black" stroke-linecap="square"
                stroke-linejoin="butt" stroke-width="0.625"
                stroke-miterlimit="10.0" stroke-dashoffset="0.0" stroke="black"/>
        </g>
        <g latexdraw:type="dot" id="id30162777" latexdraw:size="10.0"
            latexdraw:dotShape="*" latexdraw:position="500.0 240.0">
            <path
                d="M 504.6153846153846 240.0 C 504.6153846153846 242.54900653768058 502.54900653768055 244.6153846153846 500.0 244.6153846153846 C 497.4509934623194 244.6153846153846 495.38461538461536 242.54900653768058 495.38461538461536 240.0 C 495.38461538461536 237.45099346231942 497.4509934623194 235.3846153846154 500.0 235.3846153846154 C 502.54900653768055 235.3846153846154 504.6153846153846 237.45099346231942 504.6153846153846 240.0 z "
                fill="black" stroke-linecap="square"
                stroke-linejoin="butt" stroke-width="0.625"
                stroke-miterlimit="10.0" stroke-dashoffset="0.0" stroke="black"/>
        </g>
        <g latexdraw:type="dot" id="id23863510" latexdraw:size="10.0"
            latexdraw:dotShape="*" latexdraw:position="620.0 240.0">
            <path
                d="M 624.6153846153846 240.0 C 624.6153846153846 242.54900653768058 622.5490065376806 244.6153846153846 620.0 244.6153846153846 C 617.4509934623194 244.6153846153846 615.3846153846154 242.54900653768058 615.3846153846154 240.0 C 615.3846153846154 237.45099346231942 617.4509934623194 235.3846153846154 620.0 235.3846153846154 C 622.5490065376806 235.3846153846154 624.6153846153846 237.45099346231942 624.6153846153846 240.0 z "
                fill="black" stroke-linecap="square"
                stroke-linejoin="butt" stroke-width="0.625"
                stroke-miterlimit="10.0" stroke-dashoffset="0.0" stroke="black"/>
        </g>
        <g latexdraw:type="dot" id="id21132508" latexdraw:size="10.0"
            latexdraw:dotShape="*" latexdraw:position="560.0 60.0">
            <path
                d="M 564.6153846153846 60.0 C 564.6153846153846 62.54900653768058 562.5490065376806 64.61538461538461 560.0 64.61538461538461 C 557.4509934623194 64.61538461538461 555.3846153846154 62.54900653768058 555.3846153846154 60.0 C 555.3846153846154 57.45099346231942 557.4509934623194 55.38461538461539 560.0 55.38461538461539 C 562.5490065376806 55.38461538461539 564.6153846153846 57.45099346231942 564.6153846153846 60.0 z "
                fill="black" stroke-linecap="square"
                stroke-linejoin="butt" stroke-width="0.625"
                stroke-miterlimit="10.0" stroke-dashoffset="0.0" stroke="black"/>
        </g>
        <g latexdraw:type="text" id="id19274242" fill="black" latexdraw:position="bl">
            <text x="254.0" y="62.0">$v_1$</text>
        </g>
        <g latexdraw:type="text" id="id33378544" fill="black" latexdraw:position="bl">
            <text x="360.0" y="160.0">$v_2$</text>
        </g>
        <g latexdraw:type="text" id="id9848499" fill="black" latexdraw:position="bl">
            <text x="322.0" y="255.0">$v_3$</text>
        </g>
        <g latexdraw:type="text" id="id4695732" fill="black" latexdraw:position="bl">
            <text x="180.0" y="255.0">$v_4$</text>
        </g>
        <g latexdraw:type="text" id="id3631523" fill="black" latexdraw:position="bl">
            <text x="140.0" y="160.0">$v_5$</text>
        </g>
        <g latexdraw:type="text" id="id1472513" fill="black" latexdraw:position="bl">
            <text x="453.0" y="95.0">$v_1$</text>
        </g>
        <g latexdraw:type="text" id="id20802102" fill="black" latexdraw:position="bl">
            <text x="556.0" y="46.0">$v_4$</text>
        </g>
        <g latexdraw:type="text" id="id484973" fill="black" latexdraw:position="bl">
            <text x="652.0" y="92.0">$v_2$</text>
        </g>
        <g latexdraw:type="text" id="id1418179" fill="black" latexdraw:position="bl">
            <text x="614.0" y="260.0">$v_5$</text>
        </g>
        <g latexdraw:type="text" id="id24774230" fill="black" latexdraw:position="bl">
            <text x="491.0" y="260.0">$v_3$</text>
        </g>
    </g>
    <defs/>
    <metadata>
        <latexdraw:metadata>
            <latexdraw:latexIncludes>\usepackage{amssymb}</latexdraw:latexIncludes>
            <latexdraw:displayXScale>true</latexdraw:displayXScale>
            <latexdraw:displayYScale>true</latexdraw:displayYScale>
            <latexdraw:unit>CM</latexdraw:unit>
            <latexdraw:zoom>1.0</latexdraw:zoom>
            <latexdraw:magneticGridStyle>CUSTOMISED</latexdraw:magneticGridStyle>
            <latexdraw:gridGap>20</latexdraw:gridGap>
            <latexdraw:magneticGrid>false</latexdraw:magneticGrid>
            <latexdraw:version>3.3.8</latexdraw:version>
            <latexdraw:size>
                <latexdraw:width>1034</latexdraw:width>
                <latexdraw:height>827</latexdraw:height>
            </latexdraw:size>
            <latexdraw:position>
                <latexdraw:x>263.0</latexdraw:x>
                <latexdraw:y>135.0</latexdraw:y>
            </latexdraw:position>
        </latexdraw:metadata>
    </metadata>
</svg>
