<?xml version="1.1" encoding="windows-1252"?>
<svg xmlns="http://www.w3.org/2000/svg"
    xmlns:latexdraw="http://latexdraw.sourceforge.net/namespaces/latexdraw"
    version="1.1" baseProfile="full">
    <g>
        <g latexdraw:type="joinedLines" id="id18305497">
            <polyline
                points="160.0,180.0 440.0,180.0 340.0,100.0 160.0,180.0 340.0,260.0 440.0,180.0 "
                stroke-width="2.0" stroke="black" fill="none" latexdraw:rotationAngle="0.0"/>
        </g>
        <g latexdraw:type="bezierCurve" id="id30244138">
            <path
                d="M 440.0 180.0 C 460.0 160.0 459.0434404721509 131.23475237772072 420.0 100.0 C 380.956559527849 68.76524762227922 360.0 80.0 340.0 100.0 "
                stroke-width="2.0" stroke="black" fill="none" latexdraw:rotationAngle="0.0"/>
        </g>
        <g latexdraw:type="bezierCurve" id="id23482995">
            <path
                d="M 440.0 180.0 C 460.0 200.0 459.0434404721509 228.76524762227928 420.0 260.0 C 380.956559527849 291.2347523777208 360.0 280.0 340.0 260.0 "
                stroke-width="2.0" stroke="black" fill="none" latexdraw:rotationAngle="0.0"/>
        </g>
        <g latexdraw:type="dot" id="id24631849" latexdraw:size="10.0"
            latexdraw:dotShape="*" latexdraw:position="160.0 180.0">
            <path
                d="M 164.6153846153846 180.0 C 164.6153846153846 182.54900653768058 162.54900653768058 184.6153846153846 160.0 184.6153846153846 C 157.45099346231942 184.6153846153846 155.3846153846154 182.54900653768058 155.3846153846154 180.0 C 155.3846153846154 177.45099346231942 157.45099346231942 175.3846153846154 160.0 175.3846153846154 C 162.54900653768058 175.3846153846154 164.6153846153846 177.45099346231942 164.6153846153846 180.0 z "
                fill="black" stroke-linecap="square"
                stroke-linejoin="butt" stroke-width="0.625"
                stroke-miterlimit="10.0" stroke-dashoffset="0.0" stroke="black"/>
        </g>
        <g latexdraw:type="dot" id="id32212843" latexdraw:size="10.0"
            latexdraw:dotShape="*" latexdraw:position="440.0 180.0">
            <path
                d="M 444.6153846153846 180.0 C 444.6153846153846 182.54900653768058 442.54900653768055 184.6153846153846 440.0 184.6153846153846 C 437.4509934623194 184.6153846153846 435.38461538461536 182.54900653768058 435.38461538461536 180.0 C 435.38461538461536 177.45099346231942 437.4509934623194 175.3846153846154 440.0 175.3846153846154 C 442.54900653768055 175.3846153846154 444.6153846153846 177.45099346231942 444.6153846153846 180.0 z "
                fill="black" stroke-linecap="square"
                stroke-linejoin="butt" stroke-width="0.625"
                stroke-miterlimit="10.0" stroke-dashoffset="0.0" stroke="black"/>
        </g>
        <g latexdraw:type="dot" id="id11957157" latexdraw:size="10.0"
            latexdraw:dotShape="*" latexdraw:position="340.0 100.0">
            <path
                d="M 344.6153846153846 100.0 C 344.6153846153846 102.54900653768058 342.54900653768055 104.61538461538461 340.0 104.61538461538461 C 337.4509934623194 104.61538461538461 335.38461538461536 102.54900653768058 335.38461538461536 100.0 C 335.38461538461536 97.45099346231942 337.4509934623194 95.38461538461539 340.0 95.38461538461539 C 342.54900653768055 95.38461538461539 344.6153846153846 97.45099346231942 344.6153846153846 100.0 z "
                fill="black" stroke-linecap="square"
                stroke-linejoin="butt" stroke-width="0.625"
                stroke-miterlimit="10.0" stroke-dashoffset="0.0" stroke="black"/>
        </g>
        <g latexdraw:type="dot" id="id27985951" latexdraw:size="10.0"
            latexdraw:dotShape="*" latexdraw:position="340.0 260.0">
            <path
                d="M 344.6153846153846 260.0 C 344.6153846153846 262.5490065376806 342.54900653768055 264.61538461538464 340.0 264.61538461538464 C 337.4509934623194 264.61538461538464 335.38461538461536 262.5490065376806 335.38461538461536 260.0 C 335.38461538461536 257.4509934623194 337.4509934623194 255.3846153846154 340.0 255.3846153846154 C 342.54900653768055 255.3846153846154 344.6153846153846 257.4509934623194 344.6153846153846 260.0 z "
                fill="black" stroke-linecap="square"
                stroke-linejoin="butt" stroke-width="0.625"
                stroke-miterlimit="10.0" stroke-dashoffset="0.0" stroke="black"/>
        </g>
        <g latexdraw:type="text" id="id20298055" fill="black" latexdraw:position="bl">
            <text x="160.0" y="160.0">$B$</text>
        </g>
        <g latexdraw:type="text" id="id9551855" fill="black" latexdraw:position="bl">
            <text x="340.0" y="80.0">$A$</text>
        </g>
        <g latexdraw:type="text" id="id6229603" fill="black" latexdraw:position="bl">
            <text x="460.0" y="180.0">$C$</text>
        </g>
        <g latexdraw:type="text" id="id24162087" fill="black" latexdraw:position="bl">
            <text x="340.0" y="300.0">$D$</text>
        </g>
    </g>
    <defs/>
    <metadata>
        <latexdraw:metadata>
            <latexdraw:latexIncludes>\usepackage{amssymb}&#xd;
</latexdraw:latexIncludes>
            <latexdraw:displayXScale>true</latexdraw:displayXScale>
            <latexdraw:displayYScale>true</latexdraw:displayYScale>
            <latexdraw:unit>CM</latexdraw:unit>
            <latexdraw:zoom>1.0</latexdraw:zoom>
            <latexdraw:magneticGridStyle>CUSTOMISED</latexdraw:magneticGridStyle>
            <latexdraw:gridGap>20</latexdraw:gridGap>
            <latexdraw:magneticGrid>true</latexdraw:magneticGrid>
            <latexdraw:version>3.3.8</latexdraw:version>
            <latexdraw:size>
                <latexdraw:width>1034</latexdraw:width>
                <latexdraw:height>827</latexdraw:height>
            </latexdraw:size>
            <latexdraw:position>
                <latexdraw:x>0.0</latexdraw:x>
                <latexdraw:y>129.0</latexdraw:y>
            </latexdraw:position>
        </latexdraw:metadata>
    </metadata>
</svg>
