<?xml version="1.1" encoding="windows-1252"?>
<svg xmlns="http://www.w3.org/2000/svg"
    xmlns:latexdraw="http://latexdraw.sourceforge.net/namespaces/latexdraw"
    version="1.1" baseProfile="full">
    <g>
        <g latexdraw:type="joinedLines" id="id23477854">
            <polyline
                points="340.0,120.0 240.0,190.0 340.0,260.0 340.0,120.0 "
                stroke-width="2.0" stroke="black" fill="none" latexdraw:rotationAngle="0.0"/>
        </g>
        <g latexdraw:type="joinedLines" id="id18712004">
            <polyline
                points="380.0,260.0 480.0,190.0 380.0,120.0 380.0,260.0 "
                stroke-width="2.0" stroke="black" fill="none" latexdraw:rotationAngle="0.0"/>
        </g>
        <g latexdraw:type="joinedLines" id="id25918993">
            <polyline
                points="680.0,120.0 740.0,120.0 780.0,160.0 780.0,220.0 740.0,260.0 680.0,260.0 640.0,220.0 640.0,160.0 680.0,120.0 680.0,120.0 "
                stroke-width="2.0" stroke="black" fill="none" latexdraw:rotationAngle="0.0"/>
        </g>
        <g latexdraw:type="dot" id="id20933679" latexdraw:size="10.0"
            latexdraw:dotShape="*" latexdraw:position="340.0 120.0">
            <path
                d="M 344.6153846153846 120.0 C 344.6153846153846 122.54900653768058 342.54900653768055 124.61538461538461 340.0 124.61538461538461 C 337.4509934623194 124.61538461538461 335.38461538461536 122.54900653768058 335.38461538461536 120.0 C 335.38461538461536 117.45099346231942 337.4509934623194 115.38461538461539 340.0 115.38461538461539 C 342.54900653768055 115.38461538461539 344.6153846153846 117.45099346231942 344.6153846153846 120.0 z "
                fill="black" stroke-linecap="square"
                stroke-linejoin="butt" stroke-width="0.625"
                stroke-miterlimit="10.0" stroke-dashoffset="0.0" stroke="black"/>
        </g>
        <g latexdraw:type="dot" id="id2934034" latexdraw:size="10.0"
            latexdraw:dotShape="*" latexdraw:position="340.0 260.0">
            <path
                d="M 344.6153846153846 260.0 C 344.6153846153846 262.5490065376806 342.54900653768055 264.61538461538464 340.0 264.61538461538464 C 337.4509934623194 264.61538461538464 335.38461538461536 262.5490065376806 335.38461538461536 260.0 C 335.38461538461536 257.4509934623194 337.4509934623194 255.3846153846154 340.0 255.3846153846154 C 342.54900653768055 255.3846153846154 344.6153846153846 257.4509934623194 344.6153846153846 260.0 z "
                fill="black" stroke-linecap="square"
                stroke-linejoin="butt" stroke-width="0.625"
                stroke-miterlimit="10.0" stroke-dashoffset="0.0" stroke="black"/>
        </g>
        <g latexdraw:type="dot" id="id13285425" latexdraw:size="10.0"
            latexdraw:dotShape="*" latexdraw:position="380.0 120.0">
            <path
                d="M 384.6153846153846 120.0 C 384.6153846153846 122.54900653768058 382.54900653768055 124.61538461538461 380.0 124.61538461538461 C 377.4509934623194 124.61538461538461 375.38461538461536 122.54900653768058 375.38461538461536 120.0 C 375.38461538461536 117.45099346231942 377.4509934623194 115.38461538461539 380.0 115.38461538461539 C 382.54900653768055 115.38461538461539 384.6153846153846 117.45099346231942 384.6153846153846 120.0 z "
                fill="black" stroke-linecap="square"
                stroke-linejoin="butt" stroke-width="0.625"
                stroke-miterlimit="10.0" stroke-dashoffset="0.0" stroke="black"/>
        </g>
        <g latexdraw:type="dot" id="id3608776" latexdraw:size="10.0"
            latexdraw:dotShape="*" latexdraw:position="380.0 260.0">
            <path
                d="M 384.6153846153846 260.0 C 384.6153846153846 262.5490065376806 382.54900653768055 264.61538461538464 380.0 264.61538461538464 C 377.4509934623194 264.61538461538464 375.38461538461536 262.5490065376806 375.38461538461536 260.0 C 375.38461538461536 257.4509934623194 377.4509934623194 255.3846153846154 380.0 255.3846153846154 C 382.54900653768055 255.3846153846154 384.6153846153846 257.4509934623194 384.6153846153846 260.0 z "
                fill="black" stroke-linecap="square"
                stroke-linejoin="butt" stroke-width="0.625"
                stroke-miterlimit="10.0" stroke-dashoffset="0.0" stroke="black"/>
        </g>
        <g latexdraw:type="dot" id="id11973527" latexdraw:size="10.0"
            latexdraw:dotShape="*" latexdraw:position="640.0 160.0">
            <path
                d="M 644.6153846153846 160.0 C 644.6153846153846 162.54900653768058 642.5490065376806 164.6153846153846 640.0 164.6153846153846 C 637.4509934623194 164.6153846153846 635.3846153846154 162.54900653768058 635.3846153846154 160.0 C 635.3846153846154 157.45099346231942 637.4509934623194 155.3846153846154 640.0 155.3846153846154 C 642.5490065376806 155.3846153846154 644.6153846153846 157.45099346231942 644.6153846153846 160.0 z "
                fill="black" stroke-linecap="square"
                stroke-linejoin="butt" stroke-width="0.625"
                stroke-miterlimit="10.0" stroke-dashoffset="0.0" stroke="black"/>
        </g>
        <g latexdraw:type="dot" id="id2762234" latexdraw:size="10.0"
            latexdraw:dotShape="*" latexdraw:position="680.0 120.0">
            <path
                d="M 684.6153846153846 120.0 C 684.6153846153846 122.54900653768058 682.5490065376806 124.61538461538461 680.0 124.61538461538461 C 677.4509934623194 124.61538461538461 675.3846153846154 122.54900653768058 675.3846153846154 120.0 C 675.3846153846154 117.45099346231942 677.4509934623194 115.38461538461539 680.0 115.38461538461539 C 682.5490065376806 115.38461538461539 684.6153846153846 117.45099346231942 684.6153846153846 120.0 z "
                fill="black" stroke-linecap="square"
                stroke-linejoin="butt" stroke-width="0.625"
                stroke-miterlimit="10.0" stroke-dashoffset="0.0" stroke="black"/>
        </g>
        <g latexdraw:type="dot" id="id12422558" latexdraw:size="10.0"
            latexdraw:dotShape="*" latexdraw:position="740.0 120.0">
            <path
                d="M 744.6153846153846 120.0 C 744.6153846153846 122.54900653768058 742.5490065376806 124.61538461538461 740.0 124.61538461538461 C 737.4509934623194 124.61538461538461 735.3846153846154 122.54900653768058 735.3846153846154 120.0 C 735.3846153846154 117.45099346231942 737.4509934623194 115.38461538461539 740.0 115.38461538461539 C 742.5490065376806 115.38461538461539 744.6153846153846 117.45099346231942 744.6153846153846 120.0 z "
                fill="black" stroke-linecap="square"
                stroke-linejoin="butt" stroke-width="0.625"
                stroke-miterlimit="10.0" stroke-dashoffset="0.0" stroke="black"/>
        </g>
        <g latexdraw:type="dot" id="id21225097" latexdraw:size="10.0"
            latexdraw:dotShape="*" latexdraw:position="780.0 160.0">
            <path
                d="M 784.6153846153846 160.0 C 784.6153846153846 162.54900653768058 782.5490065376806 164.6153846153846 780.0 164.6153846153846 C 777.4509934623194 164.6153846153846 775.3846153846154 162.54900653768058 775.3846153846154 160.0 C 775.3846153846154 157.45099346231942 777.4509934623194 155.3846153846154 780.0 155.3846153846154 C 782.5490065376806 155.3846153846154 784.6153846153846 157.45099346231942 784.6153846153846 160.0 z "
                fill="black" stroke-linecap="square"
                stroke-linejoin="butt" stroke-width="0.625"
                stroke-miterlimit="10.0" stroke-dashoffset="0.0" stroke="black"/>
        </g>
        <g latexdraw:type="dot" id="id25426385" latexdraw:size="10.0"
            latexdraw:dotShape="*" latexdraw:position="780.0 220.0">
            <path
                d="M 784.6153846153846 220.0 C 784.6153846153846 222.54900653768058 782.5490065376806 224.6153846153846 780.0 224.6153846153846 C 777.4509934623194 224.6153846153846 775.3846153846154 222.54900653768058 775.3846153846154 220.0 C 775.3846153846154 217.45099346231942 777.4509934623194 215.3846153846154 780.0 215.3846153846154 C 782.5490065376806 215.3846153846154 784.6153846153846 217.45099346231942 784.6153846153846 220.0 z "
                fill="black" stroke-linecap="square"
                stroke-linejoin="butt" stroke-width="0.625"
                stroke-miterlimit="10.0" stroke-dashoffset="0.0" stroke="black"/>
        </g>
        <g latexdraw:type="dot" id="id27384535" latexdraw:size="10.0"
            latexdraw:dotShape="*" latexdraw:position="740.0 260.0">
            <path
                d="M 744.6153846153846 260.0 C 744.6153846153846 262.5490065376806 742.5490065376806 264.61538461538464 740.0 264.61538461538464 C 737.4509934623194 264.61538461538464 735.3846153846154 262.5490065376806 735.3846153846154 260.0 C 735.3846153846154 257.4509934623194 737.4509934623194 255.3846153846154 740.0 255.3846153846154 C 742.5490065376806 255.3846153846154 744.6153846153846 257.4509934623194 744.6153846153846 260.0 z "
                fill="black" stroke-linecap="square"
                stroke-linejoin="butt" stroke-width="0.625"
                stroke-miterlimit="10.0" stroke-dashoffset="0.0" stroke="black"/>
        </g>
        <g latexdraw:type="dot" id="id7280385" latexdraw:size="10.0"
            latexdraw:dotShape="*" latexdraw:position="680.0 260.0">
            <path
                d="M 684.6153846153846 260.0 C 684.6153846153846 262.5490065376806 682.5490065376806 264.61538461538464 680.0 264.61538461538464 C 677.4509934623194 264.61538461538464 675.3846153846154 262.5490065376806 675.3846153846154 260.0 C 675.3846153846154 257.4509934623194 677.4509934623194 255.3846153846154 680.0 255.3846153846154 C 682.5490065376806 255.3846153846154 684.6153846153846 257.4509934623194 684.6153846153846 260.0 z "
                fill="black" stroke-linecap="square"
                stroke-linejoin="butt" stroke-width="0.625"
                stroke-miterlimit="10.0" stroke-dashoffset="0.0" stroke="black"/>
        </g>
        <g latexdraw:type="dot" id="id24524596" latexdraw:size="10.0"
            latexdraw:dotShape="*" latexdraw:position="640.0 220.0">
            <path
                d="M 644.6153846153846 220.0 C 644.6153846153846 222.54900653768058 642.5490065376806 224.6153846153846 640.0 224.6153846153846 C 637.4509934623194 224.6153846153846 635.3846153846154 222.54900653768058 635.3846153846154 220.0 C 635.3846153846154 217.45099346231942 637.4509934623194 215.3846153846154 640.0 215.3846153846154 C 642.5490065376806 215.3846153846154 644.6153846153846 217.45099346231942 644.6153846153846 220.0 z "
                fill="black" stroke-linecap="square"
                stroke-linejoin="butt" stroke-width="0.625"
                stroke-miterlimit="10.0" stroke-dashoffset="0.0" stroke="black"/>
        </g>
        <g latexdraw:type="dot" id="id1537721" latexdraw:size="10.0"
            latexdraw:dotShape="*" latexdraw:position="481.0 192.0">
            <path
                d="M 485.6153846153846 192.0 C 485.6153846153846 194.54900653768058 483.54900653768055 196.6153846153846 481.0 196.6153846153846 C 478.4509934623194 196.6153846153846 476.38461538461536 194.54900653768058 476.38461538461536 192.0 C 476.38461538461536 189.45099346231942 478.4509934623194 187.3846153846154 481.0 187.3846153846154 C 483.54900653768055 187.3846153846154 485.6153846153846 189.45099346231942 485.6153846153846 192.0 z "
                fill="black" stroke-linecap="square"
                stroke-linejoin="butt" stroke-width="0.625"
                stroke-miterlimit="10.0" stroke-dashoffset="0.0" stroke="black"/>
        </g>
        <g latexdraw:type="dot" id="id1948725" latexdraw:size="10.0"
            latexdraw:dotShape="*" latexdraw:position="243.0 192.0">
            <path
                d="M 247.6153846153846 192.0 C 247.6153846153846 194.54900653768058 245.54900653768058 196.6153846153846 243.0 196.6153846153846 C 240.45099346231942 196.6153846153846 238.3846153846154 194.54900653768058 238.3846153846154 192.0 C 238.3846153846154 189.45099346231942 240.45099346231942 187.3846153846154 243.0 187.3846153846154 C 245.54900653768058 187.3846153846154 247.6153846153846 189.45099346231942 247.6153846153846 192.0 z "
                fill="black" stroke-linecap="square"
                stroke-linejoin="butt" stroke-width="0.625"
                stroke-miterlimit="10.0" stroke-dashoffset="0.0" stroke="black"/>
        </g>
        <g latexdraw:type="text" id="id21407398" fill="black" latexdraw:position="bl">
            <text x="201.0" y="196.0">$G$</text>
        </g>
        <g latexdraw:type="text" id="id11304412" fill="black" latexdraw:position="bl">
            <text x="800.0" y="197.0">$G'$</text>
        </g>
    </g>
    <defs/>
    <metadata>
        <latexdraw:metadata>
            <latexdraw:latexIncludes>\usepackage{amssymb}</latexdraw:latexIncludes>
            <latexdraw:displayXScale>true</latexdraw:displayXScale>
            <latexdraw:displayYScale>true</latexdraw:displayYScale>
            <latexdraw:unit>CM</latexdraw:unit>
            <latexdraw:zoom>1.0</latexdraw:zoom>
            <latexdraw:magneticGridStyle>CUSTOMISED</latexdraw:magneticGridStyle>
            <latexdraw:gridGap>20</latexdraw:gridGap>
            <latexdraw:magneticGrid>false</latexdraw:magneticGrid>
            <latexdraw:version>3.3.8</latexdraw:version>
            <latexdraw:size>
                <latexdraw:width>1034</latexdraw:width>
                <latexdraw:height>827</latexdraw:height>
            </latexdraw:size>
            <latexdraw:position>
                <latexdraw:x>263.0</latexdraw:x>
                <latexdraw:y>135.0</latexdraw:y>
            </latexdraw:position>
        </latexdraw:metadata>
    </metadata>
</svg>
