<?xml version="1.1" encoding="windows-1252"?>
<svg xmlns="http://www.w3.org/2000/svg"
    xmlns:latexdraw="http://latexdraw.sourceforge.net/namespaces/latexdraw"
    version="1.1" baseProfile="full">
    <g>
        <g latexdraw:type="joinedLines" id="id28196657">
            <polyline
                points="180.0,120.0 280.0,120.0 280.0,220.0 180.0,220.0 180.0,120.0 "
                stroke-width="2.0" stroke="black" fill="none" latexdraw:rotationAngle="0.0"/>
        </g>
        <g latexdraw:type="joinedLines" id="id1115148">
            <polyline
                points="280.0,120.0 440.0,120.0 360.0,80.0 280.0,120.0 360.0,160.0 440.0,120.0 560.0,120.0 560.0,40.0 440.0,40.0 440.0,200.0 560.0,200.0 560.0,120.0 660.0,120.0 "
                stroke-width="2.0" stroke="black" fill="none" latexdraw:rotationAngle="0.0"/>
        </g>
        <g latexdraw:type="dot" id="id24082615" latexdraw:size="10.0"
            latexdraw:dotShape="*" latexdraw:position="180.0 120.0">
            <path
                d="M 184.6153846153846 120.0 C 184.6153846153846 122.54900653768058 182.54900653768058 124.61538461538461 180.0 124.61538461538461 C 177.45099346231942 124.61538461538461 175.3846153846154 122.54900653768058 175.3846153846154 120.0 C 175.3846153846154 117.45099346231942 177.45099346231942 115.38461538461539 180.0 115.38461538461539 C 182.54900653768058 115.38461538461539 184.6153846153846 117.45099346231942 184.6153846153846 120.0 z "
                fill="black" stroke-linecap="square"
                stroke-linejoin="butt" stroke-width="0.625"
                stroke-miterlimit="10.0" stroke-dashoffset="0.0" stroke="black"/>
        </g>
        <g latexdraw:type="dot" id="id27399074" latexdraw:size="10.0"
            latexdraw:dotShape="*" latexdraw:position="180.0 220.0">
            <path
                d="M 184.6153846153846 220.0 C 184.6153846153846 222.54900653768058 182.54900653768058 224.6153846153846 180.0 224.6153846153846 C 177.45099346231942 224.6153846153846 175.3846153846154 222.54900653768058 175.3846153846154 220.0 C 175.3846153846154 217.45099346231942 177.45099346231942 215.3846153846154 180.0 215.3846153846154 C 182.54900653768058 215.3846153846154 184.6153846153846 217.45099346231942 184.6153846153846 220.0 z "
                fill="black" stroke-linecap="square"
                stroke-linejoin="butt" stroke-width="0.625"
                stroke-miterlimit="10.0" stroke-dashoffset="0.0" stroke="black"/>
        </g>
        <g latexdraw:type="dot" id="id21947995" latexdraw:size="10.0"
            latexdraw:dotShape="*" latexdraw:position="280.0 220.0">
            <path
                d="M 284.6153846153846 220.0 C 284.6153846153846 222.54900653768058 282.54900653768055 224.6153846153846 280.0 224.6153846153846 C 277.4509934623194 224.6153846153846 275.38461538461536 222.54900653768058 275.38461538461536 220.0 C 275.38461538461536 217.45099346231942 277.4509934623194 215.3846153846154 280.0 215.3846153846154 C 282.54900653768055 215.3846153846154 284.6153846153846 217.45099346231942 284.6153846153846 220.0 z "
                fill="black" stroke-linecap="square"
                stroke-linejoin="butt" stroke-width="0.625"
                stroke-miterlimit="10.0" stroke-dashoffset="0.0" stroke="black"/>
        </g>
        <g latexdraw:type="dot" id="id4161198" latexdraw:size="10.0"
            latexdraw:dotShape="*" latexdraw:position="280.0 120.0">
            <path
                d="M 284.6153846153846 120.0 C 284.6153846153846 122.54900653768058 282.54900653768055 124.61538461538461 280.0 124.61538461538461 C 277.4509934623194 124.61538461538461 275.38461538461536 122.54900653768058 275.38461538461536 120.0 C 275.38461538461536 117.45099346231942 277.4509934623194 115.38461538461539 280.0 115.38461538461539 C 282.54900653768055 115.38461538461539 284.6153846153846 117.45099346231942 284.6153846153846 120.0 z "
                fill="black" stroke-linecap="square"
                stroke-linejoin="butt" stroke-width="0.625"
                stroke-miterlimit="10.0" stroke-dashoffset="0.0" stroke="black"/>
        </g>
        <g latexdraw:type="dot" id="id7522872" latexdraw:size="10.0"
            latexdraw:dotShape="*" latexdraw:position="360.0 80.0">
            <path
                d="M 364.6153846153846 80.0 C 364.6153846153846 82.54900653768058 362.54900653768055 84.61538461538461 360.0 84.61538461538461 C 357.4509934623194 84.61538461538461 355.38461538461536 82.54900653768058 355.38461538461536 80.0 C 355.38461538461536 77.45099346231942 357.4509934623194 75.38461538461539 360.0 75.38461538461539 C 362.54900653768055 75.38461538461539 364.6153846153846 77.45099346231942 364.6153846153846 80.0 z "
                fill="black" stroke-linecap="square"
                stroke-linejoin="butt" stroke-width="0.625"
                stroke-miterlimit="10.0" stroke-dashoffset="0.0" stroke="black"/>
        </g>
        <g latexdraw:type="dot" id="id11453232" latexdraw:size="10.0"
            latexdraw:dotShape="*" latexdraw:position="440.0 120.0">
            <path
                d="M 444.6153846153846 120.0 C 444.6153846153846 122.54900653768058 442.54900653768055 124.61538461538461 440.0 124.61538461538461 C 437.4509934623194 124.61538461538461 435.38461538461536 122.54900653768058 435.38461538461536 120.0 C 435.38461538461536 117.45099346231942 437.4509934623194 115.38461538461539 440.0 115.38461538461539 C 442.54900653768055 115.38461538461539 444.6153846153846 117.45099346231942 444.6153846153846 120.0 z "
                fill="black" stroke-linecap="square"
                stroke-linejoin="butt" stroke-width="0.625"
                stroke-miterlimit="10.0" stroke-dashoffset="0.0" stroke="black"/>
        </g>
        <g latexdraw:type="dot" id="id5339687" latexdraw:size="10.0"
            latexdraw:dotShape="*" latexdraw:position="360.0 160.0">
            <path
                d="M 364.6153846153846 160.0 C 364.6153846153846 162.54900653768058 362.54900653768055 164.6153846153846 360.0 164.6153846153846 C 357.4509934623194 164.6153846153846 355.38461538461536 162.54900653768058 355.38461538461536 160.0 C 355.38461538461536 157.45099346231942 357.4509934623194 155.3846153846154 360.0 155.3846153846154 C 362.54900653768055 155.3846153846154 364.6153846153846 157.45099346231942 364.6153846153846 160.0 z "
                fill="black" stroke-linecap="square"
                stroke-linejoin="butt" stroke-width="0.625"
                stroke-miterlimit="10.0" stroke-dashoffset="0.0" stroke="black"/>
        </g>
        <g latexdraw:type="dot" id="id30796031" latexdraw:size="10.0"
            latexdraw:dotShape="*" latexdraw:position="440.0 40.0">
            <path
                d="M 444.6153846153846 40.0 C 444.6153846153846 42.54900653768058 442.54900653768055 44.61538461538461 440.0 44.61538461538461 C 437.4509934623194 44.61538461538461 435.38461538461536 42.54900653768058 435.38461538461536 40.0 C 435.38461538461536 37.45099346231942 437.4509934623194 35.38461538461539 440.0 35.38461538461539 C 442.54900653768055 35.38461538461539 444.6153846153846 37.45099346231942 444.6153846153846 40.0 z "
                fill="black" stroke-linecap="square"
                stroke-linejoin="butt" stroke-width="0.625"
                stroke-miterlimit="10.0" stroke-dashoffset="0.0" stroke="black"/>
        </g>
        <g latexdraw:type="dot" id="id3998974" latexdraw:size="10.0"
            latexdraw:dotShape="*" latexdraw:position="560.0 40.0">
            <path
                d="M 564.6153846153846 40.0 C 564.6153846153846 42.54900653768058 562.5490065376806 44.61538461538461 560.0 44.61538461538461 C 557.4509934623194 44.61538461538461 555.3846153846154 42.54900653768058 555.3846153846154 40.0 C 555.3846153846154 37.45099346231942 557.4509934623194 35.38461538461539 560.0 35.38461538461539 C 562.5490065376806 35.38461538461539 564.6153846153846 37.45099346231942 564.6153846153846 40.0 z "
                fill="black" stroke-linecap="square"
                stroke-linejoin="butt" stroke-width="0.625"
                stroke-miterlimit="10.0" stroke-dashoffset="0.0" stroke="black"/>
        </g>
        <g latexdraw:type="dot" id="id9255993" latexdraw:size="10.0"
            latexdraw:dotShape="*" latexdraw:position="560.0 120.0">
            <path
                d="M 564.6153846153846 120.0 C 564.6153846153846 122.54900653768058 562.5490065376806 124.61538461538461 560.0 124.61538461538461 C 557.4509934623194 124.61538461538461 555.3846153846154 122.54900653768058 555.3846153846154 120.0 C 555.3846153846154 117.45099346231942 557.4509934623194 115.38461538461539 560.0 115.38461538461539 C 562.5490065376806 115.38461538461539 564.6153846153846 117.45099346231942 564.6153846153846 120.0 z "
                fill="black" stroke-linecap="square"
                stroke-linejoin="butt" stroke-width="0.625"
                stroke-miterlimit="10.0" stroke-dashoffset="0.0" stroke="black"/>
        </g>
        <g latexdraw:type="dot" id="id8426414" latexdraw:size="10.0"
            latexdraw:dotShape="*" latexdraw:position="440.0 200.0">
            <path
                d="M 444.6153846153846 200.0 C 444.6153846153846 202.54900653768058 442.54900653768055 204.6153846153846 440.0 204.6153846153846 C 437.4509934623194 204.6153846153846 435.38461538461536 202.54900653768058 435.38461538461536 200.0 C 435.38461538461536 197.45099346231942 437.4509934623194 195.3846153846154 440.0 195.3846153846154 C 442.54900653768055 195.3846153846154 444.6153846153846 197.45099346231942 444.6153846153846 200.0 z "
                fill="black" stroke-linecap="square"
                stroke-linejoin="butt" stroke-width="0.625"
                stroke-miterlimit="10.0" stroke-dashoffset="0.0" stroke="black"/>
        </g>
        <g latexdraw:type="dot" id="id1112392" latexdraw:size="10.0"
            latexdraw:dotShape="*" latexdraw:position="560.0 200.0">
            <path
                d="M 564.6153846153846 200.0 C 564.6153846153846 202.54900653768058 562.5490065376806 204.6153846153846 560.0 204.6153846153846 C 557.4509934623194 204.6153846153846 555.3846153846154 202.54900653768058 555.3846153846154 200.0 C 555.3846153846154 197.45099346231942 557.4509934623194 195.3846153846154 560.0 195.3846153846154 C 562.5490065376806 195.3846153846154 564.6153846153846 197.45099346231942 564.6153846153846 200.0 z "
                fill="black" stroke-linecap="square"
                stroke-linejoin="butt" stroke-width="0.625"
                stroke-miterlimit="10.0" stroke-dashoffset="0.0" stroke="black"/>
        </g>
        <g latexdraw:type="dot" id="id25522174" latexdraw:size="10.0"
            latexdraw:dotShape="*" latexdraw:position="660.0 120.0">
            <path
                d="M 664.6153846153846 120.0 C 664.6153846153846 122.54900653768058 662.5490065376806 124.61538461538461 660.0 124.61538461538461 C 657.4509934623194 124.61538461538461 655.3846153846154 122.54900653768058 655.3846153846154 120.0 C 655.3846153846154 117.45099346231942 657.4509934623194 115.38461538461539 660.0 115.38461538461539 C 662.5490065376806 115.38461538461539 664.6153846153846 117.45099346231942 664.6153846153846 120.0 z "
                fill="black" stroke-linecap="square"
                stroke-linejoin="butt" stroke-width="0.625"
                stroke-miterlimit="10.0" stroke-dashoffset="0.0" stroke="black"/>
        </g>
        <g latexdraw:type="text" id="id20977715" fill="black" latexdraw:position="bl">
            <text x="180.0" y="100.0">$a$</text>
        </g>
        <g latexdraw:type="text" id="id21553139" fill="black" latexdraw:position="bl">
            <text x="280.0" y="100.0">$b$</text>
        </g>
        <g latexdraw:type="text" id="id3248497" fill="black" latexdraw:position="bl">
            <text x="180.0" y="240.0">$c$</text>
        </g>
        <g latexdraw:type="text" id="id6313224" fill="black" latexdraw:position="bl">
            <text x="280.0" y="240.0">$d$</text>
        </g>
        <g latexdraw:type="text" id="id3571720" fill="black" latexdraw:position="bl">
            <text x="360.0" y="60.0">$e$</text>
        </g>
        <g latexdraw:type="dot" id="id27074742" latexdraw:size="10.0"
            latexdraw:dotShape="*" latexdraw:position="360.0 120.0">
            <path
                d="M 364.6153846153846 120.0 C 364.6153846153846 122.54900653768058 362.54900653768055 124.61538461538461 360.0 124.61538461538461 C 357.4509934623194 124.61538461538461 355.38461538461536 122.54900653768058 355.38461538461536 120.0 C 355.38461538461536 117.45099346231942 357.4509934623194 115.38461538461539 360.0 115.38461538461539 C 362.54900653768055 115.38461538461539 364.6153846153846 117.45099346231942 364.6153846153846 120.0 z "
                fill="black" stroke-linecap="square"
                stroke-linejoin="butt" stroke-width="0.625"
                stroke-miterlimit="10.0" stroke-dashoffset="0.0" stroke="black"/>
        </g>
        <g latexdraw:type="text" id="id8588816" fill="black" latexdraw:position="bl">
            <text x="365.0" y="115.0">$f$</text>
        </g>
        <g latexdraw:type="text" id="id21793631" fill="black" latexdraw:position="bl">
            <text x="360.0" y="180.0">$g$</text>
        </g>
        <g latexdraw:type="text" id="id12214780" fill="black" latexdraw:position="bl">
            <text x="440.0" y="20.0">$h$</text>
        </g>
        <g latexdraw:type="text" id="id20801874" fill="black" latexdraw:position="bl">
            <text x="454.0" y="114.0">$i$</text>
        </g>
        <g latexdraw:type="text" id="id23512269" fill="black" latexdraw:position="bl">
            <text x="440.0" y="220.0">$j$</text>
        </g>
        <g latexdraw:type="text" id="id20273372" fill="black" latexdraw:position="bl">
            <text x="560.0" y="20.0">$k$</text>
        </g>
        <g latexdraw:type="text" id="id30942476" fill="black" latexdraw:position="bl">
            <text x="580.0" y="140.0">$l$</text>
        </g>
        <g latexdraw:type="text" id="id18342335" fill="black" latexdraw:position="bl">
            <text x="560.0" y="220.0">$m$</text>
        </g>
        <g latexdraw:type="text" id="id1400382" fill="black" latexdraw:position="bl">
            <text x="680.0" y="140.0">$n$</text>
        </g>
    </g>
    <defs/>
    <metadata>
        <latexdraw:metadata>
            <latexdraw:latexIncludes>\usepackage{amssymb}&#xd;
</latexdraw:latexIncludes>
            <latexdraw:displayXScale>true</latexdraw:displayXScale>
            <latexdraw:displayYScale>true</latexdraw:displayYScale>
            <latexdraw:unit>CM</latexdraw:unit>
            <latexdraw:zoom>1.0</latexdraw:zoom>
            <latexdraw:magneticGridStyle>CUSTOMISED</latexdraw:magneticGridStyle>
            <latexdraw:gridGap>20</latexdraw:gridGap>
            <latexdraw:magneticGrid>false</latexdraw:magneticGrid>
            <latexdraw:version>3.3.8</latexdraw:version>
            <latexdraw:size>
                <latexdraw:width>1034</latexdraw:width>
                <latexdraw:height>827</latexdraw:height>
            </latexdraw:size>
            <latexdraw:position>
                <latexdraw:x>-9.0</latexdraw:x>
                <latexdraw:y>158.0</latexdraw:y>
            </latexdraw:position>
        </latexdraw:metadata>
    </metadata>
</svg>
