<?xml version="1.1" encoding="windows-1252"?>
<svg xmlns="http://www.w3.org/2000/svg"
    xmlns:latexdraw="http://latexdraw.sourceforge.net/namespaces/latexdraw"
    version="1.1" baseProfile="full">
    <g>
        <g latexdraw:type="joinedLines" id="id9986060">
            <polyline points="180.0,60.0 360.0,140.0 "
                stroke-width="2.0" stroke="black" latexdraw:rotationAngle="0.0"/>
        </g>
        <g latexdraw:type="joinedLines" id="id6447290">
            <polyline points="360.0,140.0 160.0,140.0 "
                stroke-width="2.0" stroke="black" latexdraw:rotationAngle="0.0"/>
        </g>
        <g latexdraw:type="joinedLines" id="id603978">
            <polyline points="160.0,140.0 340.0,60.0 "
                stroke-width="2.0" stroke="black" latexdraw:rotationAngle="0.0"/>
        </g>
        <g latexdraw:type="joinedLines" id="id14056593">
            <polyline
                points="160.0,140.0 320.0,240.0 220.0,240.0 200.0,240.0 360.0,140.0 "
                stroke-width="2.0" stroke="black" fill="none" latexdraw:rotationAngle="0.0"/>
        </g>
        <g latexdraw:type="dot" id="id11366265" latexdraw:size="10.0"
            latexdraw:dotShape="*" latexdraw:position="200.0 240.0">
            <path
                d="M 204.6153846153846 240.0 C 204.6153846153846 242.54900653768058 202.54900653768058 244.6153846153846 200.0 244.6153846153846 C 197.45099346231942 244.6153846153846 195.3846153846154 242.54900653768058 195.3846153846154 240.0 C 195.3846153846154 237.45099346231942 197.45099346231942 235.3846153846154 200.0 235.3846153846154 C 202.54900653768058 235.3846153846154 204.6153846153846 237.45099346231942 204.6153846153846 240.0 z "
                fill="black" stroke-linecap="square"
                stroke-linejoin="butt" stroke-width="0.625"
                stroke-miterlimit="10.0" stroke-dashoffset="0.0" stroke="black"/>
        </g>
        <g latexdraw:type="dot" id="id8411196" latexdraw:size="10.0"
            latexdraw:dotShape="*" latexdraw:position="320.0 240.0">
            <path
                d="M 324.6153846153846 240.0 C 324.6153846153846 242.54900653768058 322.54900653768055 244.6153846153846 320.0 244.6153846153846 C 317.4509934623194 244.6153846153846 315.38461538461536 242.54900653768058 315.38461538461536 240.0 C 315.38461538461536 237.45099346231942 317.4509934623194 235.3846153846154 320.0 235.3846153846154 C 322.54900653768055 235.3846153846154 324.6153846153846 237.45099346231942 324.6153846153846 240.0 z "
                fill="black" stroke-linecap="square"
                stroke-linejoin="butt" stroke-width="0.625"
                stroke-miterlimit="10.0" stroke-dashoffset="0.0" stroke="black"/>
        </g>
        <g latexdraw:type="dot" id="id25340763" latexdraw:size="10.0"
            latexdraw:dotShape="*" latexdraw:position="360.0 140.0">
            <path
                d="M 364.6153846153846 140.0 C 364.6153846153846 142.54900653768058 362.54900653768055 144.6153846153846 360.0 144.6153846153846 C 357.4509934623194 144.6153846153846 355.38461538461536 142.54900653768058 355.38461538461536 140.0 C 355.38461538461536 137.45099346231942 357.4509934623194 135.3846153846154 360.0 135.3846153846154 C 362.54900653768055 135.3846153846154 364.6153846153846 137.45099346231942 364.6153846153846 140.0 z "
                fill="black" stroke-linecap="square"
                stroke-linejoin="butt" stroke-width="0.625"
                stroke-miterlimit="10.0" stroke-dashoffset="0.0" stroke="black"/>
        </g>
        <g latexdraw:type="dot" id="id30792421" latexdraw:size="10.0"
            latexdraw:dotShape="*" latexdraw:position="160.0 140.0">
            <path
                d="M 164.6153846153846 140.0 C 164.6153846153846 142.54900653768058 162.54900653768058 144.6153846153846 160.0 144.6153846153846 C 157.45099346231942 144.6153846153846 155.3846153846154 142.54900653768058 155.3846153846154 140.0 C 155.3846153846154 137.45099346231942 157.45099346231942 135.3846153846154 160.0 135.3846153846154 C 162.54900653768058 135.3846153846154 164.6153846153846 137.45099346231942 164.6153846153846 140.0 z "
                fill="black" stroke-linecap="square"
                stroke-linejoin="butt" stroke-width="0.625"
                stroke-miterlimit="10.0" stroke-dashoffset="0.0" stroke="black"/>
        </g>
        <g latexdraw:type="dot" id="id12070002" latexdraw:size="10.0"
            latexdraw:dotShape="*" latexdraw:position="180.0 60.0">
            <path
                d="M 184.6153846153846 60.0 C 184.6153846153846 62.54900653768058 182.54900653768058 64.61538461538461 180.0 64.61538461538461 C 177.45099346231942 64.61538461538461 175.3846153846154 62.54900653768058 175.3846153846154 60.0 C 175.3846153846154 57.45099346231942 177.45099346231942 55.38461538461539 180.0 55.38461538461539 C 182.54900653768058 55.38461538461539 184.6153846153846 57.45099346231942 184.6153846153846 60.0 z "
                fill="black" stroke-linecap="square"
                stroke-linejoin="butt" stroke-width="0.625"
                stroke-miterlimit="10.0" stroke-dashoffset="0.0" stroke="black"/>
        </g>
        <g latexdraw:type="dot" id="id4857062" latexdraw:size="10.0"
            latexdraw:dotShape="*" latexdraw:position="340.0 60.0">
            <path
                d="M 344.6153846153846 60.0 C 344.6153846153846 62.54900653768058 342.54900653768055 64.61538461538461 340.0 64.61538461538461 C 337.4509934623194 64.61538461538461 335.38461538461536 62.54900653768058 335.38461538461536 60.0 C 335.38461538461536 57.45099346231942 337.4509934623194 55.38461538461539 340.0 55.38461538461539 C 342.54900653768055 55.38461538461539 344.6153846153846 57.45099346231942 344.6153846153846 60.0 z "
                fill="black" stroke-linecap="square"
                stroke-linejoin="butt" stroke-width="0.625"
                stroke-miterlimit="10.0" stroke-dashoffset="0.0" stroke="black"/>
        </g>
        <g latexdraw:type="joinedLines" id="id12245406">
            <polyline
                points="560.0,40.0 640.0,40.0 640.0,240.0 560.0,40.0 560.0,240.0 640.0,40.0 "
                stroke-width="2.0" stroke="black" fill="none" latexdraw:rotationAngle="0.0"/>
        </g>
        <g latexdraw:type="joinedLines" id="id18969200">
            <polyline points="640.0,40.0 720.0,140.0 640.0,240.0 "
                stroke-width="2.0" stroke="black" fill="none" latexdraw:rotationAngle="0.0"/>
        </g>
        <g latexdraw:type="joinedLines" id="id25108734">
            <polyline points="560.0,240.0 480.0,140.0 560.0,40.0 "
                stroke-width="2.0" stroke="black" fill="none" latexdraw:rotationAngle="0.0"/>
        </g>
        <g latexdraw:type="dot" id="id27299036" latexdraw:size="10.0"
            latexdraw:dotShape="*" latexdraw:position="560.0 40.0">
            <path
                d="M 564.6153846153846 40.0 C 564.6153846153846 42.54900653768058 562.5490065376806 44.61538461538461 560.0 44.61538461538461 C 557.4509934623194 44.61538461538461 555.3846153846154 42.54900653768058 555.3846153846154 40.0 C 555.3846153846154 37.45099346231942 557.4509934623194 35.38461538461539 560.0 35.38461538461539 C 562.5490065376806 35.38461538461539 564.6153846153846 37.45099346231942 564.6153846153846 40.0 z "
                fill="black" stroke-linecap="square"
                stroke-linejoin="butt" stroke-width="0.625"
                stroke-miterlimit="10.0" stroke-dashoffset="0.0" stroke="black"/>
        </g>
        <g latexdraw:type="dot" id="id19985568" latexdraw:size="10.0"
            latexdraw:dotShape="*" latexdraw:position="640.0 40.0">
            <path
                d="M 644.6153846153846 40.0 C 644.6153846153846 42.54900653768058 642.5490065376806 44.61538461538461 640.0 44.61538461538461 C 637.4509934623194 44.61538461538461 635.3846153846154 42.54900653768058 635.3846153846154 40.0 C 635.3846153846154 37.45099346231942 637.4509934623194 35.38461538461539 640.0 35.38461538461539 C 642.5490065376806 35.38461538461539 644.6153846153846 37.45099346231942 644.6153846153846 40.0 z "
                fill="black" stroke-linecap="square"
                stroke-linejoin="butt" stroke-width="0.625"
                stroke-miterlimit="10.0" stroke-dashoffset="0.0" stroke="black"/>
        </g>
        <g latexdraw:type="dot" id="id31313365" latexdraw:size="10.0"
            latexdraw:dotShape="*" latexdraw:position="560.0 240.0">
            <path
                d="M 564.6153846153846 240.0 C 564.6153846153846 242.54900653768058 562.5490065376806 244.6153846153846 560.0 244.6153846153846 C 557.4509934623194 244.6153846153846 555.3846153846154 242.54900653768058 555.3846153846154 240.0 C 555.3846153846154 237.45099346231942 557.4509934623194 235.3846153846154 560.0 235.3846153846154 C 562.5490065376806 235.3846153846154 564.6153846153846 237.45099346231942 564.6153846153846 240.0 z "
                fill="black" stroke-linecap="square"
                stroke-linejoin="butt" stroke-width="0.625"
                stroke-miterlimit="10.0" stroke-dashoffset="0.0" stroke="black"/>
        </g>
        <g latexdraw:type="dot" id="id26042039" latexdraw:size="10.0"
            latexdraw:dotShape="*" latexdraw:position="640.0 240.0">
            <path
                d="M 644.6153846153846 240.0 C 644.6153846153846 242.54900653768058 642.5490065376806 244.6153846153846 640.0 244.6153846153846 C 637.4509934623194 244.6153846153846 635.3846153846154 242.54900653768058 635.3846153846154 240.0 C 635.3846153846154 237.45099346231942 637.4509934623194 235.3846153846154 640.0 235.3846153846154 C 642.5490065376806 235.3846153846154 644.6153846153846 237.45099346231942 644.6153846153846 240.0 z "
                fill="black" stroke-linecap="square"
                stroke-linejoin="butt" stroke-width="0.625"
                stroke-miterlimit="10.0" stroke-dashoffset="0.0" stroke="black"/>
        </g>
        <g latexdraw:type="dot" id="id25476991" latexdraw:size="10.0"
            latexdraw:dotShape="*" latexdraw:position="480.0 140.0">
            <path
                d="M 484.6153846153846 140.0 C 484.6153846153846 142.54900653768058 482.54900653768055 144.6153846153846 480.0 144.6153846153846 C 477.4509934623194 144.6153846153846 475.38461538461536 142.54900653768058 475.38461538461536 140.0 C 475.38461538461536 137.45099346231942 477.4509934623194 135.3846153846154 480.0 135.3846153846154 C 482.54900653768055 135.3846153846154 484.6153846153846 137.45099346231942 484.6153846153846 140.0 z "
                fill="black" stroke-linecap="square"
                stroke-linejoin="butt" stroke-width="0.625"
                stroke-miterlimit="10.0" stroke-dashoffset="0.0" stroke="black"/>
        </g>
        <g latexdraw:type="dot" id="id4319379" latexdraw:size="10.0"
            latexdraw:dotShape="*" latexdraw:position="720.0 140.0">
            <path
                d="M 724.6153846153846 140.0 C 724.6153846153846 142.54900653768058 722.5490065376806 144.6153846153846 720.0 144.6153846153846 C 717.4509934623194 144.6153846153846 715.3846153846154 142.54900653768058 715.3846153846154 140.0 C 715.3846153846154 137.45099346231942 717.4509934623194 135.3846153846154 720.0 135.3846153846154 C 722.5490065376806 135.3846153846154 724.6153846153846 137.45099346231942 724.6153846153846 140.0 z "
                fill="black" stroke-linecap="square"
                stroke-linejoin="butt" stroke-width="0.625"
                stroke-miterlimit="10.0" stroke-dashoffset="0.0" stroke="black"/>
        </g>
        <g latexdraw:type="text" id="id3442001" fill="black" latexdraw:position="bl">
            <text x="120.0" y="140.0">$G$</text>
        </g>
        <g latexdraw:type="text" id="id8674269" fill="black" latexdraw:position="bl">
            <text x="760.0" y="140.0">$\overline{G}$</text>
        </g>
    </g>
    <defs/>
    <metadata>
        <latexdraw:metadata>
            <latexdraw:latexIncludes>\usepackage{amssymb}</latexdraw:latexIncludes>
            <latexdraw:displayXScale>true</latexdraw:displayXScale>
            <latexdraw:displayYScale>true</latexdraw:displayYScale>
            <latexdraw:unit>CM</latexdraw:unit>
            <latexdraw:zoom>1.0</latexdraw:zoom>
            <latexdraw:magneticGridStyle>CUSTOMISED</latexdraw:magneticGridStyle>
            <latexdraw:gridGap>20</latexdraw:gridGap>
            <latexdraw:magneticGrid>true</latexdraw:magneticGrid>
            <latexdraw:version>3.3.8</latexdraw:version>
            <latexdraw:size>
                <latexdraw:width>1034</latexdraw:width>
                <latexdraw:height>827</latexdraw:height>
            </latexdraw:size>
            <latexdraw:position>
                <latexdraw:x>263.0</latexdraw:x>
                <latexdraw:y>135.0</latexdraw:y>
            </latexdraw:position>
        </latexdraw:metadata>
    </metadata>
</svg>
