<?xml version="1.1" encoding="windows-1252"?>
<svg xmlns="http://www.w3.org/2000/svg"
    xmlns:latexdraw="http://latexdraw.sourceforge.net/namespaces/latexdraw"
    version="1.1" baseProfile="full">
    <g>
        <g latexdraw:type="joinedLines" id="id718686">
            <polyline points="180.0,80.0 260.0,160.0 180.0,220.0 "
                stroke-width="2.0" stroke="black" fill="none" latexdraw:rotationAngle="0.0"/>
        </g>
        <g latexdraw:type="joinedLines" id="id15362558">
            <polyline points="260.0,160.0 360.0,160.0 360.0,160.0 "
                stroke-width="2.0" stroke="black" fill="none" latexdraw:rotationAngle="0.0"/>
        </g>
        <g latexdraw:type="joinedLines" id="id33510506">
            <polyline
                points="260.0,160.0 260.0,240.0 320.0,300.0 280.0,360.0 280.0,360.0 "
                stroke-width="2.0" stroke="black" fill="none" latexdraw:rotationAngle="0.0"/>
        </g>
        <g latexdraw:type="joinedLines" id="id19285131">
            <polyline points="320.0,300.0 400.0,300.0 360.0,360.0 "
                stroke-width="2.0" stroke="black" fill="none" latexdraw:rotationAngle="0.0"/>
        </g>
        <g latexdraw:type="joinedLines" id="id7010239">
            <polyline points="400.0,300.0 460.0,360.0 480.0,440.0 "
                stroke-width="2.0" stroke="black" fill="none" latexdraw:rotationAngle="0.0"/>
        </g>
        <g latexdraw:type="dot" id="id2744044" latexdraw:size="10.0"
            latexdraw:dotShape="*" latexdraw:position="180.0 80.0">
            <path
                d="M 184.6153846153846 80.0 C 184.6153846153846 82.54900653768058 182.54900653768058 84.61538461538461 180.0 84.61538461538461 C 177.45099346231942 84.61538461538461 175.3846153846154 82.54900653768058 175.3846153846154 80.0 C 175.3846153846154 77.45099346231942 177.45099346231942 75.38461538461539 180.0 75.38461538461539 C 182.54900653768058 75.38461538461539 184.6153846153846 77.45099346231942 184.6153846153846 80.0 z "
                fill="black" stroke-linecap="square"
                stroke-linejoin="butt" stroke-width="0.625"
                stroke-miterlimit="10.0" stroke-dashoffset="0.0" stroke="black"/>
        </g>
        <g latexdraw:type="dot" id="id30730466" latexdraw:size="10.0"
            latexdraw:dotShape="*" latexdraw:position="260.0 160.0">
            <path
                d="M 264.61538461538464 160.0 C 264.61538461538464 162.54900653768058 262.5490065376806 164.6153846153846 260.0 164.6153846153846 C 257.4509934623194 164.6153846153846 255.3846153846154 162.54900653768058 255.3846153846154 160.0 C 255.3846153846154 157.45099346231942 257.4509934623194 155.3846153846154 260.0 155.3846153846154 C 262.5490065376806 155.3846153846154 264.61538461538464 157.45099346231942 264.61538461538464 160.0 z "
                fill="black" stroke-linecap="square"
                stroke-linejoin="butt" stroke-width="0.625"
                stroke-miterlimit="10.0" stroke-dashoffset="0.0" stroke="black"/>
        </g>
        <g latexdraw:type="dot" id="id3801469" latexdraw:size="10.0"
            latexdraw:dotShape="*" latexdraw:position="180.0 220.0">
            <path
                d="M 184.6153846153846 220.0 C 184.6153846153846 222.54900653768058 182.54900653768058 224.6153846153846 180.0 224.6153846153846 C 177.45099346231942 224.6153846153846 175.3846153846154 222.54900653768058 175.3846153846154 220.0 C 175.3846153846154 217.45099346231942 177.45099346231942 215.3846153846154 180.0 215.3846153846154 C 182.54900653768058 215.3846153846154 184.6153846153846 217.45099346231942 184.6153846153846 220.0 z "
                fill="black" stroke-linecap="square"
                stroke-linejoin="butt" stroke-width="0.625"
                stroke-miterlimit="10.0" stroke-dashoffset="0.0" stroke="black"/>
        </g>
        <g latexdraw:type="dot" id="id29879812" latexdraw:size="10.0"
            latexdraw:dotShape="*" latexdraw:position="360.0 160.0">
            <path
                d="M 364.6153846153846 160.0 C 364.6153846153846 162.54900653768058 362.54900653768055 164.6153846153846 360.0 164.6153846153846 C 357.4509934623194 164.6153846153846 355.38461538461536 162.54900653768058 355.38461538461536 160.0 C 355.38461538461536 157.45099346231942 357.4509934623194 155.3846153846154 360.0 155.3846153846154 C 362.54900653768055 155.3846153846154 364.6153846153846 157.45099346231942 364.6153846153846 160.0 z "
                fill="black" stroke-linecap="square"
                stroke-linejoin="butt" stroke-width="0.625"
                stroke-miterlimit="10.0" stroke-dashoffset="0.0" stroke="black"/>
        </g>
        <g latexdraw:type="dot" id="id17502275" latexdraw:size="10.0"
            latexdraw:dotShape="*" latexdraw:position="260.0 240.0">
            <path
                d="M 264.61538461538464 240.0 C 264.61538461538464 242.54900653768058 262.5490065376806 244.6153846153846 260.0 244.6153846153846 C 257.4509934623194 244.6153846153846 255.3846153846154 242.54900653768058 255.3846153846154 240.0 C 255.3846153846154 237.45099346231942 257.4509934623194 235.3846153846154 260.0 235.3846153846154 C 262.5490065376806 235.3846153846154 264.61538461538464 237.45099346231942 264.61538461538464 240.0 z "
                fill="black" stroke-linecap="square"
                stroke-linejoin="butt" stroke-width="0.625"
                stroke-miterlimit="10.0" stroke-dashoffset="0.0" stroke="black"/>
        </g>
        <g latexdraw:type="dot" id="id10010387" latexdraw:size="10.0"
            latexdraw:dotShape="*" latexdraw:position="320.0 300.0">
            <path
                d="M 324.6153846153846 300.0 C 324.6153846153846 302.54900653768055 322.54900653768055 304.6153846153846 320.0 304.6153846153846 C 317.4509934623194 304.6153846153846 315.38461538461536 302.54900653768055 315.38461538461536 300.0 C 315.38461538461536 297.4509934623194 317.4509934623194 295.38461538461536 320.0 295.38461538461536 C 322.54900653768055 295.38461538461536 324.6153846153846 297.4509934623194 324.6153846153846 300.0 z "
                fill="black" stroke-linecap="square"
                stroke-linejoin="butt" stroke-width="0.625"
                stroke-miterlimit="10.0" stroke-dashoffset="0.0" stroke="black"/>
        </g>
        <g latexdraw:type="dot" id="id12190006" latexdraw:size="10.0"
            latexdraw:dotShape="*" latexdraw:position="280.0 360.0">
            <path
                d="M 284.6153846153846 360.0 C 284.6153846153846 362.54900653768055 282.54900653768055 364.6153846153846 280.0 364.6153846153846 C 277.4509934623194 364.6153846153846 275.38461538461536 362.54900653768055 275.38461538461536 360.0 C 275.38461538461536 357.4509934623194 277.4509934623194 355.38461538461536 280.0 355.38461538461536 C 282.54900653768055 355.38461538461536 284.6153846153846 357.4509934623194 284.6153846153846 360.0 z "
                fill="black" stroke-linecap="square"
                stroke-linejoin="butt" stroke-width="0.625"
                stroke-miterlimit="10.0" stroke-dashoffset="0.0" stroke="black"/>
        </g>
        <g latexdraw:type="dot" id="id18751672" latexdraw:size="10.0"
            latexdraw:dotShape="*" latexdraw:position="400.0 300.0">
            <path
                d="M 404.6153846153846 300.0 C 404.6153846153846 302.54900653768055 402.54900653768055 304.6153846153846 400.0 304.6153846153846 C 397.4509934623194 304.6153846153846 395.38461538461536 302.54900653768055 395.38461538461536 300.0 C 395.38461538461536 297.4509934623194 397.4509934623194 295.38461538461536 400.0 295.38461538461536 C 402.54900653768055 295.38461538461536 404.6153846153846 297.4509934623194 404.6153846153846 300.0 z "
                fill="black" stroke-linecap="square"
                stroke-linejoin="butt" stroke-width="0.625"
                stroke-miterlimit="10.0" stroke-dashoffset="0.0" stroke="black"/>
        </g>
        <g latexdraw:type="dot" id="id12979939" latexdraw:size="10.0"
            latexdraw:dotShape="*" latexdraw:position="360.0 360.0">
            <path
                d="M 364.6153846153846 360.0 C 364.6153846153846 362.54900653768055 362.54900653768055 364.6153846153846 360.0 364.6153846153846 C 357.4509934623194 364.6153846153846 355.38461538461536 362.54900653768055 355.38461538461536 360.0 C 355.38461538461536 357.4509934623194 357.4509934623194 355.38461538461536 360.0 355.38461538461536 C 362.54900653768055 355.38461538461536 364.6153846153846 357.4509934623194 364.6153846153846 360.0 z "
                fill="black" stroke-linecap="square"
                stroke-linejoin="butt" stroke-width="0.625"
                stroke-miterlimit="10.0" stroke-dashoffset="0.0" stroke="black"/>
        </g>
        <g latexdraw:type="dot" id="id18606129" latexdraw:size="10.0"
            latexdraw:dotShape="*" latexdraw:position="460.0 360.0">
            <path
                d="M 464.6153846153846 360.0 C 464.6153846153846 362.54900653768055 462.54900653768055 364.6153846153846 460.0 364.6153846153846 C 457.4509934623194 364.6153846153846 455.38461538461536 362.54900653768055 455.38461538461536 360.0 C 455.38461538461536 357.4509934623194 457.4509934623194 355.38461538461536 460.0 355.38461538461536 C 462.54900653768055 355.38461538461536 464.6153846153846 357.4509934623194 464.6153846153846 360.0 z "
                fill="black" stroke-linecap="square"
                stroke-linejoin="butt" stroke-width="0.625"
                stroke-miterlimit="10.0" stroke-dashoffset="0.0" stroke="black"/>
        </g>
        <g latexdraw:type="dot" id="id27566101" latexdraw:size="10.0"
            latexdraw:dotShape="*" latexdraw:position="480.0 440.0">
            <path
                d="M 484.6153846153846 440.0 C 484.6153846153846 442.54900653768055 482.54900653768055 444.6153846153846 480.0 444.6153846153846 C 477.4509934623194 444.6153846153846 475.38461538461536 442.54900653768055 475.38461538461536 440.0 C 475.38461538461536 437.4509934623194 477.4509934623194 435.38461538461536 480.0 435.38461538461536 C 482.54900653768055 435.38461538461536 484.6153846153846 437.4509934623194 484.6153846153846 440.0 z "
                fill="black" stroke-linecap="square"
                stroke-linejoin="butt" stroke-width="0.625"
                stroke-miterlimit="10.0" stroke-dashoffset="0.0" stroke="black"/>
        </g>
        <g latexdraw:type="text" id="id28301755" fill="black" latexdraw:position="bl">
            <text x="160.0" y="80.0">$4$</text>
        </g>
        <g latexdraw:type="text" id="id33137566" fill="black" latexdraw:position="bl">
            <text x="160.0" y="220.0">$1$</text>
        </g>
        <g latexdraw:type="text" id="id27860250" fill="black" latexdraw:position="bl">
            <text x="260.0" y="140.0">$7$</text>
        </g>
        <g latexdraw:type="text" id="id5489990" fill="black" latexdraw:position="bl">
            <text x="380.0" y="180.0">$3$</text>
        </g>
        <g latexdraw:type="text" id="id16266433" fill="black" latexdraw:position="bl">
            <text x="280.0" y="240.0">$6$</text>
        </g>
        <g latexdraw:type="text" id="id9115111" fill="black" latexdraw:position="bl">
            <text x="320.0" y="280.0">$2$</text>
        </g>
        <g latexdraw:type="text" id="id33492706" fill="black" latexdraw:position="bl">
            <text x="420.0" y="300.0">$11$</text>
        </g>
        <g latexdraw:type="text" id="id6525296" fill="black" latexdraw:position="bl">
            <text x="280.0" y="380.0">$9$</text>
        </g>
        <g latexdraw:type="text" id="id12686699" fill="black" latexdraw:position="bl">
            <text x="360.0" y="380.0">$5$</text>
        </g>
        <g latexdraw:type="text" id="id648301" fill="black" latexdraw:position="bl">
            <text x="480.0" y="360.0">$8$</text>
        </g>
        <g latexdraw:type="text" id="id21237476" fill="black" latexdraw:position="bl">
            <text x="500.0" y="440.0">$10$</text>
        </g>
        <g latexdraw:type="text" id="id7123123" fill="black" latexdraw:position="bl">
            <text x="200.0" y="80.0">Start</text>
        </g>
        <g latexdraw:type="text" id="id2834664" fill="black" latexdraw:position="bl">
            <text x="240.0" y="360.0">End</text>
        </g>
    </g>
    <defs/>
    <metadata>
        <latexdraw:metadata>
            <latexdraw:latexIncludes>\usepackage{amssymb}</latexdraw:latexIncludes>
            <latexdraw:displayXScale>true</latexdraw:displayXScale>
            <latexdraw:displayYScale>true</latexdraw:displayYScale>
            <latexdraw:unit>CM</latexdraw:unit>
            <latexdraw:zoom>1.0</latexdraw:zoom>
            <latexdraw:magneticGridStyle>CUSTOMISED</latexdraw:magneticGridStyle>
            <latexdraw:gridGap>20</latexdraw:gridGap>
            <latexdraw:magneticGrid>true</latexdraw:magneticGrid>
            <latexdraw:version>3.3.8</latexdraw:version>
            <latexdraw:size>
                <latexdraw:width>1034</latexdraw:width>
                <latexdraw:height>827</latexdraw:height>
            </latexdraw:size>
            <latexdraw:position>
                <latexdraw:x>-30.0</latexdraw:x>
                <latexdraw:y>125.0</latexdraw:y>
            </latexdraw:position>
        </latexdraw:metadata>
    </metadata>
</svg>
