<?xml version="1.1" encoding="windows-1252"?>
<svg xmlns="http://www.w3.org/2000/svg"
    xmlns:latexdraw="http://latexdraw.sourceforge.net/namespaces/latexdraw"
    version="1.1" baseProfile="full">
    <g>
        <g latexdraw:type="rectangle" id="id5231470">
            <rect x="181.0" y="81.0" width="138.0" height="118.0"
                latexdraw:borderPos="outer" stroke-width="2.0"
                stroke="black" fill="none"/>
        </g>
        <g latexdraw:type="joinedLines" id="id24300533">
            <polyline points="320.0,80.0 380.0,140.0 320.0,200.0 "
                stroke-width="2.0" stroke="black" fill="none" latexdraw:rotationAngle="0.0"/>
        </g>
        <g latexdraw:type="joinedLines" id="id11414581">
            <polyline points="180.0,200.0 120.0,140.0 180.0,80.0 "
                stroke-width="2.0" stroke="black" fill="none" latexdraw:rotationAngle="0.0"/>
        </g>
        <g latexdraw:type="joinedLines" id="id30560740">
            <polyline points="180.0,200.0 320.0,80.0 "
                stroke-width="2.0" stroke="black" latexdraw:rotationAngle="0.0"/>
        </g>
        <g latexdraw:type="joinedLines" id="id26675575">
            <polyline points="320.0,200.0 180.0,80.0 "
                stroke-width="2.0" stroke="black" latexdraw:rotationAngle="0.0"/>
        </g>
        <g latexdraw:type="dot" id="id28277475" latexdraw:size="10.0"
            latexdraw:dotShape="*" latexdraw:position="120.0 140.0">
            <path
                d="M 124.61538461538461 140.0 C 124.61538461538461 142.54900653768058 122.54900653768058 144.6153846153846 120.0 144.6153846153846 C 117.45099346231942 144.6153846153846 115.38461538461539 142.54900653768058 115.38461538461539 140.0 C 115.38461538461539 137.45099346231942 117.45099346231942 135.3846153846154 120.0 135.3846153846154 C 122.54900653768058 135.3846153846154 124.61538461538461 137.45099346231942 124.61538461538461 140.0 z "
                fill="black" stroke-linecap="square"
                stroke-linejoin="butt" stroke-width="0.625"
                stroke-miterlimit="10.0" stroke-dashoffset="0.0" stroke="black"/>
        </g>
        <g latexdraw:type="dot" id="id20829648" latexdraw:size="10.0"
            latexdraw:dotShape="*" latexdraw:position="180.0 80.0">
            <path
                d="M 184.6153846153846 80.0 C 184.6153846153846 82.54900653768058 182.54900653768058 84.61538461538461 180.0 84.61538461538461 C 177.45099346231942 84.61538461538461 175.3846153846154 82.54900653768058 175.3846153846154 80.0 C 175.3846153846154 77.45099346231942 177.45099346231942 75.38461538461539 180.0 75.38461538461539 C 182.54900653768058 75.38461538461539 184.6153846153846 77.45099346231942 184.6153846153846 80.0 z "
                fill="black" stroke-linecap="square"
                stroke-linejoin="butt" stroke-width="0.625"
                stroke-miterlimit="10.0" stroke-dashoffset="0.0" stroke="black"/>
        </g>
        <g latexdraw:type="dot" id="id28384900" latexdraw:size="10.0"
            latexdraw:dotShape="*" latexdraw:position="180.0 200.0">
            <path
                d="M 184.6153846153846 200.0 C 184.6153846153846 202.54900653768058 182.54900653768058 204.6153846153846 180.0 204.6153846153846 C 177.45099346231942 204.6153846153846 175.3846153846154 202.54900653768058 175.3846153846154 200.0 C 175.3846153846154 197.45099346231942 177.45099346231942 195.3846153846154 180.0 195.3846153846154 C 182.54900653768058 195.3846153846154 184.6153846153846 197.45099346231942 184.6153846153846 200.0 z "
                fill="black" stroke-linecap="square"
                stroke-linejoin="butt" stroke-width="0.625"
                stroke-miterlimit="10.0" stroke-dashoffset="0.0" stroke="black"/>
        </g>
        <g latexdraw:type="dot" id="id8930390" latexdraw:size="10.0"
            latexdraw:dotShape="*" latexdraw:position="250.0 141.0">
            <path
                d="M 254.6153846153846 141.0 C 254.6153846153846 143.54900653768058 252.54900653768058 145.6153846153846 250.0 145.6153846153846 C 247.45099346231942 145.6153846153846 245.3846153846154 143.54900653768058 245.3846153846154 141.0 C 245.3846153846154 138.45099346231942 247.45099346231942 136.3846153846154 250.0 136.3846153846154 C 252.54900653768058 136.3846153846154 254.6153846153846 138.45099346231942 254.6153846153846 141.0 z "
                fill="black" stroke-linecap="square"
                stroke-linejoin="butt" stroke-width="0.625"
                stroke-miterlimit="10.0" stroke-dashoffset="0.0" stroke="black"/>
        </g>
        <g latexdraw:type="dot" id="id21198153" latexdraw:size="10.0"
            latexdraw:dotShape="*" latexdraw:position="320.0 80.0">
            <path
                d="M 324.6153846153846 80.0 C 324.6153846153846 82.54900653768058 322.54900653768055 84.61538461538461 320.0 84.61538461538461 C 317.4509934623194 84.61538461538461 315.38461538461536 82.54900653768058 315.38461538461536 80.0 C 315.38461538461536 77.45099346231942 317.4509934623194 75.38461538461539 320.0 75.38461538461539 C 322.54900653768055 75.38461538461539 324.6153846153846 77.45099346231942 324.6153846153846 80.0 z "
                fill="black" stroke-linecap="square"
                stroke-linejoin="butt" stroke-width="0.625"
                stroke-miterlimit="10.0" stroke-dashoffset="0.0" stroke="black"/>
        </g>
        <g latexdraw:type="dot" id="id26728680" latexdraw:size="10.0"
            latexdraw:dotShape="*" latexdraw:position="320.0 200.0">
            <path
                d="M 324.6153846153846 200.0 C 324.6153846153846 202.54900653768058 322.54900653768055 204.6153846153846 320.0 204.6153846153846 C 317.4509934623194 204.6153846153846 315.38461538461536 202.54900653768058 315.38461538461536 200.0 C 315.38461538461536 197.45099346231942 317.4509934623194 195.3846153846154 320.0 195.3846153846154 C 322.54900653768055 195.3846153846154 324.6153846153846 197.45099346231942 324.6153846153846 200.0 z "
                fill="black" stroke-linecap="square"
                stroke-linejoin="butt" stroke-width="0.625"
                stroke-miterlimit="10.0" stroke-dashoffset="0.0" stroke="black"/>
        </g>
        <g latexdraw:type="dot" id="id18508710" latexdraw:size="10.0"
            latexdraw:dotShape="*" latexdraw:position="380.0 140.0">
            <path
                d="M 384.6153846153846 140.0 C 384.6153846153846 142.54900653768058 382.54900653768055 144.6153846153846 380.0 144.6153846153846 C 377.4509934623194 144.6153846153846 375.38461538461536 142.54900653768058 375.38461538461536 140.0 C 375.38461538461536 137.45099346231942 377.4509934623194 135.3846153846154 380.0 135.3846153846154 C 382.54900653768055 135.3846153846154 384.6153846153846 137.45099346231942 384.6153846153846 140.0 z "
                fill="black" stroke-linecap="square"
                stroke-linejoin="butt" stroke-width="0.625"
                stroke-miterlimit="10.0" stroke-dashoffset="0.0" stroke="black"/>
        </g>
        <g latexdraw:type="joinedLines" id="id4999582">
            <polyline
                points="500.0,100.0 500.0,180.0 560.0,140.0 500.0,100.0 "
                stroke-width="2.0" stroke="black" fill="none" latexdraw:rotationAngle="0.0"/>
        </g>
        <g latexdraw:type="joinedLines" id="id28794010">
            <polyline points="560.0,140.0 620.0,140.0 "
                stroke-width="2.0" stroke="black" latexdraw:rotationAngle="0.0"/>
        </g>
        <g latexdraw:type="joinedLines" id="id33064104">
            <polyline
                points="720.0,100.0 820.0,100.0 820.0,180.0 720.0,180.0 720.0,100.0 820.0,180.0 "
                stroke-width="2.0" stroke="black" fill="none" latexdraw:rotationAngle="0.0"/>
        </g>
        <g latexdraw:type="dot" id="id23401729" latexdraw:size="10.0"
            latexdraw:dotShape="*" latexdraw:position="500.0 100.0">
            <path
                d="M 504.6153846153846 100.0 C 504.6153846153846 102.54900653768058 502.54900653768055 104.61538461538461 500.0 104.61538461538461 C 497.4509934623194 104.61538461538461 495.38461538461536 102.54900653768058 495.38461538461536 100.0 C 495.38461538461536 97.45099346231942 497.4509934623194 95.38461538461539 500.0 95.38461538461539 C 502.54900653768055 95.38461538461539 504.6153846153846 97.45099346231942 504.6153846153846 100.0 z "
                fill="black" stroke-linecap="square"
                stroke-linejoin="butt" stroke-width="0.625"
                stroke-miterlimit="10.0" stroke-dashoffset="0.0" stroke="black"/>
        </g>
        <g latexdraw:type="dot" id="id32055200" latexdraw:size="10.0"
            latexdraw:dotShape="*" latexdraw:position="500.0 180.0">
            <path
                d="M 504.6153846153846 180.0 C 504.6153846153846 182.54900653768058 502.54900653768055 184.6153846153846 500.0 184.6153846153846 C 497.4509934623194 184.6153846153846 495.38461538461536 182.54900653768058 495.38461538461536 180.0 C 495.38461538461536 177.45099346231942 497.4509934623194 175.3846153846154 500.0 175.3846153846154 C 502.54900653768055 175.3846153846154 504.6153846153846 177.45099346231942 504.6153846153846 180.0 z "
                fill="black" stroke-linecap="square"
                stroke-linejoin="butt" stroke-width="0.625"
                stroke-miterlimit="10.0" stroke-dashoffset="0.0" stroke="black"/>
        </g>
        <g latexdraw:type="dot" id="id18693578" latexdraw:size="10.0"
            latexdraw:dotShape="*" latexdraw:position="560.0 140.0">
            <path
                d="M 564.6153846153846 140.0 C 564.6153846153846 142.54900653768058 562.5490065376806 144.6153846153846 560.0 144.6153846153846 C 557.4509934623194 144.6153846153846 555.3846153846154 142.54900653768058 555.3846153846154 140.0 C 555.3846153846154 137.45099346231942 557.4509934623194 135.3846153846154 560.0 135.3846153846154 C 562.5490065376806 135.3846153846154 564.6153846153846 137.45099346231942 564.6153846153846 140.0 z "
                fill="black" stroke-linecap="square"
                stroke-linejoin="butt" stroke-width="0.625"
                stroke-miterlimit="10.0" stroke-dashoffset="0.0" stroke="black"/>
        </g>
        <g latexdraw:type="dot" id="id20304873" latexdraw:size="10.0"
            latexdraw:dotShape="*" latexdraw:position="620.0 140.0">
            <path
                d="M 624.6153846153846 140.0 C 624.6153846153846 142.54900653768058 622.5490065376806 144.6153846153846 620.0 144.6153846153846 C 617.4509934623194 144.6153846153846 615.3846153846154 142.54900653768058 615.3846153846154 140.0 C 615.3846153846154 137.45099346231942 617.4509934623194 135.3846153846154 620.0 135.3846153846154 C 622.5490065376806 135.3846153846154 624.6153846153846 137.45099346231942 624.6153846153846 140.0 z "
                fill="black" stroke-linecap="square"
                stroke-linejoin="butt" stroke-width="0.625"
                stroke-miterlimit="10.0" stroke-dashoffset="0.0" stroke="black"/>
        </g>
        <g latexdraw:type="dot" id="id19925768" latexdraw:size="10.0"
            latexdraw:dotShape="*" latexdraw:position="720.0 100.0">
            <path
                d="M 724.6153846153846 100.0 C 724.6153846153846 102.54900653768058 722.5490065376806 104.61538461538461 720.0 104.61538461538461 C 717.4509934623194 104.61538461538461 715.3846153846154 102.54900653768058 715.3846153846154 100.0 C 715.3846153846154 97.45099346231942 717.4509934623194 95.38461538461539 720.0 95.38461538461539 C 722.5490065376806 95.38461538461539 724.6153846153846 97.45099346231942 724.6153846153846 100.0 z "
                fill="black" stroke-linecap="square"
                stroke-linejoin="butt" stroke-width="0.625"
                stroke-miterlimit="10.0" stroke-dashoffset="0.0" stroke="black"/>
        </g>
        <g latexdraw:type="dot" id="id4004456" latexdraw:size="10.0"
            latexdraw:dotShape="*" latexdraw:position="820.0 100.0">
            <path
                d="M 824.6153846153846 100.0 C 824.6153846153846 102.54900653768058 822.5490065376806 104.61538461538461 820.0 104.61538461538461 C 817.4509934623194 104.61538461538461 815.3846153846154 102.54900653768058 815.3846153846154 100.0 C 815.3846153846154 97.45099346231942 817.4509934623194 95.38461538461539 820.0 95.38461538461539 C 822.5490065376806 95.38461538461539 824.6153846153846 97.45099346231942 824.6153846153846 100.0 z "
                fill="black" stroke-linecap="square"
                stroke-linejoin="butt" stroke-width="0.625"
                stroke-miterlimit="10.0" stroke-dashoffset="0.0" stroke="black"/>
        </g>
        <g latexdraw:type="dot" id="id18632582" latexdraw:size="10.0"
            latexdraw:dotShape="*" latexdraw:position="720.0 180.0">
            <path
                d="M 724.6153846153846 180.0 C 724.6153846153846 182.54900653768058 722.5490065376806 184.6153846153846 720.0 184.6153846153846 C 717.4509934623194 184.6153846153846 715.3846153846154 182.54900653768058 715.3846153846154 180.0 C 715.3846153846154 177.45099346231942 717.4509934623194 175.3846153846154 720.0 175.3846153846154 C 722.5490065376806 175.3846153846154 724.6153846153846 177.45099346231942 724.6153846153846 180.0 z "
                fill="black" stroke-linecap="square"
                stroke-linejoin="butt" stroke-width="0.625"
                stroke-miterlimit="10.0" stroke-dashoffset="0.0" stroke="black"/>
        </g>
        <g latexdraw:type="dot" id="id31441711" latexdraw:size="10.0"
            latexdraw:dotShape="*" latexdraw:position="820.0 180.0">
            <path
                d="M 824.6153846153846 180.0 C 824.6153846153846 182.54900653768058 822.5490065376806 184.6153846153846 820.0 184.6153846153846 C 817.4509934623194 184.6153846153846 815.3846153846154 182.54900653768058 815.3846153846154 180.0 C 815.3846153846154 177.45099346231942 817.4509934623194 175.3846153846154 820.0 175.3846153846154 C 822.5490065376806 175.3846153846154 824.6153846153846 177.45099346231942 824.6153846153846 180.0 z "
                fill="black" stroke-linecap="square"
                stroke-linejoin="butt" stroke-width="0.625"
                stroke-miterlimit="10.0" stroke-dashoffset="0.0" stroke="black"/>
        </g>
        <g latexdraw:type="text" id="id8965951" fill="black" latexdraw:position="bl">
            <text x="240.0" y="225.0">$G$</text>
        </g>
        <g latexdraw:type="text" id="id26190091" fill="black" latexdraw:position="bl">
            <text x="107.0" y="133.0">$a$</text>
        </g>
        <g latexdraw:type="text" id="id13113742" fill="black" latexdraw:position="bl">
            <text x="180.0" y="60.0">$b$</text>
        </g>
        <g latexdraw:type="text" id="id4567112" fill="black" latexdraw:position="bl">
            <text x="320.0" y="60.0">$c$</text>
        </g>
        <g latexdraw:type="text" id="id17734137" fill="black" latexdraw:position="bl">
            <text x="380.0" y="160.0">$d$</text>
        </g>
        <g latexdraw:type="text" id="id26300704" fill="black" latexdraw:position="bl">
            <text x="262.0" y="147.0">$g$</text>
        </g>
        <g latexdraw:type="text" id="id21699661" fill="black" latexdraw:position="bl">
            <text x="180.0" y="220.0">$f$</text>
        </g>
        <g latexdraw:type="text" id="id5233385" fill="black" latexdraw:position="bl">
            <text x="320.0" y="220.0">$e$</text>
        </g>
        <g latexdraw:type="text" id="id30394996" fill="black" latexdraw:position="bl">
            <text x="482.0" y="197.0">$g$</text>
        </g>
        <g latexdraw:type="text" id="id23013933" fill="black" latexdraw:position="bl">
            <text x="560.0" y="160.0">$c$</text>
        </g>
        <g latexdraw:type="text" id="id19283976" fill="black" latexdraw:position="bl">
            <text x="489.0" y="92.0">$b$</text>
        </g>
        <g latexdraw:type="text" id="id4587963" fill="black" latexdraw:position="bl">
            <text x="620.0" y="160.0">$d$</text>
        </g>
        <g latexdraw:type="text" id="id29531430" fill="black" latexdraw:position="bl">
            <text x="714.0" y="87.0">$g$</text>
        </g>
        <g latexdraw:type="text" id="id26744623" fill="black" latexdraw:position="bl">
            <text x="817.0" y="88.0">$c$</text>
        </g>
        <g latexdraw:type="text" id="id13898057" fill="black" latexdraw:position="bl">
            <text x="714.0" y="208.0">$f$</text>
        </g>
        <g latexdraw:type="text" id="id3842073" fill="black" latexdraw:position="bl">
            <text x="820.0" y="200.0">$e$</text>
        </g>
        <g latexdraw:type="text" id="id27080277" fill="black" latexdraw:position="bl">
            <text x="507.0" y="239.0">$\langle b,c,d,g \rangle$</text>
        </g>
        <g latexdraw:type="text" id="id25916856" fill="black" latexdraw:position="bl">
            <text x="507.0" y="266.0">$G[b,c,d,g]$</text>
        </g>
        <g latexdraw:type="text" id="id33387721" fill="black" latexdraw:position="bl">
            <text x="740.0" y="240.0">$\langle c,e,f,g \rangle$</text>
        </g>
        <g latexdraw:type="text" id="id20139703" fill="black" latexdraw:position="bl">
            <text x="740.0" y="266.0">$G[c,e,f,g]$</text>
        </g>
    </g>
    <defs/>
    <metadata>
        <latexdraw:metadata>
            <latexdraw:latexIncludes>\usepackage{amssymb}</latexdraw:latexIncludes>
            <latexdraw:displayXScale>true</latexdraw:displayXScale>
            <latexdraw:displayYScale>true</latexdraw:displayYScale>
            <latexdraw:unit>CM</latexdraw:unit>
            <latexdraw:zoom>1.0</latexdraw:zoom>
            <latexdraw:magneticGridStyle>CUSTOMISED</latexdraw:magneticGridStyle>
            <latexdraw:gridGap>20</latexdraw:gridGap>
            <latexdraw:magneticGrid>false</latexdraw:magneticGrid>
            <latexdraw:version>3.3.8</latexdraw:version>
            <latexdraw:size>
                <latexdraw:width>1034</latexdraw:width>
                <latexdraw:height>827</latexdraw:height>
            </latexdraw:size>
            <latexdraw:position>
                <latexdraw:x>11.0</latexdraw:x>
                <latexdraw:y>116.0</latexdraw:y>
            </latexdraw:position>
        </latexdraw:metadata>
    </metadata>
</svg>
