<?xml version="1.1" encoding="windows-1252"?>
<svg xmlns="http://www.w3.org/2000/svg"
    xmlns:latexdraw="http://latexdraw.sourceforge.net/namespaces/latexdraw"
    version="1.1" baseProfile="full">
    <g>
        <g latexdraw:type="joinedLines" id="id3800341">
            <polyline
                points="100.0,200.0 180.0,120.0 180.0,280.0 260.0,200.0 180.0,120.0 "
                stroke-width="2.0" stroke="black" fill="none" latexdraw:rotationAngle="0.0"/>
        </g>
        <g latexdraw:type="joinedLines" id="id3336960">
            <polyline
                points="180.0,280.0 260.0,360.0 180.0,440.0 100.0,360.0 180.0,280.0 "
                stroke-width="2.0" stroke="black" fill="none" latexdraw:rotationAngle="0.0"/>
        </g>
        <g latexdraw:type="dot" id="id31354199" latexdraw:size="10.0"
            latexdraw:dotShape="*" latexdraw:position="100.0 200.0">
            <path
                d="M 104.61538461538461 200.0 C 104.61538461538461 202.54900653768058 102.54900653768058 204.6153846153846 100.0 204.6153846153846 C 97.45099346231942 204.6153846153846 95.38461538461539 202.54900653768058 95.38461538461539 200.0 C 95.38461538461539 197.45099346231942 97.45099346231942 195.3846153846154 100.0 195.3846153846154 C 102.54900653768058 195.3846153846154 104.61538461538461 197.45099346231942 104.61538461538461 200.0 z "
                fill="black" stroke-linecap="square"
                stroke-linejoin="butt" stroke-width="0.625"
                stroke-miterlimit="10.0" stroke-dashoffset="0.0" stroke="black"/>
        </g>
        <g latexdraw:type="dot" id="id9396667" latexdraw:size="10.0"
            latexdraw:dotShape="*" latexdraw:position="180.0 120.0">
            <path
                d="M 184.6153846153846 120.0 C 184.6153846153846 122.54900653768058 182.54900653768058 124.61538461538461 180.0 124.61538461538461 C 177.45099346231942 124.61538461538461 175.3846153846154 122.54900653768058 175.3846153846154 120.0 C 175.3846153846154 117.45099346231942 177.45099346231942 115.38461538461539 180.0 115.38461538461539 C 182.54900653768058 115.38461538461539 184.6153846153846 117.45099346231942 184.6153846153846 120.0 z "
                fill="black" stroke-linecap="square"
                stroke-linejoin="butt" stroke-width="0.625"
                stroke-miterlimit="10.0" stroke-dashoffset="0.0" stroke="black"/>
        </g>
        <g latexdraw:type="dot" id="id19609123" latexdraw:size="10.0"
            latexdraw:dotShape="*" latexdraw:position="260.0 200.0">
            <path
                d="M 264.61538461538464 200.0 C 264.61538461538464 202.54900653768058 262.5490065376806 204.6153846153846 260.0 204.6153846153846 C 257.4509934623194 204.6153846153846 255.3846153846154 202.54900653768058 255.3846153846154 200.0 C 255.3846153846154 197.45099346231942 257.4509934623194 195.3846153846154 260.0 195.3846153846154 C 262.5490065376806 195.3846153846154 264.61538461538464 197.45099346231942 264.61538461538464 200.0 z "
                fill="black" stroke-linecap="square"
                stroke-linejoin="butt" stroke-width="0.625"
                stroke-miterlimit="10.0" stroke-dashoffset="0.0" stroke="black"/>
        </g>
        <g latexdraw:type="dot" id="id27660221" latexdraw:size="10.0"
            latexdraw:dotShape="*" latexdraw:position="180.0 280.0">
            <path
                d="M 184.6153846153846 280.0 C 184.6153846153846 282.54900653768055 182.54900653768058 284.6153846153846 180.0 284.6153846153846 C 177.45099346231942 284.6153846153846 175.3846153846154 282.54900653768055 175.3846153846154 280.0 C 175.3846153846154 277.4509934623194 177.45099346231942 275.38461538461536 180.0 275.38461538461536 C 182.54900653768058 275.38461538461536 184.6153846153846 277.4509934623194 184.6153846153846 280.0 z "
                fill="black" stroke-linecap="square"
                stroke-linejoin="butt" stroke-width="0.625"
                stroke-miterlimit="10.0" stroke-dashoffset="0.0" stroke="black"/>
        </g>
        <g latexdraw:type="dot" id="id1721072" latexdraw:size="10.0"
            latexdraw:dotShape="*" latexdraw:position="260.0 360.0">
            <path
                d="M 264.61538461538464 360.0 C 264.61538461538464 362.54900653768055 262.5490065376806 364.6153846153846 260.0 364.6153846153846 C 257.4509934623194 364.6153846153846 255.3846153846154 362.54900653768055 255.3846153846154 360.0 C 255.3846153846154 357.4509934623194 257.4509934623194 355.38461538461536 260.0 355.38461538461536 C 262.5490065376806 355.38461538461536 264.61538461538464 357.4509934623194 264.61538461538464 360.0 z "
                fill="black" stroke-linecap="square"
                stroke-linejoin="butt" stroke-width="0.625"
                stroke-miterlimit="10.0" stroke-dashoffset="0.0" stroke="black"/>
        </g>
        <g latexdraw:type="dot" id="id5722465" latexdraw:size="10.0"
            latexdraw:dotShape="*" latexdraw:position="180.0 440.0">
            <path
                d="M 184.6153846153846 440.0 C 184.6153846153846 442.54900653768055 182.54900653768058 444.6153846153846 180.0 444.6153846153846 C 177.45099346231942 444.6153846153846 175.3846153846154 442.54900653768055 175.3846153846154 440.0 C 175.3846153846154 437.4509934623194 177.45099346231942 435.38461538461536 180.0 435.38461538461536 C 182.54900653768058 435.38461538461536 184.6153846153846 437.4509934623194 184.6153846153846 440.0 z "
                fill="black" stroke-linecap="square"
                stroke-linejoin="butt" stroke-width="0.625"
                stroke-miterlimit="10.0" stroke-dashoffset="0.0" stroke="black"/>
        </g>
        <g latexdraw:type="dot" id="id28062660" latexdraw:size="10.0"
            latexdraw:dotShape="*" latexdraw:position="100.0 360.0">
            <path
                d="M 104.61538461538461 360.0 C 104.61538461538461 362.54900653768055 102.54900653768058 364.6153846153846 100.0 364.6153846153846 C 97.45099346231942 364.6153846153846 95.38461538461539 362.54900653768055 95.38461538461539 360.0 C 95.38461538461539 357.4509934623194 97.45099346231942 355.38461538461536 100.0 355.38461538461536 C 102.54900653768058 355.38461538461536 104.61538461538461 357.4509934623194 104.61538461538461 360.0 z "
                fill="black" stroke-linecap="square"
                stroke-linejoin="butt" stroke-width="0.625"
                stroke-miterlimit="10.0" stroke-dashoffset="0.0" stroke="black"/>
        </g>
        <g latexdraw:type="text" id="id30105725" fill="black" latexdraw:position="bl">
            <text x="80.0" y="200.0">$b$</text>
        </g>
        <g latexdraw:type="text" id="id6552551" fill="black" latexdraw:position="bl">
            <text x="280.0" y="200.0">$c$</text>
        </g>
        <g latexdraw:type="text" id="id25630348" fill="black" latexdraw:position="bl">
            <text x="180.0" y="100.0">$a$</text>
        </g>
        <g latexdraw:type="text" id="id21771242" fill="black" latexdraw:position="bl">
            <text x="200.0" y="280.0">$d$</text>
        </g>
        <g latexdraw:type="text" id="id30413301" fill="black" latexdraw:position="bl">
            <text x="280.0" y="360.0">$f$</text>
        </g>
        <g latexdraw:type="text" id="id30390257" fill="black" latexdraw:position="bl">
            <text x="200.0" y="460.0">$g$</text>
        </g>
        <g latexdraw:type="text" id="id5963678" fill="black" latexdraw:position="bl">
            <text x="60.0" y="360.0">$e$</text>
        </g>
        <g latexdraw:type="text" id="id10351558" fill="black" latexdraw:position="bl">
            <text x="80.0" y="280.0">$G$</text>
        </g>
        <g latexdraw:type="joinedLines" id="id21487372">
            <polyline points="400.0,200.0 480.0,120.0 560.0,200.0 "
                stroke-width="2.0" stroke="black" fill="none" latexdraw:rotationAngle="0.0"/>
        </g>
        <g latexdraw:type="joinedLines" id="id28252513">
            <polyline points="400.0,360.0 480.0,440.0 560.0,360.0 "
                stroke-width="2.0" stroke="black" fill="none" latexdraw:rotationAngle="0.0"/>
        </g>
        <g latexdraw:type="dot" id="id21553462" latexdraw:size="10.0"
            latexdraw:dotShape="*" latexdraw:position="400.0 360.0">
            <path
                d="M 404.6153846153846 360.0 C 404.6153846153846 362.54900653768055 402.54900653768055 364.6153846153846 400.0 364.6153846153846 C 397.4509934623194 364.6153846153846 395.38461538461536 362.54900653768055 395.38461538461536 360.0 C 395.38461538461536 357.4509934623194 397.4509934623194 355.38461538461536 400.0 355.38461538461536 C 402.54900653768055 355.38461538461536 404.6153846153846 357.4509934623194 404.6153846153846 360.0 z "
                fill="black" stroke-linecap="square"
                stroke-linejoin="butt" stroke-width="0.625"
                stroke-miterlimit="10.0" stroke-dashoffset="0.0" stroke="black"/>
        </g>
        <g latexdraw:type="dot" id="id4926927" latexdraw:size="10.0"
            latexdraw:dotShape="*" latexdraw:position="480.0 440.0">
            <path
                d="M 484.6153846153846 440.0 C 484.6153846153846 442.54900653768055 482.54900653768055 444.6153846153846 480.0 444.6153846153846 C 477.4509934623194 444.6153846153846 475.38461538461536 442.54900653768055 475.38461538461536 440.0 C 475.38461538461536 437.4509934623194 477.4509934623194 435.38461538461536 480.0 435.38461538461536 C 482.54900653768055 435.38461538461536 484.6153846153846 437.4509934623194 484.6153846153846 440.0 z "
                fill="black" stroke-linecap="square"
                stroke-linejoin="butt" stroke-width="0.625"
                stroke-miterlimit="10.0" stroke-dashoffset="0.0" stroke="black"/>
        </g>
        <g latexdraw:type="dot" id="id27105224" latexdraw:size="10.0"
            latexdraw:dotShape="*" latexdraw:position="560.0 360.0">
            <path
                d="M 564.6153846153846 360.0 C 564.6153846153846 362.54900653768055 562.5490065376806 364.6153846153846 560.0 364.6153846153846 C 557.4509934623194 364.6153846153846 555.3846153846154 362.54900653768055 555.3846153846154 360.0 C 555.3846153846154 357.4509934623194 557.4509934623194 355.38461538461536 560.0 355.38461538461536 C 562.5490065376806 355.38461538461536 564.6153846153846 357.4509934623194 564.6153846153846 360.0 z "
                fill="black" stroke-linecap="square"
                stroke-linejoin="butt" stroke-width="0.625"
                stroke-miterlimit="10.0" stroke-dashoffset="0.0" stroke="black"/>
        </g>
        <g latexdraw:type="dot" id="id10664329" latexdraw:size="10.0"
            latexdraw:dotShape="*" latexdraw:position="560.0 200.0">
            <path
                d="M 564.6153846153846 200.0 C 564.6153846153846 202.54900653768058 562.5490065376806 204.6153846153846 560.0 204.6153846153846 C 557.4509934623194 204.6153846153846 555.3846153846154 202.54900653768058 555.3846153846154 200.0 C 555.3846153846154 197.45099346231942 557.4509934623194 195.3846153846154 560.0 195.3846153846154 C 562.5490065376806 195.3846153846154 564.6153846153846 197.45099346231942 564.6153846153846 200.0 z "
                fill="black" stroke-linecap="square"
                stroke-linejoin="butt" stroke-width="0.625"
                stroke-miterlimit="10.0" stroke-dashoffset="0.0" stroke="black"/>
        </g>
        <g latexdraw:type="dot" id="id936723" latexdraw:size="10.0"
            latexdraw:dotShape="*" latexdraw:position="480.0 120.0">
            <path
                d="M 484.6153846153846 120.0 C 484.6153846153846 122.54900653768058 482.54900653768055 124.61538461538461 480.0 124.61538461538461 C 477.4509934623194 124.61538461538461 475.38461538461536 122.54900653768058 475.38461538461536 120.0 C 475.38461538461536 117.45099346231942 477.4509934623194 115.38461538461539 480.0 115.38461538461539 C 482.54900653768055 115.38461538461539 484.6153846153846 117.45099346231942 484.6153846153846 120.0 z "
                fill="black" stroke-linecap="square"
                stroke-linejoin="butt" stroke-width="0.625"
                stroke-miterlimit="10.0" stroke-dashoffset="0.0" stroke="black"/>
        </g>
        <g latexdraw:type="dot" id="id14163912" latexdraw:size="10.0"
            latexdraw:dotShape="*" latexdraw:position="400.0 200.0">
            <path
                d="M 404.6153846153846 200.0 C 404.6153846153846 202.54900653768058 402.54900653768055 204.6153846153846 400.0 204.6153846153846 C 397.4509934623194 204.6153846153846 395.38461538461536 202.54900653768058 395.38461538461536 200.0 C 395.38461538461536 197.45099346231942 397.4509934623194 195.3846153846154 400.0 195.3846153846154 C 402.54900653768055 195.3846153846154 404.6153846153846 197.45099346231942 404.6153846153846 200.0 z "
                fill="black" stroke-linecap="square"
                stroke-linejoin="butt" stroke-width="0.625"
                stroke-miterlimit="10.0" stroke-dashoffset="0.0" stroke="black"/>
        </g>
        <g latexdraw:type="text" id="id10330070" fill="black" latexdraw:position="bl">
            <text x="380.0" y="200.0">$b$</text>
        </g>
        <g latexdraw:type="text" id="id12456150" fill="black" latexdraw:position="bl">
            <text x="480.0" y="100.0">$a$</text>
        </g>
        <g latexdraw:type="text" id="id14330683" fill="black" latexdraw:position="bl">
            <text x="580.0" y="200.0">$c$</text>
        </g>
        <g latexdraw:type="text" id="id22628559" fill="black" latexdraw:position="bl">
            <text x="360.0" y="360.0">$e$</text>
        </g>
        <g latexdraw:type="text" id="id26779684" fill="black" latexdraw:position="bl">
            <text x="580.0" y="360.0">$f$</text>
        </g>
        <g latexdraw:type="text" id="id24923381" fill="black" latexdraw:position="bl">
            <text x="500.0" y="460.0">$g$</text>
        </g>
        <g latexdraw:type="text" id="id7223548" fill="black" latexdraw:position="bl">
            <text x="380.0" y="280.0">$G - \{d\}$</text>
        </g>
        <g latexdraw:type="joinedLines" id="id26746265">
            <polyline points="700.0,200.0 780.0,120.0 860.0,200.0 "
                stroke-width="2.0" stroke="black" fill="none" latexdraw:rotationAngle="0.0"/>
        </g>
        <g latexdraw:type="joinedLines" id="id31788221">
            <polyline points="780.0,120.0 780.0,280.0 "
                stroke-width="2.0" stroke="black" latexdraw:rotationAngle="0.0"/>
        </g>
        <g latexdraw:type="joinedLines" id="id16537386">
            <polyline
                points="780.0,280.0 860.0,360.0 780.0,440.0 700.0,360.0 780.0,280.0 "
                stroke-width="2.0" stroke="black" fill="none" latexdraw:rotationAngle="0.0"/>
        </g>
        <g latexdraw:type="dot" id="id9568658" latexdraw:size="10.0"
            latexdraw:dotShape="*" latexdraw:position="700.0 200.0">
            <path
                d="M 704.6153846153846 200.0 C 704.6153846153846 202.54900653768058 702.5490065376806 204.6153846153846 700.0 204.6153846153846 C 697.4509934623194 204.6153846153846 695.3846153846154 202.54900653768058 695.3846153846154 200.0 C 695.3846153846154 197.45099346231942 697.4509934623194 195.3846153846154 700.0 195.3846153846154 C 702.5490065376806 195.3846153846154 704.6153846153846 197.45099346231942 704.6153846153846 200.0 z "
                fill="black" stroke-linecap="square"
                stroke-linejoin="butt" stroke-width="0.625"
                stroke-miterlimit="10.0" stroke-dashoffset="0.0" stroke="black"/>
        </g>
        <g latexdraw:type="dot" id="id7827748" latexdraw:size="10.0"
            latexdraw:dotShape="*" latexdraw:position="780.0 120.0">
            <path
                d="M 784.6153846153846 120.0 C 784.6153846153846 122.54900653768058 782.5490065376806 124.61538461538461 780.0 124.61538461538461 C 777.4509934623194 124.61538461538461 775.3846153846154 122.54900653768058 775.3846153846154 120.0 C 775.3846153846154 117.45099346231942 777.4509934623194 115.38461538461539 780.0 115.38461538461539 C 782.5490065376806 115.38461538461539 784.6153846153846 117.45099346231942 784.6153846153846 120.0 z "
                fill="black" stroke-linecap="square"
                stroke-linejoin="butt" stroke-width="0.625"
                stroke-miterlimit="10.0" stroke-dashoffset="0.0" stroke="black"/>
        </g>
        <g latexdraw:type="dot" id="id812426" latexdraw:size="10.0"
            latexdraw:dotShape="*" latexdraw:position="860.0 200.0">
            <path
                d="M 864.6153846153846 200.0 C 864.6153846153846 202.54900653768058 862.5490065376806 204.6153846153846 860.0 204.6153846153846 C 857.4509934623194 204.6153846153846 855.3846153846154 202.54900653768058 855.3846153846154 200.0 C 855.3846153846154 197.45099346231942 857.4509934623194 195.3846153846154 860.0 195.3846153846154 C 862.5490065376806 195.3846153846154 864.6153846153846 197.45099346231942 864.6153846153846 200.0 z "
                fill="black" stroke-linecap="square"
                stroke-linejoin="butt" stroke-width="0.625"
                stroke-miterlimit="10.0" stroke-dashoffset="0.0" stroke="black"/>
        </g>
        <g latexdraw:type="dot" id="id28248450" latexdraw:size="10.0"
            latexdraw:dotShape="*" latexdraw:position="780.0 280.0">
            <path
                d="M 784.6153846153846 280.0 C 784.6153846153846 282.54900653768055 782.5490065376806 284.6153846153846 780.0 284.6153846153846 C 777.4509934623194 284.6153846153846 775.3846153846154 282.54900653768055 775.3846153846154 280.0 C 775.3846153846154 277.4509934623194 777.4509934623194 275.38461538461536 780.0 275.38461538461536 C 782.5490065376806 275.38461538461536 784.6153846153846 277.4509934623194 784.6153846153846 280.0 z "
                fill="black" stroke-linecap="square"
                stroke-linejoin="butt" stroke-width="0.625"
                stroke-miterlimit="10.0" stroke-dashoffset="0.0" stroke="black"/>
        </g>
        <g latexdraw:type="dot" id="id31029975" latexdraw:size="10.0"
            latexdraw:dotShape="*" latexdraw:position="860.0 360.0">
            <path
                d="M 864.6153846153846 360.0 C 864.6153846153846 362.54900653768055 862.5490065376806 364.6153846153846 860.0 364.6153846153846 C 857.4509934623194 364.6153846153846 855.3846153846154 362.54900653768055 855.3846153846154 360.0 C 855.3846153846154 357.4509934623194 857.4509934623194 355.38461538461536 860.0 355.38461538461536 C 862.5490065376806 355.38461538461536 864.6153846153846 357.4509934623194 864.6153846153846 360.0 z "
                fill="black" stroke-linecap="square"
                stroke-linejoin="butt" stroke-width="0.625"
                stroke-miterlimit="10.0" stroke-dashoffset="0.0" stroke="black"/>
        </g>
        <g latexdraw:type="dot" id="id25529703" latexdraw:size="10.0"
            latexdraw:dotShape="*" latexdraw:position="780.0 440.0">
            <path
                d="M 784.6153846153846 440.0 C 784.6153846153846 442.54900653768055 782.5490065376806 444.6153846153846 780.0 444.6153846153846 C 777.4509934623194 444.6153846153846 775.3846153846154 442.54900653768055 775.3846153846154 440.0 C 775.3846153846154 437.4509934623194 777.4509934623194 435.38461538461536 780.0 435.38461538461536 C 782.5490065376806 435.38461538461536 784.6153846153846 437.4509934623194 784.6153846153846 440.0 z "
                fill="black" stroke-linecap="square"
                stroke-linejoin="butt" stroke-width="0.625"
                stroke-miterlimit="10.0" stroke-dashoffset="0.0" stroke="black"/>
        </g>
        <g latexdraw:type="dot" id="id4744403" latexdraw:size="10.0"
            latexdraw:dotShape="*" latexdraw:position="700.0 360.0">
            <path
                d="M 704.6153846153846 360.0 C 704.6153846153846 362.54900653768055 702.5490065376806 364.6153846153846 700.0 364.6153846153846 C 697.4509934623194 364.6153846153846 695.3846153846154 362.54900653768055 695.3846153846154 360.0 C 695.3846153846154 357.4509934623194 697.4509934623194 355.38461538461536 700.0 355.38461538461536 C 702.5490065376806 355.38461538461536 704.6153846153846 357.4509934623194 704.6153846153846 360.0 z "
                fill="black" stroke-linecap="square"
                stroke-linejoin="butt" stroke-width="0.625"
                stroke-miterlimit="10.0" stroke-dashoffset="0.0" stroke="black"/>
        </g>
        <g latexdraw:type="text" id="id30342928" fill="black" latexdraw:position="bl">
            <text x="780.0" y="100.0">$a$</text>
        </g>
        <g latexdraw:type="text" id="id13506761" fill="black" latexdraw:position="bl">
            <text x="680.0" y="200.0">$b$</text>
        </g>
        <g latexdraw:type="text" id="id4426322" fill="black" latexdraw:position="bl">
            <text x="880.0" y="200.0">$c$</text>
        </g>
        <g latexdraw:type="text" id="id10556015" fill="black" latexdraw:position="bl">
            <text x="800.0" y="280.0">$d$</text>
        </g>
        <g latexdraw:type="text" id="id16253363" fill="black" latexdraw:position="bl">
            <text x="880.0" y="360.0">$f$</text>
        </g>
        <g latexdraw:type="text" id="id3587519" fill="black" latexdraw:position="bl">
            <text x="680.0" y="360.0">$e$</text>
        </g>
        <g latexdraw:type="text" id="id15280022" fill="black" latexdraw:position="bl">
            <text x="800.0" y="460.0">$g$</text>
        </g>
        <g latexdraw:type="text" id="id27155335" fill="black" latexdraw:position="bl">
            <text x="680.0" y="280.0">$G-\{cd\}$</text>
        </g>
        <g latexdraw:type="joinedLines" id="id28740443">
            <polyline points="480.0,520.0 400.0,600.0 400.0,600.0 "
                stroke-width="2.0" stroke="black" fill="none" latexdraw:rotationAngle="0.0"/>
        </g>
        <g latexdraw:type="joinedLines" id="id1377924">
            <polyline points="480.0,520.0 560.0,600.0 "
                stroke-width="2.0" stroke="black" latexdraw:rotationAngle="0.0"/>
        </g>
        <g latexdraw:type="joinedLines" id="id5632724">
            <polyline points="480.0,520.0 480.0,680.0 560.0,600.0 "
                stroke-width="2.0" stroke="black" fill="none" latexdraw:rotationAngle="0.0"/>
        </g>
        <g latexdraw:type="joinedLines" id="id23924142">
            <polyline points="480.0,680.0 400.0,760.0 "
                stroke-width="2.0" stroke="black" latexdraw:rotationAngle="0.0"/>
        </g>
        <g latexdraw:type="text" id="id7062615" fill="black" latexdraw:position="bl">
            <text x="480.0" y="500.0">$a$</text>
        </g>
        <g latexdraw:type="text" id="id6547542" fill="black" latexdraw:position="bl">
            <text x="580.0" y="600.0">$c$</text>
        </g>
        <g latexdraw:type="text" id="id26211584" fill="black" latexdraw:position="bl">
            <text x="380.0" y="600.0">$b$</text>
        </g>
        <g latexdraw:type="text" id="id15756230" fill="black" latexdraw:position="bl">
            <text x="500.0" y="680.0">$d$</text>
        </g>
        <g latexdraw:type="text" id="id25975625" fill="black" latexdraw:position="bl">
            <text x="360.0" y="760.0">$e$</text>
        </g>
        <g latexdraw:type="dot" id="id27019073" latexdraw:size="10.0"
            latexdraw:dotShape="*" latexdraw:position="480.0 520.0">
            <path
                d="M 484.6153846153846 520.0 C 484.6153846153846 522.5490065376806 482.54900653768055 524.6153846153846 480.0 524.6153846153846 C 477.4509934623194 524.6153846153846 475.38461538461536 522.5490065376806 475.38461538461536 520.0 C 475.38461538461536 517.4509934623194 477.4509934623194 515.3846153846154 480.0 515.3846153846154 C 482.54900653768055 515.3846153846154 484.6153846153846 517.4509934623194 484.6153846153846 520.0 z "
                fill="black" stroke-linecap="square"
                stroke-linejoin="butt" stroke-width="0.625"
                stroke-miterlimit="10.0" stroke-dashoffset="0.0" stroke="black"/>
        </g>
        <g latexdraw:type="dot" id="id14558180" latexdraw:size="10.0"
            latexdraw:dotShape="*" latexdraw:position="560.0 600.0">
            <path
                d="M 564.6153846153846 600.0 C 564.6153846153846 602.5490065376806 562.5490065376806 604.6153846153846 560.0 604.6153846153846 C 557.4509934623194 604.6153846153846 555.3846153846154 602.5490065376806 555.3846153846154 600.0 C 555.3846153846154 597.4509934623194 557.4509934623194 595.3846153846154 560.0 595.3846153846154 C 562.5490065376806 595.3846153846154 564.6153846153846 597.4509934623194 564.6153846153846 600.0 z "
                fill="black" stroke-linecap="square"
                stroke-linejoin="butt" stroke-width="0.625"
                stroke-miterlimit="10.0" stroke-dashoffset="0.0" stroke="black"/>
        </g>
        <g latexdraw:type="dot" id="id29387610" latexdraw:size="10.0"
            latexdraw:dotShape="*" latexdraw:position="480.0 680.0">
            <path
                d="M 484.6153846153846 680.0 C 484.6153846153846 682.5490065376806 482.54900653768055 684.6153846153846 480.0 684.6153846153846 C 477.4509934623194 684.6153846153846 475.38461538461536 682.5490065376806 475.38461538461536 680.0 C 475.38461538461536 677.4509934623194 477.4509934623194 675.3846153846154 480.0 675.3846153846154 C 482.54900653768055 675.3846153846154 484.6153846153846 677.4509934623194 484.6153846153846 680.0 z "
                fill="black" stroke-linecap="square"
                stroke-linejoin="butt" stroke-width="0.625"
                stroke-miterlimit="10.0" stroke-dashoffset="0.0" stroke="black"/>
        </g>
        <g latexdraw:type="dot" id="id6774209" latexdraw:size="10.0"
            latexdraw:dotShape="*" latexdraw:position="400.0 600.0">
            <path
                d="M 404.6153846153846 600.0 C 404.6153846153846 602.5490065376806 402.54900653768055 604.6153846153846 400.0 604.6153846153846 C 397.4509934623194 604.6153846153846 395.38461538461536 602.5490065376806 395.38461538461536 600.0 C 395.38461538461536 597.4509934623194 397.4509934623194 595.3846153846154 400.0 595.3846153846154 C 402.54900653768055 595.3846153846154 404.6153846153846 597.4509934623194 404.6153846153846 600.0 z "
                fill="black" stroke-linecap="square"
                stroke-linejoin="butt" stroke-width="0.625"
                stroke-miterlimit="10.0" stroke-dashoffset="0.0" stroke="black"/>
        </g>
        <g latexdraw:type="dot" id="id20734693" latexdraw:size="10.0"
            latexdraw:dotShape="*" latexdraw:position="400.0 760.0">
            <path
                d="M 404.6153846153846 760.0 C 404.6153846153846 762.5490065376806 402.54900653768055 764.6153846153846 400.0 764.6153846153846 C 397.4509934623194 764.6153846153846 395.38461538461536 762.5490065376806 395.38461538461536 760.0 C 395.38461538461536 757.4509934623194 397.4509934623194 755.3846153846154 400.0 755.3846153846154 C 402.54900653768055 755.3846153846154 404.6153846153846 757.4509934623194 404.6153846153846 760.0 z "
                fill="black" stroke-linecap="square"
                stroke-linejoin="butt" stroke-width="0.625"
                stroke-miterlimit="10.0" stroke-dashoffset="0.0" stroke="black"/>
        </g>
        <g latexdraw:type="text" id="id14068529" fill="black" latexdraw:position="bl">
            <text x="380.0" y="660.0">$G-\{f,g\}$</text>
        </g>
    </g>
    <defs/>
    <metadata>
        <latexdraw:metadata>
            <latexdraw:latexIncludes>\usepackage{amssymb}</latexdraw:latexIncludes>
            <latexdraw:displayXScale>true</latexdraw:displayXScale>
            <latexdraw:displayYScale>true</latexdraw:displayYScale>
            <latexdraw:unit>CM</latexdraw:unit>
            <latexdraw:zoom>1.0</latexdraw:zoom>
            <latexdraw:magneticGridStyle>CUSTOMISED</latexdraw:magneticGridStyle>
            <latexdraw:gridGap>20</latexdraw:gridGap>
            <latexdraw:magneticGrid>true</latexdraw:magneticGrid>
            <latexdraw:version>3.3.8</latexdraw:version>
            <latexdraw:size>
                <latexdraw:width>1034</latexdraw:width>
                <latexdraw:height>827</latexdraw:height>
            </latexdraw:size>
            <latexdraw:position>
                <latexdraw:x>11.0</latexdraw:x>
                <latexdraw:y>116.0</latexdraw:y>
            </latexdraw:position>
        </latexdraw:metadata>
    </metadata>
</svg>
