<?xml version="1.1" encoding="windows-1252"?>
<svg xmlns="http://www.w3.org/2000/svg"
    xmlns:latexdraw="http://latexdraw.sourceforge.net/namespaces/latexdraw"
    version="1.1" baseProfile="full">
    <g>
        <g latexdraw:type="drawing" id="id32087615">
            <g latexdraw:type="joinedLines" id="id11287101">
                <polyline points="200.0,80.0 280.0,80.0 400.0,320.0 "
                    stroke-width="2.0" stroke="black" fill="none" latexdraw:rotationAngle="0.0"/>
            </g>
            <g latexdraw:type="joinedLines" id="id18840843">
                <polyline points="200.0,80.0 80.0,320.0 "
                    stroke-width="2.0" stroke="black" latexdraw:rotationAngle="0.0"/>
            </g>
            <g latexdraw:type="joinedLines" id="id23809830">
                <polyline
                    points="180.0,120.0 300.0,120.0 120.0,240.0 400.0,320.0 "
                    stroke-width="2.0" stroke="black" fill="none" latexdraw:rotationAngle="0.0"/>
            </g>
            <g latexdraw:type="joinedLines" id="id6524650">
                <polyline points="360.0,240.0 180.0,120.0 180.0,120.0 "
                    stroke-width="2.0" stroke="black" fill="none" latexdraw:rotationAngle="0.0"/>
            </g>
            <g latexdraw:type="joinedLines" id="id33179736">
                <polyline points="360.0,240.0 80.0,320.0 "
                    stroke-width="2.0" stroke="black" latexdraw:rotationAngle="0.0"/>
            </g>
            <g latexdraw:type="joinedLines" id="id17437061">
                <polyline
                    points="120.0,240.0 240.0,180.0 360.0,240.0 240.0,260.0 120.0,240.0 "
                    stroke-width="2.0" stroke="black" fill="none" latexdraw:rotationAngle="0.0"/>
            </g>
            <g latexdraw:type="dot" id="id30559549"
                latexdraw:size="10.0" latexdraw:dotShape="*" latexdraw:position="200.0 80.0">
                <path
                    d="M 204.6153846153846 80.0 C 204.6153846153846 82.54900653768058 202.54900653768058 84.61538461538461 200.0 84.61538461538461 C 197.45099346231942 84.61538461538461 195.3846153846154 82.54900653768058 195.3846153846154 80.0 C 195.3846153846154 77.45099346231942 197.45099346231942 75.38461538461539 200.0 75.38461538461539 C 202.54900653768058 75.38461538461539 204.6153846153846 77.45099346231942 204.6153846153846 80.0 z "
                    fill="black" stroke-linecap="square"
                    stroke-linejoin="butt" stroke-width="0.625"
                    stroke-miterlimit="10.0" stroke-dashoffset="0.0" stroke="black"/>
            </g>
            <g latexdraw:type="dot" id="id2433140" latexdraw:size="10.0"
                latexdraw:dotShape="*" latexdraw:position="280.0 80.0">
                <path
                    d="M 284.6153846153846 80.0 C 284.6153846153846 82.54900653768058 282.54900653768055 84.61538461538461 280.0 84.61538461538461 C 277.4509934623194 84.61538461538461 275.38461538461536 82.54900653768058 275.38461538461536 80.0 C 275.38461538461536 77.45099346231942 277.4509934623194 75.38461538461539 280.0 75.38461538461539 C 282.54900653768055 75.38461538461539 284.6153846153846 77.45099346231942 284.6153846153846 80.0 z "
                    fill="black" stroke-linecap="square"
                    stroke-linejoin="butt" stroke-width="0.625"
                    stroke-miterlimit="10.0" stroke-dashoffset="0.0" stroke="black"/>
            </g>
            <g latexdraw:type="dot" id="id22066649"
                latexdraw:size="10.0" latexdraw:dotShape="*" latexdraw:position="180.0 120.0">
                <path
                    d="M 184.6153846153846 120.0 C 184.6153846153846 122.54900653768058 182.54900653768058 124.61538461538461 180.0 124.61538461538461 C 177.45099346231942 124.61538461538461 175.3846153846154 122.54900653768058 175.3846153846154 120.0 C 175.3846153846154 117.45099346231942 177.45099346231942 115.38461538461539 180.0 115.38461538461539 C 182.54900653768058 115.38461538461539 184.6153846153846 117.45099346231942 184.6153846153846 120.0 z "
                    fill="black" stroke-linecap="square"
                    stroke-linejoin="butt" stroke-width="0.625"
                    stroke-miterlimit="10.0" stroke-dashoffset="0.0" stroke="black"/>
            </g>
            <g latexdraw:type="dot" id="id2738545" latexdraw:size="10.0"
                latexdraw:dotShape="*" latexdraw:position="300.0 120.0">
                <path
                    d="M 304.6153846153846 120.0 C 304.6153846153846 122.54900653768058 302.54900653768055 124.61538461538461 300.0 124.61538461538461 C 297.4509934623194 124.61538461538461 295.38461538461536 122.54900653768058 295.38461538461536 120.0 C 295.38461538461536 117.45099346231942 297.4509934623194 115.38461538461539 300.0 115.38461538461539 C 302.54900653768055 115.38461538461539 304.6153846153846 117.45099346231942 304.6153846153846 120.0 z "
                    fill="black" stroke-linecap="square"
                    stroke-linejoin="butt" stroke-width="0.625"
                    stroke-miterlimit="10.0" stroke-dashoffset="0.0" stroke="black"/>
            </g>
            <g latexdraw:type="dot" id="id29425072"
                latexdraw:size="10.0" latexdraw:dotShape="*" latexdraw:position="240.0 180.0">
                <path
                    d="M 244.6153846153846 180.0 C 244.6153846153846 182.54900653768058 242.54900653768058 184.6153846153846 240.0 184.6153846153846 C 237.45099346231942 184.6153846153846 235.3846153846154 182.54900653768058 235.3846153846154 180.0 C 235.3846153846154 177.45099346231942 237.45099346231942 175.3846153846154 240.0 175.3846153846154 C 242.54900653768058 175.3846153846154 244.6153846153846 177.45099346231942 244.6153846153846 180.0 z "
                    fill="black" stroke-linecap="square"
                    stroke-linejoin="butt" stroke-width="0.625"
                    stroke-miterlimit="10.0" stroke-dashoffset="0.0" stroke="black"/>
            </g>
            <g latexdraw:type="dot" id="id28917945"
                latexdraw:size="10.0" latexdraw:dotShape="*" latexdraw:position="240.0 260.0">
                <path
                    d="M 244.6153846153846 260.0 C 244.6153846153846 262.5490065376806 242.54900653768058 264.61538461538464 240.0 264.61538461538464 C 237.45099346231942 264.61538461538464 235.3846153846154 262.5490065376806 235.3846153846154 260.0 C 235.3846153846154 257.4509934623194 237.45099346231942 255.3846153846154 240.0 255.3846153846154 C 242.54900653768058 255.3846153846154 244.6153846153846 257.4509934623194 244.6153846153846 260.0 z "
                    fill="black" stroke-linecap="square"
                    stroke-linejoin="butt" stroke-width="0.625"
                    stroke-miterlimit="10.0" stroke-dashoffset="0.0" stroke="black"/>
            </g>
            <g latexdraw:type="dot" id="id25505251"
                latexdraw:size="10.0" latexdraw:dotShape="*" latexdraw:position="120.0 240.0">
                <path
                    d="M 124.61538461538461 240.0 C 124.61538461538461 242.54900653768058 122.54900653768058 244.6153846153846 120.0 244.6153846153846 C 117.45099346231942 244.6153846153846 115.38461538461539 242.54900653768058 115.38461538461539 240.0 C 115.38461538461539 237.45099346231942 117.45099346231942 235.3846153846154 120.0 235.3846153846154 C 122.54900653768058 235.3846153846154 124.61538461538461 237.45099346231942 124.61538461538461 240.0 z "
                    fill="black" stroke-linecap="square"
                    stroke-linejoin="butt" stroke-width="0.625"
                    stroke-miterlimit="10.0" stroke-dashoffset="0.0" stroke="black"/>
            </g>
            <g latexdraw:type="dot" id="id16129971"
                latexdraw:size="10.0" latexdraw:dotShape="*" latexdraw:position="360.0 240.0">
                <path
                    d="M 364.6153846153846 240.0 C 364.6153846153846 242.54900653768058 362.54900653768055 244.6153846153846 360.0 244.6153846153846 C 357.4509934623194 244.6153846153846 355.38461538461536 242.54900653768058 355.38461538461536 240.0 C 355.38461538461536 237.45099346231942 357.4509934623194 235.3846153846154 360.0 235.3846153846154 C 362.54900653768055 235.3846153846154 364.6153846153846 237.45099346231942 364.6153846153846 240.0 z "
                    fill="black" stroke-linecap="square"
                    stroke-linejoin="butt" stroke-width="0.625"
                    stroke-miterlimit="10.0" stroke-dashoffset="0.0" stroke="black"/>
            </g>
            <g latexdraw:type="dot" id="id14726025"
                latexdraw:size="10.0" latexdraw:dotShape="*" latexdraw:position="80.0 320.0">
                <path
                    d="M 84.61538461538461 320.0 C 84.61538461538461 322.54900653768055 82.54900653768058 324.6153846153846 80.0 324.6153846153846 C 77.45099346231942 324.6153846153846 75.38461538461539 322.54900653768055 75.38461538461539 320.0 C 75.38461538461539 317.4509934623194 77.45099346231942 315.38461538461536 80.0 315.38461538461536 C 82.54900653768058 315.38461538461536 84.61538461538461 317.4509934623194 84.61538461538461 320.0 z "
                    fill="black" stroke-linecap="square"
                    stroke-linejoin="butt" stroke-width="0.625"
                    stroke-miterlimit="10.0" stroke-dashoffset="0.0" stroke="black"/>
            </g>
            <g latexdraw:type="dot" id="id6884835" latexdraw:size="10.0"
                latexdraw:dotShape="*" latexdraw:position="400.0 320.0">
                <path
                    d="M 404.6153846153846 320.0 C 404.6153846153846 322.54900653768055 402.54900653768055 324.6153846153846 400.0 324.6153846153846 C 397.4509934623194 324.6153846153846 395.38461538461536 322.54900653768055 395.38461538461536 320.0 C 395.38461538461536 317.4509934623194 397.4509934623194 315.38461538461536 400.0 315.38461538461536 C 402.54900653768055 315.38461538461536 404.6153846153846 317.4509934623194 404.6153846153846 320.0 z "
                    fill="black" stroke-linecap="square"
                    stroke-linejoin="butt" stroke-width="0.625"
                    stroke-miterlimit="10.0" stroke-dashoffset="0.0" stroke="black"/>
            </g>
            <g latexdraw:type="text" id="id30125792" fill="black" latexdraw:position="bl">
                <text x="200.0" y="60.0">$a$</text>
            </g>
            <g latexdraw:type="text" id="id31267774" fill="black" latexdraw:position="bl">
                <text x="280.0" y="60.0">$b$</text>
            </g>
            <g latexdraw:type="text" id="id23403302" fill="black" latexdraw:position="bl">
                <text x="160.0" y="120.0">$c$</text>
            </g>
            <g latexdraw:type="text" id="id23430120" fill="black" latexdraw:position="bl">
                <text x="320.0" y="120.0">$d$</text>
            </g>
            <g latexdraw:type="text" id="id30160652" fill="black" latexdraw:position="bl">
                <text x="240.0" y="200.0">$f$</text>
            </g>
            <g latexdraw:type="text" id="id24700836" fill="black" latexdraw:position="bl">
                <text x="240.0" y="240.0">$g$</text>
            </g>
            <g latexdraw:type="text" id="id10482374" fill="black" latexdraw:position="bl">
                <text x="100.0" y="240.0">$e$</text>
            </g>
            <g latexdraw:type="text" id="id12609857" fill="black" latexdraw:position="bl">
                <text x="380.0" y="240.0">$h$</text>
            </g>
            <g latexdraw:type="text" id="id10705621" fill="black" latexdraw:position="bl">
                <text x="80.0" y="340.0">$i$</text>
            </g>
            <g latexdraw:type="text" id="id22896058" fill="black" latexdraw:position="bl">
                <text x="400.0" y="340.0">$j$</text>
            </g>
        </g>
        <g latexdraw:type="joinedLines" id="id20658">
            <polyline points="640.0,80.0 720.0,80.0 840.0,320.0 "
                stroke-width="2.0" stroke="black" fill="none" latexdraw:rotationAngle="0.0"/>
        </g>
        <g latexdraw:type="joinedLines" id="id27142401">
            <polyline points="640.0,80.0 520.0,320.0 "
                stroke-width="2.0" stroke="black" latexdraw:rotationAngle="0.0"/>
        </g>
        <g latexdraw:type="joinedLines" id="id11904352">
            <polyline
                points="620.0,120.0 740.0,120.0 560.0,240.0 840.0,320.0 "
                stroke-width="2.0" stroke="black" fill="none" latexdraw:rotationAngle="0.0"/>
        </g>
        <g latexdraw:type="joinedLines" id="id32396599">
            <polyline points="800.0,240.0 620.0,120.0 620.0,120.0 "
                stroke-width="2.0" stroke="black" fill="none" latexdraw:rotationAngle="0.0"/>
        </g>
        <g latexdraw:type="joinedLines" id="id30087288">
            <polyline points="800.0,240.0 520.0,320.0 "
                stroke-width="2.0" stroke="black" latexdraw:rotationAngle="0.0"/>
        </g>
        <g latexdraw:type="joinedLines" id="id31322977">
            <polyline
                points="560.0,240.0 680.0,180.0 800.0,240.0 680.0,260.0 560.0,240.0 "
                stroke-width="2.0" stroke="black" fill="none" latexdraw:rotationAngle="0.0"/>
        </g>
        <g latexdraw:type="dot" id="id6737055" latexdraw:size="10.0"
            latexdraw:dotShape="*" latexdraw:position="640.0 80.0">
            <path
                d="M 644.6153846153846 80.0 C 644.6153846153846 82.54900653768058 642.5490065376806 84.61538461538461 640.0 84.61538461538461 C 637.4509934623194 84.61538461538461 635.3846153846154 82.54900653768058 635.3846153846154 80.0 C 635.3846153846154 77.45099346231942 637.4509934623194 75.38461538461539 640.0 75.38461538461539 C 642.5490065376806 75.38461538461539 644.6153846153846 77.45099346231942 644.6153846153846 80.0 z "
                fill="black" stroke-linecap="square"
                stroke-linejoin="butt" stroke-width="0.625"
                stroke-miterlimit="10.0" stroke-dashoffset="0.0" stroke="black"/>
        </g>
        <g latexdraw:type="dot" id="id17983177" latexdraw:size="10.0"
            latexdraw:dotShape="*" latexdraw:position="720.0 80.0">
            <path
                d="M 724.6153846153846 80.0 C 724.6153846153846 82.54900653768058 722.5490065376806 84.61538461538461 720.0 84.61538461538461 C 717.4509934623194 84.61538461538461 715.3846153846154 82.54900653768058 715.3846153846154 80.0 C 715.3846153846154 77.45099346231942 717.4509934623194 75.38461538461539 720.0 75.38461538461539 C 722.5490065376806 75.38461538461539 724.6153846153846 77.45099346231942 724.6153846153846 80.0 z "
                fill="black" stroke-linecap="square"
                stroke-linejoin="butt" stroke-width="0.625"
                stroke-miterlimit="10.0" stroke-dashoffset="0.0" stroke="black"/>
        </g>
        <g latexdraw:type="dot" id="id10727563" latexdraw:size="10.0"
            latexdraw:dotShape="*" latexdraw:position="620.0 120.0">
            <path
                d="M 624.6153846153846 120.0 C 624.6153846153846 122.54900653768058 622.5490065376806 124.61538461538461 620.0 124.61538461538461 C 617.4509934623194 124.61538461538461 615.3846153846154 122.54900653768058 615.3846153846154 120.0 C 615.3846153846154 117.45099346231942 617.4509934623194 115.38461538461539 620.0 115.38461538461539 C 622.5490065376806 115.38461538461539 624.6153846153846 117.45099346231942 624.6153846153846 120.0 z "
                fill="black" stroke-linecap="square"
                stroke-linejoin="butt" stroke-width="0.625"
                stroke-miterlimit="10.0" stroke-dashoffset="0.0" stroke="black"/>
        </g>
        <g latexdraw:type="dot" id="id2825413" latexdraw:size="10.0"
            latexdraw:dotShape="*" latexdraw:position="740.0 120.0">
            <path
                d="M 744.6153846153846 120.0 C 744.6153846153846 122.54900653768058 742.5490065376806 124.61538461538461 740.0 124.61538461538461 C 737.4509934623194 124.61538461538461 735.3846153846154 122.54900653768058 735.3846153846154 120.0 C 735.3846153846154 117.45099346231942 737.4509934623194 115.38461538461539 740.0 115.38461538461539 C 742.5490065376806 115.38461538461539 744.6153846153846 117.45099346231942 744.6153846153846 120.0 z "
                fill="black" stroke-linecap="square"
                stroke-linejoin="butt" stroke-width="0.625"
                stroke-miterlimit="10.0" stroke-dashoffset="0.0" stroke="black"/>
        </g>
        <g latexdraw:type="dot" id="id1778283" latexdraw:size="10.0"
            latexdraw:dotShape="*" latexdraw:position="680.0 180.0">
            <path
                d="M 684.6153846153846 180.0 C 684.6153846153846 182.54900653768058 682.5490065376806 184.6153846153846 680.0 184.6153846153846 C 677.4509934623194 184.6153846153846 675.3846153846154 182.54900653768058 675.3846153846154 180.0 C 675.3846153846154 177.45099346231942 677.4509934623194 175.3846153846154 680.0 175.3846153846154 C 682.5490065376806 175.3846153846154 684.6153846153846 177.45099346231942 684.6153846153846 180.0 z "
                fill="black" stroke-linecap="square"
                stroke-linejoin="butt" stroke-width="0.625"
                stroke-miterlimit="10.0" stroke-dashoffset="0.0" stroke="black"/>
        </g>
        <g latexdraw:type="dot" id="id10168015" latexdraw:size="10.0"
            latexdraw:dotShape="*" latexdraw:position="680.0 260.0">
            <path
                d="M 684.6153846153846 260.0 C 684.6153846153846 262.5490065376806 682.5490065376806 264.61538461538464 680.0 264.61538461538464 C 677.4509934623194 264.61538461538464 675.3846153846154 262.5490065376806 675.3846153846154 260.0 C 675.3846153846154 257.4509934623194 677.4509934623194 255.3846153846154 680.0 255.3846153846154 C 682.5490065376806 255.3846153846154 684.6153846153846 257.4509934623194 684.6153846153846 260.0 z "
                fill="black" stroke-linecap="square"
                stroke-linejoin="butt" stroke-width="0.625"
                stroke-miterlimit="10.0" stroke-dashoffset="0.0" stroke="black"/>
        </g>
        <g latexdraw:type="dot" id="id19919743" latexdraw:size="10.0"
            latexdraw:dotShape="*" latexdraw:position="560.0 240.0">
            <path
                d="M 564.6153846153846 240.0 C 564.6153846153846 242.54900653768058 562.5490065376806 244.6153846153846 560.0 244.6153846153846 C 557.4509934623194 244.6153846153846 555.3846153846154 242.54900653768058 555.3846153846154 240.0 C 555.3846153846154 237.45099346231942 557.4509934623194 235.3846153846154 560.0 235.3846153846154 C 562.5490065376806 235.3846153846154 564.6153846153846 237.45099346231942 564.6153846153846 240.0 z "
                fill="black" stroke-linecap="square"
                stroke-linejoin="butt" stroke-width="0.625"
                stroke-miterlimit="10.0" stroke-dashoffset="0.0" stroke="black"/>
        </g>
        <g latexdraw:type="dot" id="id33161771" latexdraw:size="10.0"
            latexdraw:dotShape="*" latexdraw:position="800.0 240.0">
            <path
                d="M 804.6153846153846 240.0 C 804.6153846153846 242.54900653768058 802.5490065376806 244.6153846153846 800.0 244.6153846153846 C 797.4509934623194 244.6153846153846 795.3846153846154 242.54900653768058 795.3846153846154 240.0 C 795.3846153846154 237.45099346231942 797.4509934623194 235.3846153846154 800.0 235.3846153846154 C 802.5490065376806 235.3846153846154 804.6153846153846 237.45099346231942 804.6153846153846 240.0 z "
                fill="black" stroke-linecap="square"
                stroke-linejoin="butt" stroke-width="0.625"
                stroke-miterlimit="10.0" stroke-dashoffset="0.0" stroke="black"/>
        </g>
        <g latexdraw:type="dot" id="id5864325" latexdraw:size="10.0"
            latexdraw:dotShape="*" latexdraw:position="520.0 320.0">
            <path
                d="M 524.6153846153846 320.0 C 524.6153846153846 322.54900653768055 522.5490065376806 324.6153846153846 520.0 324.6153846153846 C 517.4509934623194 324.6153846153846 515.3846153846154 322.54900653768055 515.3846153846154 320.0 C 515.3846153846154 317.4509934623194 517.4509934623194 315.38461538461536 520.0 315.38461538461536 C 522.5490065376806 315.38461538461536 524.6153846153846 317.4509934623194 524.6153846153846 320.0 z "
                fill="black" stroke-linecap="square"
                stroke-linejoin="butt" stroke-width="0.625"
                stroke-miterlimit="10.0" stroke-dashoffset="0.0" stroke="black"/>
        </g>
        <g latexdraw:type="dot" id="id33265375" latexdraw:size="10.0"
            latexdraw:dotShape="*" latexdraw:position="840.0 320.0">
            <path
                d="M 844.6153846153846 320.0 C 844.6153846153846 322.54900653768055 842.5490065376806 324.6153846153846 840.0 324.6153846153846 C 837.4509934623194 324.6153846153846 835.3846153846154 322.54900653768055 835.3846153846154 320.0 C 835.3846153846154 317.4509934623194 837.4509934623194 315.38461538461536 840.0 315.38461538461536 C 842.5490065376806 315.38461538461536 844.6153846153846 317.4509934623194 844.6153846153846 320.0 z "
                fill="black" stroke-linecap="square"
                stroke-linejoin="butt" stroke-width="0.625"
                stroke-miterlimit="10.0" stroke-dashoffset="0.0" stroke="black"/>
        </g>
        <g latexdraw:type="text" id="id24458900" fill="black" latexdraw:position="bl">
            <text x="640.0" y="60.0">$a$</text>
        </g>
        <g latexdraw:type="text" id="id1286027" fill="black" latexdraw:position="bl">
            <text x="720.0" y="60.0">$b$</text>
        </g>
        <g latexdraw:type="text" id="id28000415" fill="black" latexdraw:position="bl">
            <text x="600.0" y="120.0">$c$</text>
        </g>
        <g latexdraw:type="text" id="id12807515" fill="black" latexdraw:position="bl">
            <text x="760.0" y="120.0">$d$</text>
        </g>
        <g latexdraw:type="text" id="id6828161" fill="black" latexdraw:position="bl">
            <text x="680.0" y="200.0">$f$</text>
        </g>
        <g latexdraw:type="text" id="id5578560" fill="black" latexdraw:position="bl">
            <text x="680.0" y="240.0">$g$</text>
        </g>
        <g latexdraw:type="text" id="id30610861" fill="black" latexdraw:position="bl">
            <text x="540.0" y="240.0">$e$</text>
        </g>
        <g latexdraw:type="text" id="id3609017" fill="black" latexdraw:position="bl">
            <text x="820.0" y="240.0">$h$</text>
        </g>
        <g latexdraw:type="text" id="id27710534" fill="black" latexdraw:position="bl">
            <text x="520.0" y="340.0">$i$</text>
        </g>
        <g latexdraw:type="text" id="id21986029" fill="black" latexdraw:position="bl">
            <text x="840.0" y="340.0">$j$</text>
        </g>
        <g latexdraw:type="joinedLines" id="id28821618">
            <polyline
                points="625.0,112.0 750.0,112.0 805.0,229.0 625.0,112.0 "
                stroke-width="2.0" stroke="#ff0033" fill="none"
                stroke-dasharray="8.819444444444445, 5.291666666666667" latexdraw:rotationAngle="0.0"/>
        </g>
        <g latexdraw:type="joinedLines" id="id32359554">
            <polyline
                points="631.0,71.0 729.0,71.0 744.0,107.0 554.0,232.0 632.0,71.0 "
                stroke-width="2.0" stroke="#0033ff" fill="none"
                stroke-dasharray="8.819444444444445, 5.291666666666667" latexdraw:rotationAngle="0.0"/>
        </g>
        <g latexdraw:type="joinedLines" id="id27995988">
            <polyline
                points="534.0,309.0 775.0,238.0 677.0,192.0 565.0,248.0 533.0,308.0 "
                stroke-width="2.0" stroke="magenta" fill="none"
                stroke-dasharray="8.819444444444445, 5.291666666666667" latexdraw:rotationAngle="0.0"/>
        </g>
    </g>
    <defs/>
    <metadata>
        <latexdraw:metadata>
            <latexdraw:latexIncludes>\usepackage{amssymb}</latexdraw:latexIncludes>
            <latexdraw:displayXScale>true</latexdraw:displayXScale>
            <latexdraw:displayYScale>true</latexdraw:displayYScale>
            <latexdraw:unit>CM</latexdraw:unit>
            <latexdraw:zoom>1.0</latexdraw:zoom>
            <latexdraw:magneticGridStyle>CUSTOMISED</latexdraw:magneticGridStyle>
            <latexdraw:gridGap>20</latexdraw:gridGap>
            <latexdraw:magneticGrid>false</latexdraw:magneticGrid>
            <latexdraw:version>3.3.8</latexdraw:version>
            <latexdraw:size>
                <latexdraw:width>1034</latexdraw:width>
                <latexdraw:height>827</latexdraw:height>
            </latexdraw:size>
            <latexdraw:position>
                <latexdraw:x>34.0</latexdraw:x>
                <latexdraw:y>129.0</latexdraw:y>
            </latexdraw:position>
        </latexdraw:metadata>
    </metadata>
</svg>
