<?xml version="1.1" encoding="windows-1252"?>
<svg xmlns="http://www.w3.org/2000/svg"
    xmlns:latexdraw="http://latexdraw.sourceforge.net/namespaces/latexdraw"
    version="1.1" baseProfile="full">
    <g>
        <g latexdraw:type="square" id="id30665889">
            <rect x="281.0" y="141.0" width="118.0" height="118.0"
                latexdraw:borderPos="outer" stroke-width="2.0"
                stroke="black" fill="none"/>
        </g>
        <g latexdraw:type="joinedLines" id="id22749634">
            <polyline points="280.0,260.0 400.0,140.0 "
                stroke-width="2.0" stroke="black" latexdraw:rotationAngle="0.0"/>
        </g>
        <g latexdraw:type="joinedLines" id="id13358432">
            <polyline points="280.0,140.0 400.0,260.0 "
                stroke-width="2.0" stroke="black" latexdraw:rotationAngle="0.0"/>
        </g>
        <g latexdraw:type="dot" id="id2054051" latexdraw:size="10.0"
            latexdraw:dotShape="*" latexdraw:position="280.0 140.0">
            <path
                d="M 284.6153846153846 140.0 C 284.6153846153846 142.54900653768058 282.54900653768055 144.6153846153846 280.0 144.6153846153846 C 277.4509934623194 144.6153846153846 275.38461538461536 142.54900653768058 275.38461538461536 140.0 C 275.38461538461536 137.45099346231942 277.4509934623194 135.3846153846154 280.0 135.3846153846154 C 282.54900653768055 135.3846153846154 284.6153846153846 137.45099346231942 284.6153846153846 140.0 z "
                fill="black" stroke-linecap="square"
                stroke-linejoin="butt" stroke-width="0.625"
                stroke-miterlimit="10.0" stroke-dashoffset="0.0" stroke="black"/>
        </g>
        <g latexdraw:type="dot" id="id17921653" latexdraw:size="10.0"
            latexdraw:dotShape="*" latexdraw:position="400.0 140.0">
            <path
                d="M 404.6153846153846 140.0 C 404.6153846153846 142.54900653768058 402.54900653768055 144.6153846153846 400.0 144.6153846153846 C 397.4509934623194 144.6153846153846 395.38461538461536 142.54900653768058 395.38461538461536 140.0 C 395.38461538461536 137.45099346231942 397.4509934623194 135.3846153846154 400.0 135.3846153846154 C 402.54900653768055 135.3846153846154 404.6153846153846 137.45099346231942 404.6153846153846 140.0 z "
                fill="black" stroke-linecap="square"
                stroke-linejoin="butt" stroke-width="0.625"
                stroke-miterlimit="10.0" stroke-dashoffset="0.0" stroke="black"/>
        </g>
        <g latexdraw:type="dot" id="id27161169" latexdraw:size="10.0"
            latexdraw:dotShape="*" latexdraw:position="280.0 260.0">
            <path
                d="M 284.6153846153846 260.0 C 284.6153846153846 262.5490065376806 282.54900653768055 264.61538461538464 280.0 264.61538461538464 C 277.4509934623194 264.61538461538464 275.38461538461536 262.5490065376806 275.38461538461536 260.0 C 275.38461538461536 257.4509934623194 277.4509934623194 255.3846153846154 280.0 255.3846153846154 C 282.54900653768055 255.3846153846154 284.6153846153846 257.4509934623194 284.6153846153846 260.0 z "
                fill="black" stroke-linecap="square"
                stroke-linejoin="butt" stroke-width="0.625"
                stroke-miterlimit="10.0" stroke-dashoffset="0.0" stroke="black"/>
        </g>
        <g latexdraw:type="dot" id="id24087912" latexdraw:size="10.0"
            latexdraw:dotShape="*" latexdraw:position="400.0 260.0">
            <path
                d="M 404.6153846153846 260.0 C 404.6153846153846 262.5490065376806 402.54900653768055 264.61538461538464 400.0 264.61538461538464 C 397.4509934623194 264.61538461538464 395.38461538461536 262.5490065376806 395.38461538461536 260.0 C 395.38461538461536 257.4509934623194 397.4509934623194 255.3846153846154 400.0 255.3846153846154 C 402.54900653768055 255.3846153846154 404.6153846153846 257.4509934623194 404.6153846153846 260.0 z "
                fill="black" stroke-linecap="square"
                stroke-linejoin="butt" stroke-width="0.625"
                stroke-miterlimit="10.0" stroke-dashoffset="0.0" stroke="black"/>
        </g>
        <g latexdraw:type="dot" id="id30124022" latexdraw:size="10.0"
            latexdraw:dotShape="*" latexdraw:position="540.0 140.0">
            <path
                d="M 544.6153846153846 140.0 C 544.6153846153846 142.54900653768058 542.5490065376806 144.6153846153846 540.0 144.6153846153846 C 537.4509934623194 144.6153846153846 535.3846153846154 142.54900653768058 535.3846153846154 140.0 C 535.3846153846154 137.45099346231942 537.4509934623194 135.3846153846154 540.0 135.3846153846154 C 542.5490065376806 135.3846153846154 544.6153846153846 137.45099346231942 544.6153846153846 140.0 z "
                fill="black" stroke-linecap="square"
                stroke-linejoin="butt" stroke-width="0.625"
                stroke-miterlimit="10.0" stroke-dashoffset="0.0" stroke="black"/>
        </g>
        <g latexdraw:type="dot" id="id20187275" latexdraw:size="10.0"
            latexdraw:dotShape="*" latexdraw:position="660.0 140.0">
            <path
                d="M 664.6153846153846 140.0 C 664.6153846153846 142.54900653768058 662.5490065376806 144.6153846153846 660.0 144.6153846153846 C 657.4509934623194 144.6153846153846 655.3846153846154 142.54900653768058 655.3846153846154 140.0 C 655.3846153846154 137.45099346231942 657.4509934623194 135.3846153846154 660.0 135.3846153846154 C 662.5490065376806 135.3846153846154 664.6153846153846 137.45099346231942 664.6153846153846 140.0 z "
                fill="black" stroke-linecap="square"
                stroke-linejoin="butt" stroke-width="0.625"
                stroke-miterlimit="10.0" stroke-dashoffset="0.0" stroke="black"/>
        </g>
        <g latexdraw:type="dot" id="id27797124" latexdraw:size="10.0"
            latexdraw:dotShape="*" latexdraw:position="540.0 260.0">
            <path
                d="M 544.6153846153846 260.0 C 544.6153846153846 262.5490065376806 542.5490065376806 264.61538461538464 540.0 264.61538461538464 C 537.4509934623194 264.61538461538464 535.3846153846154 262.5490065376806 535.3846153846154 260.0 C 535.3846153846154 257.4509934623194 537.4509934623194 255.3846153846154 540.0 255.3846153846154 C 542.5490065376806 255.3846153846154 544.6153846153846 257.4509934623194 544.6153846153846 260.0 z "
                fill="black" stroke-linecap="square"
                stroke-linejoin="butt" stroke-width="0.625"
                stroke-miterlimit="10.0" stroke-dashoffset="0.0" stroke="black"/>
        </g>
        <g latexdraw:type="dot" id="id1768306" latexdraw:size="10.0"
            latexdraw:dotShape="*" latexdraw:position="660.0 260.0">
            <path
                d="M 664.6153846153846 260.0 C 664.6153846153846 262.5490065376806 662.5490065376806 264.61538461538464 660.0 264.61538461538464 C 657.4509934623194 264.61538461538464 655.3846153846154 262.5490065376806 655.3846153846154 260.0 C 655.3846153846154 257.4509934623194 657.4509934623194 255.3846153846154 660.0 255.3846153846154 C 662.5490065376806 255.3846153846154 664.6153846153846 257.4509934623194 664.6153846153846 260.0 z "
                fill="black" stroke-linecap="square"
                stroke-linejoin="butt" stroke-width="0.625"
                stroke-miterlimit="10.0" stroke-dashoffset="0.0" stroke="black"/>
        </g>
        <g latexdraw:type="text" id="id21056007" fill="black" latexdraw:position="bl">
            <text x="720.0" y="200.0">no edges</text>
        </g>
        <g latexdraw:type="text" id="id14916649" fill="black" latexdraw:position="bl">
            <text x="120.0" y="180.0">$6$ edges</text>
        </g>
        <g latexdraw:type="text" id="id19436976" fill="black" latexdraw:position="bl">
            <text x="120.0" y="200.0">= max $\#$ of edges</text>
        </g>
    </g>
    <defs/>
    <metadata>
        <latexdraw:metadata>
            <latexdraw:latexIncludes>\usepackage{amssymb}&#xd;
</latexdraw:latexIncludes>
            <latexdraw:displayXScale>true</latexdraw:displayXScale>
            <latexdraw:displayYScale>true</latexdraw:displayYScale>
            <latexdraw:unit>CM</latexdraw:unit>
            <latexdraw:zoom>1.0</latexdraw:zoom>
            <latexdraw:magneticGridStyle>CUSTOMISED</latexdraw:magneticGridStyle>
            <latexdraw:gridGap>20</latexdraw:gridGap>
            <latexdraw:magneticGrid>true</latexdraw:magneticGrid>
            <latexdraw:version>3.3.8</latexdraw:version>
            <latexdraw:size>
                <latexdraw:width>1034</latexdraw:width>
                <latexdraw:height>827</latexdraw:height>
            </latexdraw:size>
            <latexdraw:position>
                <latexdraw:x>298.0</latexdraw:x>
                <latexdraw:y>148.0</latexdraw:y>
            </latexdraw:position>
        </latexdraw:metadata>
    </metadata>
</svg>
