<?xml version="1.1" encoding="windows-1252"?>
<svg xmlns="http://www.w3.org/2000/svg"
    xmlns:latexdraw="http://latexdraw.sourceforge.net/namespaces/latexdraw"
    version="1.1" baseProfile="full">
    <g>
        <g latexdraw:type="joinedLines" id="id10651620">
            <polyline
                points="340.0,100.0 220.0,180.0 220.0,300.0 140.0,240.0 220.0,180.0 "
                stroke-width="2.0" stroke="black" fill="none" latexdraw:rotationAngle="0.0"/>
        </g>
        <g latexdraw:type="joinedLines" id="id29584068">
            <polyline
                points="220.0,300.0 340.0,300.0 340.0,200.0 280.0,240.0 "
                stroke-width="2.0" stroke="black" fill="none" latexdraw:rotationAngle="0.0"/>
        </g>
        <g latexdraw:type="joinedLines" id="id15560461">
            <polyline points="340.0,200.0 340.0,100.0 "
                stroke-width="2.0" stroke="black" latexdraw:rotationAngle="0.0"/>
        </g>
        <g latexdraw:type="joinedLines" id="id8579796">
            <polyline points="340.0,300.0 400.0,360.0 "
                stroke-width="2.0" stroke="black" latexdraw:rotationAngle="0.0"/>
        </g>
        <g latexdraw:type="joinedLines" id="id22717684">
            <polyline points="360.0,60.0 100.0,240.0 100.0,240.0 "
                stroke-width="2.0" stroke="#ff3333" fill="none"
                stroke-dasharray="8.819444444444445, 5.291666666666667" latexdraw:rotationAngle="0.0"/>
        </g>
        <g latexdraw:type="joinedLines" id="id12768534">
            <polyline
                points="100.0,240.0 220.0,340.0 340.0,340.0 400.0,400.0 400.0,400.0 "
                stroke-width="2.0" stroke="#ff3333" fill="none"
                stroke-dasharray="8.819444444444445, 5.291666666666667" latexdraw:rotationAngle="0.0"/>
        </g>
        <g latexdraw:type="joinedLines" id="id24820141">
            <polyline points="400.0,400.0 440.0,360.0 360.0,280.0 "
                stroke-width="2.0" stroke="#ff3333" fill="none"
                stroke-dasharray="8.819444444444445, 5.291666666666667" latexdraw:rotationAngle="0.0"/>
        </g>
        <g latexdraw:type="joinedLines" id="id18078606">
            <polyline points="360.0,280.0 360.0,60.0 "
                stroke-width="2.0" stroke="#ff3333"
                stroke-dasharray="8.819444444444445, 5.291666666666667" latexdraw:rotationAngle="0.0"/>
        </g>
        <g latexdraw:type="dot" id="id25456469" latexdraw:size="10.0"
            latexdraw:dotShape="*" latexdraw:position="340.0 100.0">
            <path
                d="M 344.6153846153846 100.0 C 344.6153846153846 102.54900653768058 342.54900653768055 104.61538461538461 340.0 104.61538461538461 C 337.4509934623194 104.61538461538461 335.38461538461536 102.54900653768058 335.38461538461536 100.0 C 335.38461538461536 97.45099346231942 337.4509934623194 95.38461538461539 340.0 95.38461538461539 C 342.54900653768055 95.38461538461539 344.6153846153846 97.45099346231942 344.6153846153846 100.0 z "
                fill="black" stroke-linecap="square"
                stroke-linejoin="butt" stroke-width="0.625"
                stroke-miterlimit="10.0" stroke-dashoffset="0.0" stroke="black"/>
        </g>
        <g latexdraw:type="dot" id="id16613831" latexdraw:size="10.0"
            latexdraw:dotShape="*" latexdraw:position="340.0 200.0">
            <path
                d="M 344.6153846153846 200.0 C 344.6153846153846 202.54900653768058 342.54900653768055 204.6153846153846 340.0 204.6153846153846 C 337.4509934623194 204.6153846153846 335.38461538461536 202.54900653768058 335.38461538461536 200.0 C 335.38461538461536 197.45099346231942 337.4509934623194 195.3846153846154 340.0 195.3846153846154 C 342.54900653768055 195.3846153846154 344.6153846153846 197.45099346231942 344.6153846153846 200.0 z "
                fill="black" stroke-linecap="square"
                stroke-linejoin="butt" stroke-width="0.625"
                stroke-miterlimit="10.0" stroke-dashoffset="0.0" stroke="black"/>
        </g>
        <g latexdraw:type="dot" id="id29869324" latexdraw:size="10.0"
            latexdraw:dotShape="*" latexdraw:position="280.0 240.0">
            <path
                d="M 284.6153846153846 240.0 C 284.6153846153846 242.54900653768058 282.54900653768055 244.6153846153846 280.0 244.6153846153846 C 277.4509934623194 244.6153846153846 275.38461538461536 242.54900653768058 275.38461538461536 240.0 C 275.38461538461536 237.45099346231942 277.4509934623194 235.3846153846154 280.0 235.3846153846154 C 282.54900653768055 235.3846153846154 284.6153846153846 237.45099346231942 284.6153846153846 240.0 z "
                fill="black" stroke-linecap="square"
                stroke-linejoin="butt" stroke-width="0.625"
                stroke-miterlimit="10.0" stroke-dashoffset="0.0" stroke="black"/>
        </g>
        <g latexdraw:type="dot" id="id18400135" latexdraw:size="10.0"
            latexdraw:dotShape="*" latexdraw:position="340.0 300.0">
            <path
                d="M 344.6153846153846 300.0 C 344.6153846153846 302.54900653768055 342.54900653768055 304.6153846153846 340.0 304.6153846153846 C 337.4509934623194 304.6153846153846 335.38461538461536 302.54900653768055 335.38461538461536 300.0 C 335.38461538461536 297.4509934623194 337.4509934623194 295.38461538461536 340.0 295.38461538461536 C 342.54900653768055 295.38461538461536 344.6153846153846 297.4509934623194 344.6153846153846 300.0 z "
                fill="black" stroke-linecap="square"
                stroke-linejoin="butt" stroke-width="0.625"
                stroke-miterlimit="10.0" stroke-dashoffset="0.0" stroke="black"/>
        </g>
        <g latexdraw:type="dot" id="id15929917" latexdraw:size="10.0"
            latexdraw:dotShape="*" latexdraw:position="400.0 360.0">
            <path
                d="M 404.6153846153846 360.0 C 404.6153846153846 362.54900653768055 402.54900653768055 364.6153846153846 400.0 364.6153846153846 C 397.4509934623194 364.6153846153846 395.38461538461536 362.54900653768055 395.38461538461536 360.0 C 395.38461538461536 357.4509934623194 397.4509934623194 355.38461538461536 400.0 355.38461538461536 C 402.54900653768055 355.38461538461536 404.6153846153846 357.4509934623194 404.6153846153846 360.0 z "
                fill="black" stroke-linecap="square"
                stroke-linejoin="butt" stroke-width="0.625"
                stroke-miterlimit="10.0" stroke-dashoffset="0.0" stroke="black"/>
        </g>
        <g latexdraw:type="dot" id="id19702394" latexdraw:size="10.0"
            latexdraw:dotShape="*" latexdraw:position="220.0 300.0">
            <path
                d="M 224.6153846153846 300.0 C 224.6153846153846 302.54900653768055 222.54900653768058 304.6153846153846 220.0 304.6153846153846 C 217.45099346231942 304.6153846153846 215.3846153846154 302.54900653768055 215.3846153846154 300.0 C 215.3846153846154 297.4509934623194 217.45099346231942 295.38461538461536 220.0 295.38461538461536 C 222.54900653768058 295.38461538461536 224.6153846153846 297.4509934623194 224.6153846153846 300.0 z "
                fill="black" stroke-linecap="square"
                stroke-linejoin="butt" stroke-width="0.625"
                stroke-miterlimit="10.0" stroke-dashoffset="0.0" stroke="black"/>
        </g>
        <g latexdraw:type="dot" id="id26442287" latexdraw:size="10.0"
            latexdraw:dotShape="*" latexdraw:position="220.0 180.0">
            <path
                d="M 224.6153846153846 180.0 C 224.6153846153846 182.54900653768058 222.54900653768058 184.6153846153846 220.0 184.6153846153846 C 217.45099346231942 184.6153846153846 215.3846153846154 182.54900653768058 215.3846153846154 180.0 C 215.3846153846154 177.45099346231942 217.45099346231942 175.3846153846154 220.0 175.3846153846154 C 222.54900653768058 175.3846153846154 224.6153846153846 177.45099346231942 224.6153846153846 180.0 z "
                fill="black" stroke-linecap="square"
                stroke-linejoin="butt" stroke-width="0.625"
                stroke-miterlimit="10.0" stroke-dashoffset="0.0" stroke="black"/>
        </g>
        <g latexdraw:type="dot" id="id32862198" latexdraw:size="10.0"
            latexdraw:dotShape="*" latexdraw:position="140.0 240.0">
            <path
                d="M 144.6153846153846 240.0 C 144.6153846153846 242.54900653768058 142.54900653768058 244.6153846153846 140.0 244.6153846153846 C 137.45099346231942 244.6153846153846 135.3846153846154 242.54900653768058 135.3846153846154 240.0 C 135.3846153846154 237.45099346231942 137.45099346231942 235.3846153846154 140.0 235.3846153846154 C 142.54900653768058 235.3846153846154 144.6153846153846 237.45099346231942 144.6153846153846 240.0 z "
                fill="black" stroke-linecap="square"
                stroke-linejoin="butt" stroke-width="0.625"
                stroke-miterlimit="10.0" stroke-dashoffset="0.0" stroke="black"/>
        </g>
        <g latexdraw:type="joinedLines" id="id9569420">
            <polyline
                points="238.0,280.0 321.0,279.0 320.0,228.0 278.0,253.0 265.0,235.0 318.0,199.0 319.0,129.0 240.0,180.0 239.0,280.0 "
                stroke-width="2.0" stroke="#ff3333" fill="none"
                stroke-dasharray="8.819444444444445, 5.291666666666667" latexdraw:rotationAngle="0.0"/>
        </g>
        <g latexdraw:type="joinedLines" id="id25875854">
            <polyline
                points="159.0,238.0 210.0,200.0 209.0,278.0 160.0,238.0 "
                stroke-width="2.0" stroke="#ff3333" fill="none"
                stroke-dasharray="8.819444444444445, 5.291666666666667" latexdraw:rotationAngle="0.0"/>
        </g>
        <g latexdraw:type="text" id="id28612113" fill="#ff3333" latexdraw:position="bl">
            <text x="389.0" y="192.0">$f_3$</text>
        </g>
        <g latexdraw:type="text" id="id26273002" fill="#ff3333" latexdraw:position="bl">
            <text x="274.0" y="200.0">$f_2$</text>
        </g>
        <g latexdraw:type="text" id="id17129626" fill="#ff3333" latexdraw:position="bl">
            <text x="188.0" y="238.0">$f_1$</text>
        </g>
    </g>
    <defs/>
    <metadata>
        <latexdraw:metadata>
            <latexdraw:latexIncludes>\usepackage{amssymb}</latexdraw:latexIncludes>
            <latexdraw:displayXScale>true</latexdraw:displayXScale>
            <latexdraw:displayYScale>true</latexdraw:displayYScale>
            <latexdraw:unit>CM</latexdraw:unit>
            <latexdraw:zoom>1.0</latexdraw:zoom>
            <latexdraw:magneticGridStyle>CUSTOMISED</latexdraw:magneticGridStyle>
            <latexdraw:gridGap>20</latexdraw:gridGap>
            <latexdraw:magneticGrid>false</latexdraw:magneticGrid>
            <latexdraw:version>3.3.8</latexdraw:version>
            <latexdraw:size>
                <latexdraw:width>1034</latexdraw:width>
                <latexdraw:height>827</latexdraw:height>
            </latexdraw:size>
            <latexdraw:position>
                <latexdraw:x>263.0</latexdraw:x>
                <latexdraw:y>135.0</latexdraw:y>
            </latexdraw:position>
        </latexdraw:metadata>
    </metadata>
</svg>
