<?xml version="1.1" encoding="windows-1252"?>
<svg xmlns="http://www.w3.org/2000/svg"
    xmlns:latexdraw="http://latexdraw.sourceforge.net/namespaces/latexdraw"
    version="1.1" baseProfile="full">
    <g>
        <g latexdraw:type="joinedLines" id="id23541079">
            <polyline points="140.0,60.0 140.0,180.0 "
                stroke-width="2.0" stroke="#00cc00" latexdraw:rotationAngle="0.0"/>
        </g>
        <g latexdraw:type="joinedLines" id="id15474988">
            <polyline points="220.0,60.0 220.0,180.0 "
                stroke-width="2.0" stroke="#00cc00" latexdraw:rotationAngle="0.0"/>
        </g>
        <g latexdraw:type="joinedLines" id="id1979071">
            <polyline points="220.0,180.0 460.0,60.0 "
                stroke-width="2.0" stroke="black" latexdraw:rotationAngle="0.0"/>
        </g>
        <g latexdraw:type="joinedLines" id="id23442623">
            <polyline points="460.0,60.0 460.0,180.0 "
                stroke-width="2.0" stroke="#00cc00" latexdraw:rotationAngle="0.0"/>
        </g>
        <g latexdraw:type="joinedLines" id="id2555700">
            <polyline points="460.0,60.0 520.0,180.0 "
                stroke-width="2.0" stroke="black" latexdraw:rotationAngle="0.0"/>
        </g>
        <g latexdraw:type="joinedLines" id="id439216">
            <polyline points="460.0,60.0 580.0,180.0 "
                stroke-width="2.0" stroke="black" latexdraw:rotationAngle="0.0"/>
        </g>
        <g latexdraw:type="joinedLines" id="id25793471">
            <polyline points="520.0,180.0 520.0,60.0 "
                stroke-width="2.0" stroke="#00cc00" latexdraw:rotationAngle="0.0"/>
        </g>
        <g latexdraw:type="joinedLines" id="id23544529">
            <polyline points="580.0,180.0 580.0,60.0 "
                stroke-width="2.0" stroke="#00cc00" latexdraw:rotationAngle="0.0"/>
        </g>
        <g latexdraw:type="joinedLines" id="id20536176">
            <polyline points="520.0,60.0 720.0,180.0 "
                stroke-width="2.0" stroke="black" latexdraw:rotationAngle="0.0"/>
        </g>
        <g latexdraw:type="joinedLines" id="id3397414">
            <polyline points="580.0,60.0 780.0,180.0 "
                stroke-width="2.0" stroke="black" latexdraw:rotationAngle="0.0"/>
        </g>
        <g latexdraw:type="joinedLines" id="id25906635">
            <polyline points="140.0,180.0 740.0,60.0 "
                stroke-width="2.0" stroke="black" latexdraw:rotationAngle="0.0"/>
        </g>
        <g latexdraw:type="joinedLines" id="id22358332">
            <polyline points="220.0,180.0 900.0,60.0 "
                stroke-width="2.0" stroke="black" latexdraw:rotationAngle="0.0"/>
        </g>
        <g latexdraw:type="joinedLines" id="id31375275">
            <polyline points="140.0,180.0 820.0,60.0 "
                stroke-width="2.0" stroke="black" latexdraw:rotationAngle="0.0"/>
        </g>
        <g latexdraw:type="dot" id="id10688855" latexdraw:size="10.0"
            latexdraw:dotShape="*" latexdraw:position="140.0 60.0">
            <path
                d="M 144.6153846153846 60.0 C 144.6153846153846 62.54900653768058 142.54900653768058 64.61538461538461 140.0 64.61538461538461 C 137.45099346231942 64.61538461538461 135.3846153846154 62.54900653768058 135.3846153846154 60.0 C 135.3846153846154 57.45099346231942 137.45099346231942 55.38461538461539 140.0 55.38461538461539 C 142.54900653768058 55.38461538461539 144.6153846153846 57.45099346231942 144.6153846153846 60.0 z "
                fill="black" stroke-linecap="square"
                stroke-linejoin="butt" stroke-width="0.625"
                stroke-miterlimit="10.0" stroke-dashoffset="0.0" stroke="black"/>
        </g>
        <g latexdraw:type="dot" id="id14592382" latexdraw:size="10.0"
            latexdraw:dotShape="*" latexdraw:position="220.0 60.0">
            <path
                d="M 224.6153846153846 60.0 C 224.6153846153846 62.54900653768058 222.54900653768058 64.61538461538461 220.0 64.61538461538461 C 217.45099346231942 64.61538461538461 215.3846153846154 62.54900653768058 215.3846153846154 60.0 C 215.3846153846154 57.45099346231942 217.45099346231942 55.38461538461539 220.0 55.38461538461539 C 222.54900653768058 55.38461538461539 224.6153846153846 57.45099346231942 224.6153846153846 60.0 z "
                fill="black" stroke-linecap="square"
                stroke-linejoin="butt" stroke-width="0.625"
                stroke-miterlimit="10.0" stroke-dashoffset="0.0" stroke="black"/>
        </g>
        <g latexdraw:type="dot" id="id20775326" latexdraw:size="10.0"
            latexdraw:dotShape="*" latexdraw:position="140.0 180.0">
            <path
                d="M 144.6153846153846 180.0 C 144.6153846153846 182.54900653768058 142.54900653768058 184.6153846153846 140.0 184.6153846153846 C 137.45099346231942 184.6153846153846 135.3846153846154 182.54900653768058 135.3846153846154 180.0 C 135.3846153846154 177.45099346231942 137.45099346231942 175.3846153846154 140.0 175.3846153846154 C 142.54900653768058 175.3846153846154 144.6153846153846 177.45099346231942 144.6153846153846 180.0 z "
                fill="black" stroke-linecap="square"
                stroke-linejoin="butt" stroke-width="0.625"
                stroke-miterlimit="10.0" stroke-dashoffset="0.0" stroke="black"/>
        </g>
        <g latexdraw:type="dot" id="id22763078" latexdraw:size="10.0"
            latexdraw:dotShape="*" latexdraw:position="220.0 180.0">
            <path
                d="M 224.6153846153846 180.0 C 224.6153846153846 182.54900653768058 222.54900653768058 184.6153846153846 220.0 184.6153846153846 C 217.45099346231942 184.6153846153846 215.3846153846154 182.54900653768058 215.3846153846154 180.0 C 215.3846153846154 177.45099346231942 217.45099346231942 175.3846153846154 220.0 175.3846153846154 C 222.54900653768058 175.3846153846154 224.6153846153846 177.45099346231942 224.6153846153846 180.0 z "
                fill="black" stroke-linecap="square"
                stroke-linejoin="butt" stroke-width="0.625"
                stroke-miterlimit="10.0" stroke-dashoffset="0.0" stroke="black"/>
        </g>
        <g latexdraw:type="dot" id="id5478757" latexdraw:size="10.0"
            latexdraw:dotShape="*" latexdraw:position="460.0 60.0">
            <path
                d="M 464.6153846153846 60.0 C 464.6153846153846 62.54900653768058 462.54900653768055 64.61538461538461 460.0 64.61538461538461 C 457.4509934623194 64.61538461538461 455.38461538461536 62.54900653768058 455.38461538461536 60.0 C 455.38461538461536 57.45099346231942 457.4509934623194 55.38461538461539 460.0 55.38461538461539 C 462.54900653768055 55.38461538461539 464.6153846153846 57.45099346231942 464.6153846153846 60.0 z "
                fill="black" stroke-linecap="square"
                stroke-linejoin="butt" stroke-width="0.625"
                stroke-miterlimit="10.0" stroke-dashoffset="0.0" stroke="black"/>
        </g>
        <g latexdraw:type="dot" id="id23954230" latexdraw:size="10.0"
            latexdraw:dotShape="*" latexdraw:position="460.0 180.0">
            <path
                d="M 464.6153846153846 180.0 C 464.6153846153846 182.54900653768058 462.54900653768055 184.6153846153846 460.0 184.6153846153846 C 457.4509934623194 184.6153846153846 455.38461538461536 182.54900653768058 455.38461538461536 180.0 C 455.38461538461536 177.45099346231942 457.4509934623194 175.3846153846154 460.0 175.3846153846154 C 462.54900653768055 175.3846153846154 464.6153846153846 177.45099346231942 464.6153846153846 180.0 z "
                fill="black" stroke-linecap="square"
                stroke-linejoin="butt" stroke-width="0.625"
                stroke-miterlimit="10.0" stroke-dashoffset="0.0" stroke="black"/>
        </g>
        <g latexdraw:type="dot" id="id16161862" latexdraw:size="10.0"
            latexdraw:dotShape="*" latexdraw:position="520.0 60.0">
            <path
                d="M 524.6153846153846 60.0 C 524.6153846153846 62.54900653768058 522.5490065376806 64.61538461538461 520.0 64.61538461538461 C 517.4509934623194 64.61538461538461 515.3846153846154 62.54900653768058 515.3846153846154 60.0 C 515.3846153846154 57.45099346231942 517.4509934623194 55.38461538461539 520.0 55.38461538461539 C 522.5490065376806 55.38461538461539 524.6153846153846 57.45099346231942 524.6153846153846 60.0 z "
                fill="black" stroke-linecap="square"
                stroke-linejoin="butt" stroke-width="0.625"
                stroke-miterlimit="10.0" stroke-dashoffset="0.0" stroke="black"/>
        </g>
        <g latexdraw:type="dot" id="id22307246" latexdraw:size="10.0"
            latexdraw:dotShape="*" latexdraw:position="520.0 180.0">
            <path
                d="M 524.6153846153846 180.0 C 524.6153846153846 182.54900653768058 522.5490065376806 184.6153846153846 520.0 184.6153846153846 C 517.4509934623194 184.6153846153846 515.3846153846154 182.54900653768058 515.3846153846154 180.0 C 515.3846153846154 177.45099346231942 517.4509934623194 175.3846153846154 520.0 175.3846153846154 C 522.5490065376806 175.3846153846154 524.6153846153846 177.45099346231942 524.6153846153846 180.0 z "
                fill="black" stroke-linecap="square"
                stroke-linejoin="butt" stroke-width="0.625"
                stroke-miterlimit="10.0" stroke-dashoffset="0.0" stroke="black"/>
        </g>
        <g latexdraw:type="dot" id="id8634576" latexdraw:size="10.0"
            latexdraw:dotShape="*" latexdraw:position="580.0 60.0">
            <path
                d="M 584.6153846153846 60.0 C 584.6153846153846 62.54900653768058 582.5490065376806 64.61538461538461 580.0 64.61538461538461 C 577.4509934623194 64.61538461538461 575.3846153846154 62.54900653768058 575.3846153846154 60.0 C 575.3846153846154 57.45099346231942 577.4509934623194 55.38461538461539 580.0 55.38461538461539 C 582.5490065376806 55.38461538461539 584.6153846153846 57.45099346231942 584.6153846153846 60.0 z "
                fill="black" stroke-linecap="square"
                stroke-linejoin="butt" stroke-width="0.625"
                stroke-miterlimit="10.0" stroke-dashoffset="0.0" stroke="black"/>
        </g>
        <g latexdraw:type="dot" id="id16904057" latexdraw:size="10.0"
            latexdraw:dotShape="*" latexdraw:position="580.0 180.0">
            <path
                d="M 584.6153846153846 180.0 C 584.6153846153846 182.54900653768058 582.5490065376806 184.6153846153846 580.0 184.6153846153846 C 577.4509934623194 184.6153846153846 575.3846153846154 182.54900653768058 575.3846153846154 180.0 C 575.3846153846154 177.45099346231942 577.4509934623194 175.3846153846154 580.0 175.3846153846154 C 582.5490065376806 175.3846153846154 584.6153846153846 177.45099346231942 584.6153846153846 180.0 z "
                fill="black" stroke-linecap="square"
                stroke-linejoin="butt" stroke-width="0.625"
                stroke-miterlimit="10.0" stroke-dashoffset="0.0" stroke="black"/>
        </g>
        <g latexdraw:type="dot" id="id6226761" latexdraw:size="10.0"
            latexdraw:dotShape="*" latexdraw:position="720.0 180.0">
            <path
                d="M 724.6153846153846 180.0 C 724.6153846153846 182.54900653768058 722.5490065376806 184.6153846153846 720.0 184.6153846153846 C 717.4509934623194 184.6153846153846 715.3846153846154 182.54900653768058 715.3846153846154 180.0 C 715.3846153846154 177.45099346231942 717.4509934623194 175.3846153846154 720.0 175.3846153846154 C 722.5490065376806 175.3846153846154 724.6153846153846 177.45099346231942 724.6153846153846 180.0 z "
                fill="black" stroke-linecap="square"
                stroke-linejoin="butt" stroke-width="0.625"
                stroke-miterlimit="10.0" stroke-dashoffset="0.0" stroke="black"/>
        </g>
        <g latexdraw:type="dot" id="id138488" latexdraw:size="10.0"
            latexdraw:dotShape="*" latexdraw:position="780.0 180.0">
            <path
                d="M 784.6153846153846 180.0 C 784.6153846153846 182.54900653768058 782.5490065376806 184.6153846153846 780.0 184.6153846153846 C 777.4509934623194 184.6153846153846 775.3846153846154 182.54900653768058 775.3846153846154 180.0 C 775.3846153846154 177.45099346231942 777.4509934623194 175.3846153846154 780.0 175.3846153846154 C 782.5490065376806 175.3846153846154 784.6153846153846 177.45099346231942 784.6153846153846 180.0 z "
                fill="black" stroke-linecap="square"
                stroke-linejoin="butt" stroke-width="0.625"
                stroke-miterlimit="10.0" stroke-dashoffset="0.0" stroke="black"/>
        </g>
        <g latexdraw:type="dot" id="id14884013" latexdraw:size="10.0"
            latexdraw:dotShape="*" latexdraw:position="740.0 60.0">
            <path
                d="M 744.6153846153846 60.0 C 744.6153846153846 62.54900653768058 742.5490065376806 64.61538461538461 740.0 64.61538461538461 C 737.4509934623194 64.61538461538461 735.3846153846154 62.54900653768058 735.3846153846154 60.0 C 735.3846153846154 57.45099346231942 737.4509934623194 55.38461538461539 740.0 55.38461538461539 C 742.5490065376806 55.38461538461539 744.6153846153846 57.45099346231942 744.6153846153846 60.0 z "
                fill="black" stroke-linecap="square"
                stroke-linejoin="butt" stroke-width="0.625"
                stroke-miterlimit="10.0" stroke-dashoffset="0.0" stroke="black"/>
        </g>
        <g latexdraw:type="dot" id="id9550273" latexdraw:size="10.0"
            latexdraw:dotShape="*" latexdraw:position="820.0 60.0">
            <path
                d="M 824.6153846153846 60.0 C 824.6153846153846 62.54900653768058 822.5490065376806 64.61538461538461 820.0 64.61538461538461 C 817.4509934623194 64.61538461538461 815.3846153846154 62.54900653768058 815.3846153846154 60.0 C 815.3846153846154 57.45099346231942 817.4509934623194 55.38461538461539 820.0 55.38461538461539 C 822.5490065376806 55.38461538461539 824.6153846153846 57.45099346231942 824.6153846153846 60.0 z "
                fill="black" stroke-linecap="square"
                stroke-linejoin="butt" stroke-width="0.625"
                stroke-miterlimit="10.0" stroke-dashoffset="0.0" stroke="black"/>
        </g>
        <g latexdraw:type="dot" id="id14077490" latexdraw:size="10.0"
            latexdraw:dotShape="*" latexdraw:position="900.0 60.0">
            <path
                d="M 904.6153846153846 60.0 C 904.6153846153846 62.54900653768058 902.5490065376806 64.61538461538461 900.0 64.61538461538461 C 897.4509934623194 64.61538461538461 895.3846153846154 62.54900653768058 895.3846153846154 60.0 C 895.3846153846154 57.45099346231942 897.4509934623194 55.38461538461539 900.0 55.38461538461539 C 902.5490065376806 55.38461538461539 904.6153846153846 57.45099346231942 904.6153846153846 60.0 z "
                fill="black" stroke-linecap="square"
                stroke-linejoin="butt" stroke-width="0.625"
                stroke-miterlimit="10.0" stroke-dashoffset="0.0" stroke="black"/>
        </g>
        <g latexdraw:type="text" id="id641470" fill="black" latexdraw:position="bl">
            <text x="160.0" y="40.0">$V_3$</text>
        </g>
        <g latexdraw:type="text" id="id14984190" fill="black" latexdraw:position="bl">
            <text x="180.0" y="220.0">$U_3$</text>
        </g>
        <g latexdraw:type="text" id="id31994412" fill="black" latexdraw:position="bl">
            <text x="520.0" y="220.0">$U_2$</text>
        </g>
        <g latexdraw:type="text" id="id12198717" fill="black" latexdraw:position="bl">
            <text x="520.0" y="40.0">$V_2$</text>
        </g>
        <g latexdraw:type="text" id="id9652891" fill="black" latexdraw:position="bl">
            <text x="820.0" y="40.0">$V_1$</text>
        </g>
        <g latexdraw:type="text" id="id11918235" fill="black" latexdraw:position="bl">
            <text x="740.0" y="220.0">$U_1$</text>
        </g>
    </g>
    <defs/>
    <metadata>
        <latexdraw:metadata>
            <latexdraw:latexIncludes>\usepackage{amssymb}</latexdraw:latexIncludes>
            <latexdraw:displayXScale>true</latexdraw:displayXScale>
            <latexdraw:displayYScale>true</latexdraw:displayYScale>
            <latexdraw:unit>CM</latexdraw:unit>
            <latexdraw:zoom>1.0</latexdraw:zoom>
            <latexdraw:magneticGridStyle>CUSTOMISED</latexdraw:magneticGridStyle>
            <latexdraw:gridGap>20</latexdraw:gridGap>
            <latexdraw:magneticGrid>true</latexdraw:magneticGrid>
            <latexdraw:version>3.3.8</latexdraw:version>
            <latexdraw:size>
                <latexdraw:width>1034</latexdraw:width>
                <latexdraw:height>827</latexdraw:height>
            </latexdraw:size>
            <latexdraw:position>
                <latexdraw:x>263.0</latexdraw:x>
                <latexdraw:y>135.0</latexdraw:y>
            </latexdraw:position>
        </latexdraw:metadata>
    </metadata>
</svg>
