<?xml version="1.1" encoding="windows-1252"?>
<svg xmlns="http://www.w3.org/2000/svg"
    xmlns:latexdraw="http://latexdraw.sourceforge.net/namespaces/latexdraw"
    version="1.1" baseProfile="full">
    <g>
        <g latexdraw:type="joinedLines" id="id10568954">
            <polyline
                points="60.0,60.0 60.0,120.0 120.0,120.0 180.0,120.0 240.0,60.0 240.0,60.0 "
                stroke-width="2.0" stroke="black" fill="none" latexdraw:rotationAngle="0.0"/>
        </g>
        <g latexdraw:type="joinedLines" id="id28265460">
            <polyline points="180.0,120.0 240.0,180.0 "
                stroke-width="2.0" stroke="black" latexdraw:rotationAngle="0.0"/>
        </g>
        <g latexdraw:type="joinedLines" id="id6870470">
            <polyline points="120.0,120.0 120.0,180.0 "
                stroke-width="2.0" stroke="black" latexdraw:rotationAngle="0.0"/>
        </g>
        <g latexdraw:type="dot" id="id13084350" latexdraw:size="10.0"
            latexdraw:dotShape="*" latexdraw:position="60.0 60.0">
            <path
                d="M 64.61538461538461 60.0 C 64.61538461538461 62.54900653768058 62.54900653768058 64.61538461538461 60.0 64.61538461538461 C 57.45099346231942 64.61538461538461 55.38461538461539 62.54900653768058 55.38461538461539 60.0 C 55.38461538461539 57.45099346231942 57.45099346231942 55.38461538461539 60.0 55.38461538461539 C 62.54900653768058 55.38461538461539 64.61538461538461 57.45099346231942 64.61538461538461 60.0 z "
                fill="black" stroke-linecap="square"
                stroke-linejoin="butt" stroke-width="0.625"
                stroke-miterlimit="10.0" stroke-dashoffset="0.0" stroke="black"/>
        </g>
        <g latexdraw:type="dot" id="id21079845" latexdraw:size="10.0"
            latexdraw:dotShape="*" latexdraw:position="60.0 120.0">
            <path
                d="M 64.61538461538461 120.0 C 64.61538461538461 122.54900653768058 62.54900653768058 124.61538461538461 60.0 124.61538461538461 C 57.45099346231942 124.61538461538461 55.38461538461539 122.54900653768058 55.38461538461539 120.0 C 55.38461538461539 117.45099346231942 57.45099346231942 115.38461538461539 60.0 115.38461538461539 C 62.54900653768058 115.38461538461539 64.61538461538461 117.45099346231942 64.61538461538461 120.0 z "
                fill="black" stroke-linecap="square"
                stroke-linejoin="butt" stroke-width="0.625"
                stroke-miterlimit="10.0" stroke-dashoffset="0.0" stroke="black"/>
        </g>
        <g latexdraw:type="dot" id="id10486362" latexdraw:size="10.0"
            latexdraw:dotShape="*" latexdraw:position="120.0 120.0">
            <path
                d="M 124.61538461538461 120.0 C 124.61538461538461 122.54900653768058 122.54900653768058 124.61538461538461 120.0 124.61538461538461 C 117.45099346231942 124.61538461538461 115.38461538461539 122.54900653768058 115.38461538461539 120.0 C 115.38461538461539 117.45099346231942 117.45099346231942 115.38461538461539 120.0 115.38461538461539 C 122.54900653768058 115.38461538461539 124.61538461538461 117.45099346231942 124.61538461538461 120.0 z "
                fill="black" stroke-linecap="square"
                stroke-linejoin="butt" stroke-width="0.625"
                stroke-miterlimit="10.0" stroke-dashoffset="0.0" stroke="black"/>
        </g>
        <g latexdraw:type="dot" id="id15985934" latexdraw:size="10.0"
            latexdraw:dotShape="*" latexdraw:position="120.0 180.0">
            <path
                d="M 124.61538461538461 180.0 C 124.61538461538461 182.54900653768058 122.54900653768058 184.6153846153846 120.0 184.6153846153846 C 117.45099346231942 184.6153846153846 115.38461538461539 182.54900653768058 115.38461538461539 180.0 C 115.38461538461539 177.45099346231942 117.45099346231942 175.3846153846154 120.0 175.3846153846154 C 122.54900653768058 175.3846153846154 124.61538461538461 177.45099346231942 124.61538461538461 180.0 z "
                fill="black" stroke-linecap="square"
                stroke-linejoin="butt" stroke-width="0.625"
                stroke-miterlimit="10.0" stroke-dashoffset="0.0" stroke="black"/>
        </g>
        <g latexdraw:type="dot" id="id32523355" latexdraw:size="10.0"
            latexdraw:dotShape="*" latexdraw:position="180.0 120.0">
            <path
                d="M 184.6153846153846 120.0 C 184.6153846153846 122.54900653768058 182.54900653768058 124.61538461538461 180.0 124.61538461538461 C 177.45099346231942 124.61538461538461 175.3846153846154 122.54900653768058 175.3846153846154 120.0 C 175.3846153846154 117.45099346231942 177.45099346231942 115.38461538461539 180.0 115.38461538461539 C 182.54900653768058 115.38461538461539 184.6153846153846 117.45099346231942 184.6153846153846 120.0 z "
                fill="black" stroke-linecap="square"
                stroke-linejoin="butt" stroke-width="0.625"
                stroke-miterlimit="10.0" stroke-dashoffset="0.0" stroke="black"/>
        </g>
        <g latexdraw:type="dot" id="id13532820" latexdraw:size="10.0"
            latexdraw:dotShape="*" latexdraw:position="240.0 60.0">
            <path
                d="M 244.6153846153846 60.0 C 244.6153846153846 62.54900653768058 242.54900653768058 64.61538461538461 240.0 64.61538461538461 C 237.45099346231942 64.61538461538461 235.3846153846154 62.54900653768058 235.3846153846154 60.0 C 235.3846153846154 57.45099346231942 237.45099346231942 55.38461538461539 240.0 55.38461538461539 C 242.54900653768058 55.38461538461539 244.6153846153846 57.45099346231942 244.6153846153846 60.0 z "
                fill="black" stroke-linecap="square"
                stroke-linejoin="butt" stroke-width="0.625"
                stroke-miterlimit="10.0" stroke-dashoffset="0.0" stroke="black"/>
        </g>
        <g latexdraw:type="dot" id="id16955571" latexdraw:size="10.0"
            latexdraw:dotShape="*" latexdraw:position="240.0 180.0">
            <path
                d="M 244.6153846153846 180.0 C 244.6153846153846 182.54900653768058 242.54900653768058 184.6153846153846 240.0 184.6153846153846 C 237.45099346231942 184.6153846153846 235.3846153846154 182.54900653768058 235.3846153846154 180.0 C 235.3846153846154 177.45099346231942 237.45099346231942 175.3846153846154 240.0 175.3846153846154 C 242.54900653768058 175.3846153846154 244.6153846153846 177.45099346231942 244.6153846153846 180.0 z "
                fill="black" stroke-linecap="square"
                stroke-linejoin="butt" stroke-width="0.625"
                stroke-miterlimit="10.0" stroke-dashoffset="0.0" stroke="black"/>
        </g>
        <g latexdraw:type="joinedLines" id="id24839155">
            <polyline
                points="340.0,120.0 400.0,120.0 460.0,120.0 520.0,60.0 "
                stroke-width="2.0" stroke="black" fill="none" latexdraw:rotationAngle="0.0"/>
        </g>
        <g latexdraw:type="joinedLines" id="id8035767">
            <polyline points="460.0,120.0 520.0,180.0 "
                stroke-width="2.0" stroke="black" latexdraw:rotationAngle="0.0"/>
        </g>
        <g latexdraw:type="joinedLines" id="id9919627">
            <polyline points="400.0,120.0 400.0,180.0 "
                stroke-width="2.0" stroke="black" latexdraw:rotationAngle="0.0"/>
        </g>
        <g latexdraw:type="dot" id="id31168136" latexdraw:size="10.0"
            latexdraw:dotShape="*" latexdraw:position="340.0 120.0">
            <path
                d="M 344.6153846153846 120.0 C 344.6153846153846 122.54900653768058 342.54900653768055 124.61538461538461 340.0 124.61538461538461 C 337.4509934623194 124.61538461538461 335.38461538461536 122.54900653768058 335.38461538461536 120.0 C 335.38461538461536 117.45099346231942 337.4509934623194 115.38461538461539 340.0 115.38461538461539 C 342.54900653768055 115.38461538461539 344.6153846153846 117.45099346231942 344.6153846153846 120.0 z "
                fill="black" stroke-linecap="square"
                stroke-linejoin="butt" stroke-width="0.625"
                stroke-miterlimit="10.0" stroke-dashoffset="0.0" stroke="black"/>
        </g>
        <g latexdraw:type="dot" id="id10693581" latexdraw:size="10.0"
            latexdraw:dotShape="*" latexdraw:position="400.0 120.0">
            <path
                d="M 404.6153846153846 120.0 C 404.6153846153846 122.54900653768058 402.54900653768055 124.61538461538461 400.0 124.61538461538461 C 397.4509934623194 124.61538461538461 395.38461538461536 122.54900653768058 395.38461538461536 120.0 C 395.38461538461536 117.45099346231942 397.4509934623194 115.38461538461539 400.0 115.38461538461539 C 402.54900653768055 115.38461538461539 404.6153846153846 117.45099346231942 404.6153846153846 120.0 z "
                fill="black" stroke-linecap="square"
                stroke-linejoin="butt" stroke-width="0.625"
                stroke-miterlimit="10.0" stroke-dashoffset="0.0" stroke="black"/>
        </g>
        <g latexdraw:type="dot" id="id27693814" latexdraw:size="10.0"
            latexdraw:dotShape="*" latexdraw:position="400.0 180.0">
            <path
                d="M 404.6153846153846 180.0 C 404.6153846153846 182.54900653768058 402.54900653768055 184.6153846153846 400.0 184.6153846153846 C 397.4509934623194 184.6153846153846 395.38461538461536 182.54900653768058 395.38461538461536 180.0 C 395.38461538461536 177.45099346231942 397.4509934623194 175.3846153846154 400.0 175.3846153846154 C 402.54900653768055 175.3846153846154 404.6153846153846 177.45099346231942 404.6153846153846 180.0 z "
                fill="black" stroke-linecap="square"
                stroke-linejoin="butt" stroke-width="0.625"
                stroke-miterlimit="10.0" stroke-dashoffset="0.0" stroke="black"/>
        </g>
        <g latexdraw:type="dot" id="id4952189" latexdraw:size="10.0"
            latexdraw:dotShape="*" latexdraw:position="460.0 120.0">
            <path
                d="M 464.6153846153846 120.0 C 464.6153846153846 122.54900653768058 462.54900653768055 124.61538461538461 460.0 124.61538461538461 C 457.4509934623194 124.61538461538461 455.38461538461536 122.54900653768058 455.38461538461536 120.0 C 455.38461538461536 117.45099346231942 457.4509934623194 115.38461538461539 460.0 115.38461538461539 C 462.54900653768055 115.38461538461539 464.6153846153846 117.45099346231942 464.6153846153846 120.0 z "
                fill="black" stroke-linecap="square"
                stroke-linejoin="butt" stroke-width="0.625"
                stroke-miterlimit="10.0" stroke-dashoffset="0.0" stroke="black"/>
        </g>
        <g latexdraw:type="dot" id="id10216937" latexdraw:size="10.0"
            latexdraw:dotShape="*" latexdraw:position="520.0 60.0">
            <path
                d="M 524.6153846153846 60.0 C 524.6153846153846 62.54900653768058 522.5490065376806 64.61538461538461 520.0 64.61538461538461 C 517.4509934623194 64.61538461538461 515.3846153846154 62.54900653768058 515.3846153846154 60.0 C 515.3846153846154 57.45099346231942 517.4509934623194 55.38461538461539 520.0 55.38461538461539 C 522.5490065376806 55.38461538461539 524.6153846153846 57.45099346231942 524.6153846153846 60.0 z "
                fill="black" stroke-linecap="square"
                stroke-linejoin="butt" stroke-width="0.625"
                stroke-miterlimit="10.0" stroke-dashoffset="0.0" stroke="black"/>
        </g>
        <g latexdraw:type="dot" id="id14283159" latexdraw:size="10.0"
            latexdraw:dotShape="*" latexdraw:position="520.0 180.0">
            <path
                d="M 524.6153846153846 180.0 C 524.6153846153846 182.54900653768058 522.5490065376806 184.6153846153846 520.0 184.6153846153846 C 517.4509934623194 184.6153846153846 515.3846153846154 182.54900653768058 515.3846153846154 180.0 C 515.3846153846154 177.45099346231942 517.4509934623194 175.3846153846154 520.0 175.3846153846154 C 522.5490065376806 175.3846153846154 524.6153846153846 177.45099346231942 524.6153846153846 180.0 z "
                fill="black" stroke-linecap="square"
                stroke-linejoin="butt" stroke-width="0.625"
                stroke-miterlimit="10.0" stroke-dashoffset="0.0" stroke="black"/>
        </g>
        <g latexdraw:type="joinedLines" id="id13626851">
            <polyline points="660.0,120.0 660.0,180.0 "
                stroke-width="2.0" stroke="black" latexdraw:rotationAngle="0.0"/>
        </g>
        <g latexdraw:type="joinedLines" id="id84515">
            <polyline points="660.0,120.0 720.0,120.0 780.0,60.0 "
                stroke-width="2.0" stroke="black" fill="none" latexdraw:rotationAngle="0.0"/>
        </g>
        <g latexdraw:type="joinedLines" id="id24246221">
            <polyline points="720.0,120.0 780.0,180.0 "
                stroke-width="2.0" stroke="black" latexdraw:rotationAngle="0.0"/>
        </g>
        <g latexdraw:type="dot" id="id17542455" latexdraw:size="10.0"
            latexdraw:dotShape="*" latexdraw:position="660.0 180.0">
            <path
                d="M 664.6153846153846 180.0 C 664.6153846153846 182.54900653768058 662.5490065376806 184.6153846153846 660.0 184.6153846153846 C 657.4509934623194 184.6153846153846 655.3846153846154 182.54900653768058 655.3846153846154 180.0 C 655.3846153846154 177.45099346231942 657.4509934623194 175.3846153846154 660.0 175.3846153846154 C 662.5490065376806 175.3846153846154 664.6153846153846 177.45099346231942 664.6153846153846 180.0 z "
                fill="black" stroke-linecap="square"
                stroke-linejoin="butt" stroke-width="0.625"
                stroke-miterlimit="10.0" stroke-dashoffset="0.0" stroke="black"/>
        </g>
        <g latexdraw:type="dot" id="id26646525" latexdraw:size="10.0"
            latexdraw:dotShape="*" latexdraw:position="660.0 120.0">
            <path
                d="M 664.6153846153846 120.0 C 664.6153846153846 122.54900653768058 662.5490065376806 124.61538461538461 660.0 124.61538461538461 C 657.4509934623194 124.61538461538461 655.3846153846154 122.54900653768058 655.3846153846154 120.0 C 655.3846153846154 117.45099346231942 657.4509934623194 115.38461538461539 660.0 115.38461538461539 C 662.5490065376806 115.38461538461539 664.6153846153846 117.45099346231942 664.6153846153846 120.0 z "
                fill="black" stroke-linecap="square"
                stroke-linejoin="butt" stroke-width="0.625"
                stroke-miterlimit="10.0" stroke-dashoffset="0.0" stroke="black"/>
        </g>
        <g latexdraw:type="dot" id="id21553139" latexdraw:size="10.0"
            latexdraw:dotShape="*" latexdraw:position="720.0 120.0">
            <path
                d="M 724.6153846153846 120.0 C 724.6153846153846 122.54900653768058 722.5490065376806 124.61538461538461 720.0 124.61538461538461 C 717.4509934623194 124.61538461538461 715.3846153846154 122.54900653768058 715.3846153846154 120.0 C 715.3846153846154 117.45099346231942 717.4509934623194 115.38461538461539 720.0 115.38461538461539 C 722.5490065376806 115.38461538461539 724.6153846153846 117.45099346231942 724.6153846153846 120.0 z "
                fill="black" stroke-linecap="square"
                stroke-linejoin="butt" stroke-width="0.625"
                stroke-miterlimit="10.0" stroke-dashoffset="0.0" stroke="black"/>
        </g>
        <g latexdraw:type="dot" id="id17791078" latexdraw:size="10.0"
            latexdraw:dotShape="*" latexdraw:position="780.0 60.0">
            <path
                d="M 784.6153846153846 60.0 C 784.6153846153846 62.54900653768058 782.5490065376806 64.61538461538461 780.0 64.61538461538461 C 777.4509934623194 64.61538461538461 775.3846153846154 62.54900653768058 775.3846153846154 60.0 C 775.3846153846154 57.45099346231942 777.4509934623194 55.38461538461539 780.0 55.38461538461539 C 782.5490065376806 55.38461538461539 784.6153846153846 57.45099346231942 784.6153846153846 60.0 z "
                fill="black" stroke-linecap="square"
                stroke-linejoin="butt" stroke-width="0.625"
                stroke-miterlimit="10.0" stroke-dashoffset="0.0" stroke="black"/>
        </g>
        <g latexdraw:type="dot" id="id3464527" latexdraw:size="10.0"
            latexdraw:dotShape="*" latexdraw:position="780.0 180.0">
            <path
                d="M 784.6153846153846 180.0 C 784.6153846153846 182.54900653768058 782.5490065376806 184.6153846153846 780.0 184.6153846153846 C 777.4509934623194 184.6153846153846 775.3846153846154 182.54900653768058 775.3846153846154 180.0 C 775.3846153846154 177.45099346231942 777.4509934623194 175.3846153846154 780.0 175.3846153846154 C 782.5490065376806 175.3846153846154 784.6153846153846 177.45099346231942 784.6153846153846 180.0 z "
                fill="black" stroke-linecap="square"
                stroke-linejoin="butt" stroke-width="0.625"
                stroke-miterlimit="10.0" stroke-dashoffset="0.0" stroke="black"/>
        </g>
        <g latexdraw:type="joinedLines" id="id7828737">
            <polyline points="120.0,300.0 120.0,360.0 "
                stroke-width="2.0" stroke="black" latexdraw:rotationAngle="0.0"/>
        </g>
        <g latexdraw:type="joinedLines" id="id28769520">
            <polyline points="180.0,300.0 240.0,360.0 "
                stroke-width="2.0" stroke="black" latexdraw:rotationAngle="0.0"/>
        </g>
        <g latexdraw:type="dot" id="id12951151" latexdraw:size="10.0"
            latexdraw:dotShape="*" latexdraw:position="120.0 360.0">
            <path
                d="M 124.61538461538461 360.0 C 124.61538461538461 362.54900653768055 122.54900653768058 364.6153846153846 120.0 364.6153846153846 C 117.45099346231942 364.6153846153846 115.38461538461539 362.54900653768055 115.38461538461539 360.0 C 115.38461538461539 357.4509934623194 117.45099346231942 355.38461538461536 120.0 355.38461538461536 C 122.54900653768058 355.38461538461536 124.61538461538461 357.4509934623194 124.61538461538461 360.0 z "
                fill="black" stroke-linecap="square"
                stroke-linejoin="butt" stroke-width="0.625"
                stroke-miterlimit="10.0" stroke-dashoffset="0.0" stroke="black"/>
        </g>
        <g latexdraw:type="dot" id="id10668206" latexdraw:size="10.0"
            latexdraw:dotShape="*" latexdraw:position="120.0 300.0">
            <path
                d="M 124.61538461538461 300.0 C 124.61538461538461 302.54900653768055 122.54900653768058 304.6153846153846 120.0 304.6153846153846 C 117.45099346231942 304.6153846153846 115.38461538461539 302.54900653768055 115.38461538461539 300.0 C 115.38461538461539 297.4509934623194 117.45099346231942 295.38461538461536 120.0 295.38461538461536 C 122.54900653768058 295.38461538461536 124.61538461538461 297.4509934623194 124.61538461538461 300.0 z "
                fill="black" stroke-linecap="square"
                stroke-linejoin="butt" stroke-width="0.625"
                stroke-miterlimit="10.0" stroke-dashoffset="0.0" stroke="black"/>
        </g>
        <g latexdraw:type="dot" id="id32962581" latexdraw:size="10.0"
            latexdraw:dotShape="*" latexdraw:position="180.0 300.0">
            <path
                d="M 184.6153846153846 300.0 C 184.6153846153846 302.54900653768055 182.54900653768058 304.6153846153846 180.0 304.6153846153846 C 177.45099346231942 304.6153846153846 175.3846153846154 302.54900653768055 175.3846153846154 300.0 C 175.3846153846154 297.4509934623194 177.45099346231942 295.38461538461536 180.0 295.38461538461536 C 182.54900653768058 295.38461538461536 184.6153846153846 297.4509934623194 184.6153846153846 300.0 z "
                fill="black" stroke-linecap="square"
                stroke-linejoin="butt" stroke-width="0.625"
                stroke-miterlimit="10.0" stroke-dashoffset="0.0" stroke="black"/>
        </g>
        <g latexdraw:type="dot" id="id18133518" latexdraw:size="10.0"
            latexdraw:dotShape="*" latexdraw:position="240.0 360.0">
            <path
                d="M 244.6153846153846 360.0 C 244.6153846153846 362.54900653768055 242.54900653768058 364.6153846153846 240.0 364.6153846153846 C 237.45099346231942 364.6153846153846 235.3846153846154 362.54900653768055 235.3846153846154 360.0 C 235.3846153846154 357.4509934623194 237.45099346231942 355.38461538461536 240.0 355.38461538461536 C 242.54900653768058 355.38461538461536 244.6153846153846 357.4509934623194 244.6153846153846 360.0 z "
                fill="black" stroke-linecap="square"
                stroke-linejoin="butt" stroke-width="0.625"
                stroke-miterlimit="10.0" stroke-dashoffset="0.0" stroke="black"/>
        </g>
        <g latexdraw:type="joinedLines" id="id16059422">
            <polyline points="400.0,300.0 460.0,300.0 520.0,360.0 "
                stroke-width="2.0" stroke="black" fill="none" latexdraw:rotationAngle="0.0"/>
        </g>
        <g latexdraw:type="dot" id="id258432" latexdraw:size="10.0"
            latexdraw:dotShape="*" latexdraw:position="400.0 300.0">
            <path
                d="M 404.6153846153846 300.0 C 404.6153846153846 302.54900653768055 402.54900653768055 304.6153846153846 400.0 304.6153846153846 C 397.4509934623194 304.6153846153846 395.38461538461536 302.54900653768055 395.38461538461536 300.0 C 395.38461538461536 297.4509934623194 397.4509934623194 295.38461538461536 400.0 295.38461538461536 C 402.54900653768055 295.38461538461536 404.6153846153846 297.4509934623194 404.6153846153846 300.0 z "
                fill="black" stroke-linecap="square"
                stroke-linejoin="butt" stroke-width="0.625"
                stroke-miterlimit="10.0" stroke-dashoffset="0.0" stroke="black"/>
        </g>
        <g latexdraw:type="dot" id="id3544298" latexdraw:size="10.0"
            latexdraw:dotShape="*" latexdraw:position="460.0 300.0">
            <path
                d="M 464.6153846153846 300.0 C 464.6153846153846 302.54900653768055 462.54900653768055 304.6153846153846 460.0 304.6153846153846 C 457.4509934623194 304.6153846153846 455.38461538461536 302.54900653768055 455.38461538461536 300.0 C 455.38461538461536 297.4509934623194 457.4509934623194 295.38461538461536 460.0 295.38461538461536 C 462.54900653768055 295.38461538461536 464.6153846153846 297.4509934623194 464.6153846153846 300.0 z "
                fill="black" stroke-linecap="square"
                stroke-linejoin="butt" stroke-width="0.625"
                stroke-miterlimit="10.0" stroke-dashoffset="0.0" stroke="black"/>
        </g>
        <g latexdraw:type="dot" id="id23974834" latexdraw:size="10.0"
            latexdraw:dotShape="*" latexdraw:position="520.0 360.0">
            <path
                d="M 524.6153846153846 360.0 C 524.6153846153846 362.54900653768055 522.5490065376806 364.6153846153846 520.0 364.6153846153846 C 517.4509934623194 364.6153846153846 515.3846153846154 362.54900653768055 515.3846153846154 360.0 C 515.3846153846154 357.4509934623194 517.4509934623194 355.38461538461536 520.0 355.38461538461536 C 522.5490065376806 355.38461538461536 524.6153846153846 357.4509934623194 524.6153846153846 360.0 z "
                fill="black" stroke-linecap="square"
                stroke-linejoin="butt" stroke-width="0.625"
                stroke-miterlimit="10.0" stroke-dashoffset="0.0" stroke="black"/>
        </g>
        <g latexdraw:type="joinedLines" id="id909280">
            <polyline points="720.0,300.0 780.0,360.0 "
                stroke-width="2.0" stroke="black" latexdraw:rotationAngle="0.0"/>
        </g>
        <g latexdraw:type="dot" id="id2601365" latexdraw:size="10.0"
            latexdraw:dotShape="*" latexdraw:position="720.0 300.0">
            <path
                d="M 724.6153846153846 300.0 C 724.6153846153846 302.54900653768055 722.5490065376806 304.6153846153846 720.0 304.6153846153846 C 717.4509934623194 304.6153846153846 715.3846153846154 302.54900653768055 715.3846153846154 300.0 C 715.3846153846154 297.4509934623194 717.4509934623194 295.38461538461536 720.0 295.38461538461536 C 722.5490065376806 295.38461538461536 724.6153846153846 297.4509934623194 724.6153846153846 300.0 z "
                fill="black" stroke-linecap="square"
                stroke-linejoin="butt" stroke-width="0.625"
                stroke-miterlimit="10.0" stroke-dashoffset="0.0" stroke="black"/>
        </g>
        <g latexdraw:type="dot" id="id23370530" latexdraw:size="10.0"
            latexdraw:dotShape="*" latexdraw:position="780.0 360.0">
            <path
                d="M 784.6153846153846 360.0 C 784.6153846153846 362.54900653768055 782.5490065376806 364.6153846153846 780.0 364.6153846153846 C 777.4509934623194 364.6153846153846 775.3846153846154 362.54900653768055 775.3846153846154 360.0 C 775.3846153846154 357.4509934623194 777.4509934623194 355.38461538461536 780.0 355.38461538461536 C 782.5490065376806 355.38461538461536 784.6153846153846 357.4509934623194 784.6153846153846 360.0 z "
                fill="black" stroke-linecap="square"
                stroke-linejoin="butt" stroke-width="0.625"
                stroke-miterlimit="10.0" stroke-dashoffset="0.0" stroke="black"/>
        </g>
        <g latexdraw:type="text" id="id4380896" fill="black" latexdraw:position="bl">
            <text x="40.0" y="60.0">$2$</text>
        </g>
        <g latexdraw:type="text" id="id21304854" fill="black" latexdraw:position="bl">
            <text x="60.0" y="140.0">$4$</text>
        </g>
        <g latexdraw:type="text" id="id18901444" fill="black" latexdraw:position="bl">
            <text x="120.0" y="100.0">$3$</text>
        </g>
        <g latexdraw:type="text" id="id8887707" fill="black" latexdraw:position="bl">
            <text x="120.0" y="200.0">$6$</text>
        </g>
        <g latexdraw:type="text" id="id27493025" fill="black" latexdraw:position="bl">
            <text x="180.0" y="100.0">$1$</text>
        </g>
        <g latexdraw:type="text" id="id16878563" fill="black" latexdraw:position="bl">
            <text x="260.0" y="60.0">$5$</text>
        </g>
        <g latexdraw:type="text" id="id23013366" fill="black" latexdraw:position="bl">
            <text x="260.0" y="200.0">$7$</text>
        </g>
        <g latexdraw:type="text" id="id15088440" fill="black" latexdraw:position="bl">
            <text x="340.0" y="80.0">$T_1$</text>
        </g>
        <g latexdraw:type="text" id="id545888" fill="black" latexdraw:position="bl">
            <text x="340.0" y="140.0">$4$</text>
        </g>
        <g latexdraw:type="text" id="id5604349" fill="black" latexdraw:position="bl">
            <text x="400.0" y="100.0">$3$</text>
        </g>
        <g latexdraw:type="text" id="id590533" fill="black" latexdraw:position="bl">
            <text x="460.0" y="100.0">$1$</text>
        </g>
        <g latexdraw:type="text" id="id28290800" fill="black" latexdraw:position="bl">
            <text x="540.0" y="60.0">$5$</text>
        </g>
        <g latexdraw:type="text" id="id10068435" fill="black" latexdraw:position="bl">
            <text x="540.0" y="200.0">$7$</text>
        </g>
        <g latexdraw:type="text" id="id26525402" fill="black" latexdraw:position="bl">
            <text x="600.0" y="80.0">$T_2$</text>
        </g>
        <g latexdraw:type="text" id="id31099819" fill="black" latexdraw:position="bl">
            <text x="400.0" y="200.0">$6$</text>
        </g>
        <g latexdraw:type="text" id="id27269613" fill="black" latexdraw:position="bl">
            <text x="660.0" y="100.0">$3$</text>
        </g>
        <g latexdraw:type="text" id="id3670672" fill="black" latexdraw:position="bl">
            <text x="660.0" y="200.0">$6$</text>
        </g>
        <g latexdraw:type="text" id="id3335666" fill="black" latexdraw:position="bl">
            <text x="800.0" y="200.0">$7$</text>
        </g>
        <g latexdraw:type="text" id="id16702775" fill="black" latexdraw:position="bl">
            <text x="720.0" y="100.0">$1$</text>
        </g>
        <g latexdraw:type="text" id="id29556605" fill="black" latexdraw:position="bl">
            <text x="800.0" y="60.0">$5$</text>
        </g>
        <g latexdraw:type="text" id="id25572390" fill="black" latexdraw:position="bl">
            <text x="60.0" y="280.0">$T_3$</text>
        </g>
        <g latexdraw:type="joinedLines" id="id24786063">
            <polyline points="120.0,300.0 180.0,300.0 "
                stroke-width="2.0" stroke="black" latexdraw:rotationAngle="0.0"/>
        </g>
        <g latexdraw:type="text" id="id10552026" fill="black" latexdraw:position="bl">
            <text x="120.0" y="380.0">$6$</text>
        </g>
        <g latexdraw:type="text" id="id3824919" fill="black" latexdraw:position="bl">
            <text x="120.0" y="280.0">$3$</text>
        </g>
        <g latexdraw:type="text" id="id4166740" fill="black" latexdraw:position="bl">
            <text x="180.0" y="280.0">$1$</text>
        </g>
        <g latexdraw:type="text" id="id33116516" fill="black" latexdraw:position="bl">
            <text x="260.0" y="380.0">$7$</text>
        </g>
        <g latexdraw:type="text" id="id15116825" fill="black" latexdraw:position="bl">
            <text x="340.0" y="280.0">$T_4$</text>
        </g>
        <g latexdraw:type="text" id="id11738243" fill="black" latexdraw:position="bl">
            <text x="400.0" y="280.0">$3$</text>
        </g>
        <g latexdraw:type="text" id="id11897390" fill="black" latexdraw:position="bl">
            <text x="460.0" y="280.0">$1$</text>
        </g>
        <g latexdraw:type="text" id="id9431775" fill="black" latexdraw:position="bl">
            <text x="540.0" y="380.0">$7$</text>
        </g>
        <g latexdraw:type="text" id="id1012441" fill="black" latexdraw:position="bl">
            <text x="720.0" y="280.0">$1$</text>
        </g>
        <g latexdraw:type="text" id="id20393606" fill="black" latexdraw:position="bl">
            <text x="800.0" y="380.0">$7$</text>
        </g>
        <g latexdraw:type="text" id="id14774367" fill="black" latexdraw:position="bl">
            <text x="440.0" y="240.0">$(4)$</text>
        </g>
        <g latexdraw:type="text" id="id25448189" fill="black" latexdraw:position="bl">
            <text x="700.0" y="240.0">$(4,3)$</text>
        </g>
        <g latexdraw:type="text" id="id30837023" fill="black" latexdraw:position="bl">
            <text x="140.0" y="420.0">$(4,3,1)$</text>
        </g>
        <g latexdraw:type="text" id="id14094932" fill="black" latexdraw:position="bl">
            <text x="420.0" y="420.0">$(4,3,1,3)$</text>
        </g>
        <g latexdraw:type="text" id="id17737587" fill="black" latexdraw:position="bl">
            <text x="700.0" y="420.0">$(4,3,1,3,1)$</text>
        </g>
    </g>
    <defs/>
    <metadata>
        <latexdraw:metadata>
            <latexdraw:latexIncludes>\usepackage{amssymb}&#xd;
</latexdraw:latexIncludes>
            <latexdraw:displayXScale>true</latexdraw:displayXScale>
            <latexdraw:displayYScale>true</latexdraw:displayYScale>
            <latexdraw:unit>CM</latexdraw:unit>
            <latexdraw:zoom>1.0</latexdraw:zoom>
            <latexdraw:magneticGridStyle>CUSTOMISED</latexdraw:magneticGridStyle>
            <latexdraw:gridGap>20</latexdraw:gridGap>
            <latexdraw:magneticGrid>true</latexdraw:magneticGrid>
            <latexdraw:version>3.3.8</latexdraw:version>
            <latexdraw:size>
                <latexdraw:width>1034</latexdraw:width>
                <latexdraw:height>832</latexdraw:height>
            </latexdraw:size>
            <latexdraw:position>
                <latexdraw:x>56.0</latexdraw:x>
                <latexdraw:y>152.0</latexdraw:y>
            </latexdraw:position>
        </latexdraw:metadata>
    </metadata>
</svg>
