<?xml version="1.1" encoding="windows-1252"?>
<svg xmlns="http://www.w3.org/2000/svg"
    xmlns:latexdraw="http://latexdraw.sourceforge.net/namespaces/latexdraw"
    version="1.1" baseProfile="full">
    <g>
        <g latexdraw:type="joinedLines" id="id14364793">
            <polyline
                points="260.0,140.0 500.0,60.0 540.0,180.0 260.0,140.0 "
                stroke-width="2.0" stroke="black" fill="none" latexdraw:rotationAngle="0.0"/>
        </g>
        <g latexdraw:type="joinedLines" id="id3447592">
            <polyline points="540.0,180.0 420.0,260.0 260.0,140.0 "
                stroke-width="2.0" stroke="black" fill="none" latexdraw:rotationAngle="0.0"/>
        </g>
        <g latexdraw:type="joinedLines" id="id32342745">
            <polyline points="260.0,140.0 220.0,280.0 420.0,260.0 "
                stroke-width="2.0" stroke="black" fill="none" latexdraw:rotationAngle="0.0"/>
        </g>
        <g latexdraw:type="joinedLines" id="id10040472">
            <polyline points="220.0,280.0 300.0,360.0 420.0,260.0 "
                stroke-width="2.0" stroke="black" fill="none" latexdraw:rotationAngle="0.0"/>
        </g>
        <g latexdraw:type="bezierCurve" id="id23165746">
            <path
                d="M 420.0 260.0 C 460.0 280.0 581.4304661822948 246.42383454426295 600.0 200.0 C 618.5695338177052 153.57616545573705 547.4341649025254 44.18861169915817 500.0 60.0 "
                stroke-width="2.0" stroke="black" fill="none" latexdraw:rotationAngle="0.0"/>
        </g>
        <g latexdraw:type="bezierCurve" id="id33233358">
            <path
                d="M 300.0 360.0 C 560.0 400.0 640.0 300.0 660.0 240.0 C 680.0 180.0 547.4341649025254 44.18861169915817 500.0 60.0 "
                stroke-width="2.0" stroke="black" fill="none" latexdraw:rotationAngle="0.0"/>
        </g>
        <g latexdraw:type="bezierCurve" id="id21074810">
            <path
                d="M 260.0 140.0 C 220.0 140.0 131.05572809000083 230.80650449500456 140.0 280.0 C 148.94427190999917 329.19349550499544 200.0 380.0 300.0 360.0 "
                stroke-width="2.0" stroke="black" fill="none" latexdraw:rotationAngle="0.0"/>
        </g>
        <g latexdraw:type="dot" id="id4947544" latexdraw:size="10.0"
            latexdraw:dotShape="*" latexdraw:position="260.0 140.0">
            <path
                d="M 264.61538461538464 140.0 C 264.61538461538464 142.54900653768058 262.5490065376806 144.6153846153846 260.0 144.6153846153846 C 257.4509934623194 144.6153846153846 255.3846153846154 142.54900653768058 255.3846153846154 140.0 C 255.3846153846154 137.45099346231942 257.4509934623194 135.3846153846154 260.0 135.3846153846154 C 262.5490065376806 135.3846153846154 264.61538461538464 137.45099346231942 264.61538461538464 140.0 z "
                fill="black" stroke-linecap="square"
                stroke-linejoin="butt" stroke-width="0.625"
                stroke-miterlimit="10.0" stroke-dashoffset="0.0" stroke="black"/>
        </g>
        <g latexdraw:type="dot" id="id26772142" latexdraw:size="10.0"
            latexdraw:dotShape="*" latexdraw:position="220.0 280.0">
            <path
                d="M 224.6153846153846 280.0 C 224.6153846153846 282.54900653768055 222.54900653768058 284.6153846153846 220.0 284.6153846153846 C 217.45099346231942 284.6153846153846 215.3846153846154 282.54900653768055 215.3846153846154 280.0 C 215.3846153846154 277.4509934623194 217.45099346231942 275.38461538461536 220.0 275.38461538461536 C 222.54900653768058 275.38461538461536 224.6153846153846 277.4509934623194 224.6153846153846 280.0 z "
                fill="black" stroke-linecap="square"
                stroke-linejoin="butt" stroke-width="0.625"
                stroke-miterlimit="10.0" stroke-dashoffset="0.0" stroke="black"/>
        </g>
        <g latexdraw:type="dot" id="id2178284" latexdraw:size="10.0"
            latexdraw:dotShape="*" latexdraw:position="300.0 360.0">
            <path
                d="M 304.6153846153846 360.0 C 304.6153846153846 362.54900653768055 302.54900653768055 364.6153846153846 300.0 364.6153846153846 C 297.4509934623194 364.6153846153846 295.38461538461536 362.54900653768055 295.38461538461536 360.0 C 295.38461538461536 357.4509934623194 297.4509934623194 355.38461538461536 300.0 355.38461538461536 C 302.54900653768055 355.38461538461536 304.6153846153846 357.4509934623194 304.6153846153846 360.0 z "
                fill="black" stroke-linecap="square"
                stroke-linejoin="butt" stroke-width="0.625"
                stroke-miterlimit="10.0" stroke-dashoffset="0.0" stroke="black"/>
        </g>
        <g latexdraw:type="dot" id="id17047741" latexdraw:size="10.0"
            latexdraw:dotShape="*" latexdraw:position="420.0 260.0">
            <path
                d="M 424.6153846153846 260.0 C 424.6153846153846 262.5490065376806 422.54900653768055 264.61538461538464 420.0 264.61538461538464 C 417.4509934623194 264.61538461538464 415.38461538461536 262.5490065376806 415.38461538461536 260.0 C 415.38461538461536 257.4509934623194 417.4509934623194 255.3846153846154 420.0 255.3846153846154 C 422.54900653768055 255.3846153846154 424.6153846153846 257.4509934623194 424.6153846153846 260.0 z "
                fill="black" stroke-linecap="square"
                stroke-linejoin="butt" stroke-width="0.625"
                stroke-miterlimit="10.0" stroke-dashoffset="0.0" stroke="black"/>
        </g>
        <g latexdraw:type="dot" id="id9913436" latexdraw:size="10.0"
            latexdraw:dotShape="*" latexdraw:position="540.0 180.0">
            <path
                d="M 544.6153846153846 180.0 C 544.6153846153846 182.54900653768058 542.5490065376806 184.6153846153846 540.0 184.6153846153846 C 537.4509934623194 184.6153846153846 535.3846153846154 182.54900653768058 535.3846153846154 180.0 C 535.3846153846154 177.45099346231942 537.4509934623194 175.3846153846154 540.0 175.3846153846154 C 542.5490065376806 175.3846153846154 544.6153846153846 177.45099346231942 544.6153846153846 180.0 z "
                fill="black" stroke-linecap="square"
                stroke-linejoin="butt" stroke-width="0.625"
                stroke-miterlimit="10.0" stroke-dashoffset="0.0" stroke="black"/>
        </g>
        <g latexdraw:type="dot" id="id8207207" latexdraw:size="10.0"
            latexdraw:dotShape="*" latexdraw:position="500.0 60.0">
            <path
                d="M 504.6153846153846 60.0 C 504.6153846153846 62.54900653768058 502.54900653768055 64.61538461538461 500.0 64.61538461538461 C 497.4509934623194 64.61538461538461 495.38461538461536 62.54900653768058 495.38461538461536 60.0 C 495.38461538461536 57.45099346231942 497.4509934623194 55.38461538461539 500.0 55.38461538461539 C 502.54900653768055 55.38461538461539 504.6153846153846 57.45099346231942 504.6153846153846 60.0 z "
                fill="black" stroke-linecap="square"
                stroke-linejoin="butt" stroke-width="0.625"
                stroke-miterlimit="10.0" stroke-dashoffset="0.0" stroke="black"/>
        </g>
        <g latexdraw:type="text" id="id28724252" fill="black" latexdraw:position="bl">
            <text x="420.0" y="140.0">$1$</text>
        </g>
        <g latexdraw:type="text" id="id33305215" fill="black" latexdraw:position="bl">
            <text x="400.0" y="200.0">$2$</text>
        </g>
        <g latexdraw:type="text" id="id1958383" fill="black" latexdraw:position="bl">
            <text x="560.0" y="140.0">$3$</text>
        </g>
        <g latexdraw:type="text" id="id6535689" fill="black" latexdraw:position="bl">
            <text x="520.0" y="300.0">$4$</text>
        </g>
        <g latexdraw:type="text" id="id26127308" fill="black" latexdraw:position="bl">
            <text x="280.0" y="220.0">$6$</text>
        </g>
        <g latexdraw:type="text" id="id12890604" fill="black" latexdraw:position="bl">
            <text x="300.0" y="320.0">$5$</text>
        </g>
        <g latexdraw:type="text" id="id13231587" fill="black" latexdraw:position="bl">
            <text x="180.0" y="260.0">$7$</text>
        </g>
        <g latexdraw:type="text" id="id32449580" fill="black" latexdraw:position="bl">
            <text x="340.0" y="80.0">$8$</text>
        </g>
    </g>
    <defs/>
    <metadata>
        <latexdraw:metadata>
            <latexdraw:latexIncludes>\usepackage{amssymb}</latexdraw:latexIncludes>
            <latexdraw:displayXScale>true</latexdraw:displayXScale>
            <latexdraw:displayYScale>true</latexdraw:displayYScale>
            <latexdraw:unit>CM</latexdraw:unit>
            <latexdraw:zoom>1.0</latexdraw:zoom>
            <latexdraw:magneticGridStyle>CUSTOMISED</latexdraw:magneticGridStyle>
            <latexdraw:gridGap>20</latexdraw:gridGap>
            <latexdraw:magneticGrid>true</latexdraw:magneticGrid>
            <latexdraw:version>3.3.8</latexdraw:version>
            <latexdraw:size>
                <latexdraw:width>1034</latexdraw:width>
                <latexdraw:height>827</latexdraw:height>
            </latexdraw:size>
            <latexdraw:position>
                <latexdraw:x>263.0</latexdraw:x>
                <latexdraw:y>135.0</latexdraw:y>
            </latexdraw:position>
        </latexdraw:metadata>
    </metadata>
</svg>
